<mxfile host="app.diagrams.net" agent="Mozilla/5.0 (Windows NT 10.0; Win64; x64) AppleWebKit/537.36 (KHTML, like Gecko) Chrome/129.0.0.0 Safari/537.36" version="24.9.1">
  <diagram name="Page-1" id="yV7jMdKN4w0nOWucE_El">
    <mxGraphModel dx="1050" dy="565" grid="1" gridSize="10" guides="1" tooltips="1" connect="1" arrows="1" fold="1" page="1" pageScale="1" pageWidth="827" pageHeight="1169" background="none" math="0" shadow="0">
      <root>
        <mxCell id="0" />
        <mxCell id="1" parent="0" />
        <mxCell id="VTj1KqyeiY5SHbrKJYaJ-8" value="Commande" style="swimlane;fontStyle=0;childLayout=stackLayout;horizontal=1;startSize=26;fillColor=none;horizontalStack=0;resizeParent=1;resizeParentMax=0;resizeLast=0;collapsible=1;marginBottom=0;whiteSpace=wrap;html=1;" parent="1" vertex="1">
          <mxGeometry x="41" y="41" width="140" height="78" as="geometry" />
        </mxCell>
        <mxCell id="VTj1KqyeiY5SHbrKJYaJ-9" value="ID [PK]" style="text;strokeColor=none;fillColor=none;align=left;verticalAlign=top;spacingLeft=4;spacingRight=4;overflow=hidden;rotatable=0;points=[[0,0.5],[1,0.5]];portConstraint=eastwest;whiteSpace=wrap;html=1;" parent="VTj1KqyeiY5SHbrKJYaJ-8" vertex="1">
          <mxGeometry y="26" width="140" height="26" as="geometry" />
        </mxCell>
        <mxCell id="VTj1KqyeiY5SHbrKJYaJ-10" value="ID_Client [FK]" style="text;strokeColor=none;fillColor=none;align=left;verticalAlign=top;spacingLeft=4;spacingRight=4;overflow=hidden;rotatable=0;points=[[0,0.5],[1,0.5]];portConstraint=eastwest;whiteSpace=wrap;html=1;" parent="VTj1KqyeiY5SHbrKJYaJ-8" vertex="1">
          <mxGeometry y="52" width="140" height="26" as="geometry" />
        </mxCell>
        <mxCell id="VTj1KqyeiY5SHbrKJYaJ-14" value="" style="endArrow=none;html=1;rounded=0;entryX=0;entryY=0.5;entryDx=0;entryDy=0;" parent="1" target="VTj1KqyeiY5SHbrKJYaJ-16" edge="1">
          <mxGeometry width="50" height="50" relative="1" as="geometry">
            <mxPoint x="181" y="79.5" as="sourcePoint" />
            <mxPoint x="281" y="80" as="targetPoint" />
          </mxGeometry>
        </mxCell>
        <mxCell id="VTj1KqyeiY5SHbrKJYaJ-15" value="Clients" style="swimlane;fontStyle=0;childLayout=stackLayout;horizontal=1;startSize=26;fillColor=none;horizontalStack=0;resizeParent=1;resizeParentMax=0;resizeLast=0;collapsible=1;marginBottom=0;whiteSpace=wrap;html=1;" parent="1" vertex="1">
          <mxGeometry x="360" y="41" width="140" height="104" as="geometry" />
        </mxCell>
        <mxCell id="VTj1KqyeiY5SHbrKJYaJ-16" value="ID [PK]" style="text;strokeColor=none;fillColor=none;align=left;verticalAlign=top;spacingLeft=4;spacingRight=4;overflow=hidden;rotatable=0;points=[[0,0.5],[1,0.5]];portConstraint=eastwest;whiteSpace=wrap;html=1;" parent="VTj1KqyeiY5SHbrKJYaJ-15" vertex="1">
          <mxGeometry y="26" width="140" height="26" as="geometry" />
        </mxCell>
        <mxCell id="VTj1KqyeiY5SHbrKJYaJ-17" value="Nom" style="text;strokeColor=none;fillColor=none;align=left;verticalAlign=top;spacingLeft=4;spacingRight=4;overflow=hidden;rotatable=0;points=[[0,0.5],[1,0.5]];portConstraint=eastwest;whiteSpace=wrap;html=1;" parent="VTj1KqyeiY5SHbrKJYaJ-15" vertex="1">
          <mxGeometry y="52" width="140" height="26" as="geometry" />
        </mxCell>
        <mxCell id="VTj1KqyeiY5SHbrKJYaJ-18" value="Prénom" style="text;strokeColor=none;fillColor=none;align=left;verticalAlign=top;spacingLeft=4;spacingRight=4;overflow=hidden;rotatable=0;points=[[0,0.5],[1,0.5]];portConstraint=eastwest;whiteSpace=wrap;html=1;" parent="VTj1KqyeiY5SHbrKJYaJ-15" vertex="1">
          <mxGeometry y="78" width="140" height="26" as="geometry" />
        </mxCell>
        <mxCell id="VTj1KqyeiY5SHbrKJYaJ-34" value="&lt;div&gt;&lt;span style=&quot;background-color: initial;&quot;&gt;n&lt;/span&gt;&lt;br&gt;&lt;/div&gt;" style="text;html=1;align=center;verticalAlign=middle;whiteSpace=wrap;rounded=0;" parent="1" vertex="1">
          <mxGeometry x="321" y="49" width="60" height="40" as="geometry" />
        </mxCell>
        <mxCell id="VTj1KqyeiY5SHbrKJYaJ-35" value="1" style="text;html=1;align=center;verticalAlign=middle;whiteSpace=wrap;rounded=0;" parent="1" vertex="1">
          <mxGeometry x="165" y="59" width="60" height="30" as="geometry" />
        </mxCell>
        <mxCell id="VTj1KqyeiY5SHbrKJYaJ-36" value="Exercice 1" style="text;html=1;align=center;verticalAlign=middle;whiteSpace=wrap;rounded=0;" parent="1" vertex="1">
          <mxGeometry x="10" width="60" height="30" as="geometry" />
        </mxCell>
        <mxCell id="VTj1KqyeiY5SHbrKJYaJ-37" value="" style="ellipse;whiteSpace=wrap;html=1;" parent="1" vertex="1">
          <mxGeometry x="210" y="39" width="120" height="80" as="geometry" />
        </mxCell>
        <mxCell id="VTj1KqyeiY5SHbrKJYaJ-38" value="Réserve" style="text;html=1;align=center;verticalAlign=middle;whiteSpace=wrap;rounded=0;" parent="1" vertex="1">
          <mxGeometry x="240" y="54" width="60" height="30" as="geometry" />
        </mxCell>
        <mxCell id="VTj1KqyeiY5SHbrKJYaJ-39" value="" style="endArrow=none;html=1;rounded=0;entryX=1;entryY=0.5;entryDx=0;entryDy=0;" parent="1" target="VTj1KqyeiY5SHbrKJYaJ-37" edge="1">
          <mxGeometry width="50" height="50" relative="1" as="geometry">
            <mxPoint x="210" y="80" as="sourcePoint" />
            <mxPoint x="260" y="30" as="targetPoint" />
          </mxGeometry>
        </mxCell>
        <mxCell id="VTj1KqyeiY5SHbrKJYaJ-42" value="" style="shape=image;verticalLabelPosition=bottom;labelBackgroundColor=default;verticalAlign=top;aspect=fixed;imageAspect=0;image=data:image/png,iVBORw0KGgoAAAANSUhEUgAAAuoAAAH9CAYAAABMXFkYAAAAAXNSR0IArs4c6QAAAARnQU1BAACxjwv8YQUAAAAJcEhZcwAADsMAAA7DAcdvqGQAAOgnSURBVHhe7N0HmCVF1cbxRhTFDCpBQLIEQQTBgGRERHIUEEmSkyJBQIIiShRBcpScQRAkSBAUBEFFchLJOUlQRD+93/zKPWNzvbM7Mzs723fm/J+n9+50V3dXd1d469SpqklaPVRJkiRJkiRJkjSKt4z5TZIkSZIkSZKkQaRQT5IkSZIkSZIGkkI9SZIkSZIkSRpICvUkSZIkSZIkaSAp1JMkSZIkSZKkgaRQT5IkSZIkSZIGkkI9SZIkSZIkSRpICvUkSZIkSZIkaSCNEerWXfr3v/9dfpNkpJBpOkmSpP+EFkiSkcL46tvGrEwa0fAw//rXv8r/k6RbmWSSSapJJ520/MbfSZIkydgJLeCXFmiIREmSQTEUWqARQp04F3nbvffeW33ve9+rHnvssep973vfmBBJ0mxko8hKk002WTXffPNV6623XjXLLLNUb3lLepglSZKMjXYp8tvf/rY65phjqkceeaSafPLJsxxNuobQtNLs/PPPX62//vrVrLPOOubowGmMRf2f//xn9eKLL1bnnntuddxxx1UvvfRS9da3vnXM0SRpPjKldPzcc89Vs802W3XooYdWiy++eFYwSZIk/eQf//hH9fjjj1cXX3xxddppp1VPPfVU0QJZjibdgvT6f//3f9UTTzxRTTXVVCUd0wKDpTFC/c9//nO11157FYG+9dZbV+9973tLhu1WtKb682qHOtxg6bb4NhGWdCL9qKOOKj1ChxxySPX5z38+K5gkSZJ+cs8991QHH3xw9frrr1crr7xyNc000xTRk/RNt9XLI11v6AGSfr/1rW+VRuepp55aLb300mOODpzGCPXbb7+9WmWVVYpA//Wvf1295z3vGXMkSbqHJ598srhuXX/99dUPf/jDFOpJkiQD4MYbb6y23XbbItAPOOCAau655x5zJEm6i3XXXbfo2ZNOOmm8hHpjFAQx8+53v7t6+9vfXloiSdKNsPxET5BWfpIkSdJ/DLx729veViykTbKSJslAMBCaHhgKHdAooR5+aDk1U9LNZOWSJEkyOGiA7IVMup2hnLEoc0OSJEmSJEmSNJAU6kmSJEmSJEnSQFKoJ0mSJEmSJEkDSaGeJEmSJEmSJA0khXqSJEmSJEmSNJAU6kmSJEmSJEnSQFKoJ0mSJEmSJEkDSaGeJEmSJEmSJA0khfooo321N/9vX2CqPUySJEmSJEky/KRQH0X0Jb7b96dIT5IkSZIkmfikUG84nazbnf5uD+f/lrDtxLPPPltde+211Z133jlmT1U9/fTT1fXXX1/dfffd1RtvvDFmb5IkSZIkE5v2er8T7TogGRmkUB/BTDLJJGP+9x/8bbvtttuqb3/729Vpp51W/ub6Yt/ee+9dnX322dXLL7/8P+cmSZIkSZIkw0sK9YZDMD/11FPVGWecUZ1zzjnV3/72t/8R0f62Pfzww9VPfvKT6qKLLuq1pj/44IPVj3/84yLAX3zxxbLP7wMPPFA99NBD5W8tcPtuv/32co1//OMfZX+SJAMnrFpp2RoaGBJs+T6T0UikfXX8q6++Wur4r3/969VOO+1U7brrrtUOO+xQbb/99m+q97P8GVlM0vMxG/E1uVyst9561dvf/vbqpz/9aTXNNNOMOZL85je/qbbddtvqne98Z3Xuuef2+W4uvfTSEm7uueeuzjvvvGrSSSetbrzxxmr33Xev5pxzzmqXXXapZp555uqCCy6ottlmm+qLX/xideKJJxZhfvHFF1e77bZbtdRSSxVr+/TTTz/mqn0TSae94TCaefTRR6vvfOc71S233FIdfPDB1dJLL1295S3ZHu5WBpPG45y///3v1UsvvVT985//7G1MJ/0j3uF73vOesinL0J936Nx8193L7373uyJE3//+91cHHHBA9bGPfWzMkdFF5IGAke4Pf/hD6fn+7W9/W/ZJ5xFuhRVWqPbZZ59quummqyabbLKyb2z5oH794Qw3WqCrvvKVr5RvpXFFCwyWFOpdwA033FAE+Dve8Y4isvt6N5dcckm13XbbFVHuHb7tbW8rlvK77rqrVHZzzDFH9a53vascC6F+wgknFCHRLtRldi15xySRyHjx/7e+9a3lN7bkP6RQH1lI77H93//935vyQl/E8UgDf/7zn6v3vve9mU8GgEYOcf7lL3+5WnvttaspppiilEd9Ed9FmYfMc91LCvX/EOWOdK3sOfbYY6sLL7ywWnjhhavZZput13ruuPR+6623lnFnm222WbXGGmuUc+WZ9nIr/i9/1fcJq16Het/frhvhbPa5b/v1Ilzkuzg2mkmhPsog1AlwYpsLy1RTTTXmyH+RMX7xi18UAf7Rj360WNS1qnWVcXFhjf/IRz5SxP7YhPqSSy7Za1F//vnnq5tuuqmIfedBWP9fYIEFqhlmmKFk7HqmHe2kUO9eoihsT8squscee6xYswjIEIN9ERXWvffeW1199dXFqi4vZh7pP8SAd/jxj3+8WmSRRUrZNzaXPAPgNYY++9nPVh/60If+51339W2T5pFC/c288MILZQzZ8ccfX9K5evqTn/zkmKP/RR1+yCGHVBtssEG1/vrrl7pafcSl9fXXX+8tl5Rh8spCCy1UffjDHy7X5CLrPvPOO28J96tf/aq43NJhn/jEJ4oekCe5zLqe/wsnX8mXwonTlFNO2ZvXMJrzWwr1UYYPzX1FJvvRj35UzTrrrG8SC1q5EgVRQCTOPvvs1cknn1wyklb2/vvvX/ZttdVWRVyPTahLTH5luF//+telK+3+++/vzYAyvAJ06623rlZeeeWyX2Z0rySFercRxZ80LB/5lcYNqPa3dE2oX3bZZdWRRx5ZGq0avWOrgORFFdmiiy5ayjQN67GJzOR/CRFw3XXXlfE5RAQDQae8JNwrr7xSDBHKrs985jPlm/l+ysn3ve995dc3s9W/edI8Uqi/mfPPP78IcMYx1vJZZpml13BWT8/yyCOPPFJNO+20RYD/9a9/LfW6euiZZ56pJp988pJ/lG10wM4771wtu+yyRahrBJgJji7QeyUf0R0avv7PgPfcc89Vp556agmrPKPV5DH3IdK/+c1vVgsuuGCJW+S10ZzHUqiPMrRsr7rqqmLR47qy3HLLVZ/73OfGHK2qv/zlL2VqRVsIhC996UvlmMy3xRZbVPPNN1+13377FcHel1BnSXeeY1rwrhfdZjK433py0f220korlUyfYvQ/pFDvHurpuf6NFKx6pIi/qBBRr3TGVgHJT/KNLmqNWUIxGRxEG6GiV0Ld0CkvxTesl01hvGAJ5AYw11xzjTnyn2OjXUQ0mRTqb+aII44odTND2w9+8IPecivScD3d19M0y/nvf//7UrcT53r15J9I/3rDWdU1bI1VO/zww4tF3T7lF594jd/VV1+9hDUGjhtfe/6J+2sIfPrTn64WX3zxYsAb7QylUPeSG8Fdd93Vmn/++Vs9iabVI0zH7B3d9GSIVo/wbvVkmtarr77aOuyww1ozzTRTa4899hgT4j/0ZJ7WhhtuWN7flVde2erJYOXcHsHQuuaaa1o9ma+1zjrrtP70pz+V8BdccEGrp8Xd2njjjcvfPQmq1VMZtnoqs9auu+7a6sncrRVWWKHVI/hb9957b+v5558v38T27LPPlvt97WtfK+F7GhAlfsl/eOSRR1obbbRRa5555mn94he/KN8vaRbyRn174403Wo899lirpyFc0v6BBx7Y6hEHrR6R15pxxhnLtvfee7d6GmEl/Ude6Gt78sknW0888USrR1yWPCgNuE/Sf7wv701Z9vTTT5f32eldx6aMUi5tueWWrQ984AOlnPT9Fllkkdbxxx9fvuutt97aeuaZZ0p5Fd8j0kDSHG655ZZWTyO39aUvfal15513jtk7ejnuuONaU0wxRWuXXXYpf0ea7Svd2i/vKHv++te/lvyjTIq88txzz5X3uvLKK7eWX375Vo+QbB166KGtaaaZpvW2t72t1F/3339/yVM2efC0004rOoI+ePDBB0s+ci3Xdr0rrrii5LW11167aLmkVeqVNdZYozXDDDMUnTQ+pKmv4Wi1agW/+93vLr8sS1rK7WgxO8YCWPeH9asb2bmxb2wI05PJy/W0qnWj9VR8pYfDxv9Ta9k1WRxZD5Okm+gp98qvtG6TjlnQv/GNb5RB2/w1TXvWU3lV3//+94sVa5VVVikDrKX/yAt9bdH1zCIon/Qn3yX/i/fGSjf11FOX99npXcemjOppUBXf3IMOOqh8M9/P3/xtfVfT2F1zzTXF0lX/JpEekqSJtNfd8f9xpVvhuOnJP8qkyCsf/OAHy6aepxnU4fKEvPbVr3612nzzzYt7jTxlcx2aQzlJW3CN4c7nWq7tWvaFy6DrJkNLCvUGI4PEBoNEuasQ0NxSZByrjP7xj38smcX0TDLW+BJ+nT0t5uKTpuv59NNPL5u53G3uCUIkSZqMCq1eqclP8tDll19euiS5gt1zzz3F15K/ptmRuJdx6+I2oeuX64TzBirq2vNw0j8G+s7+PaY7nq+sWWJWW2218v2WWWaZ4ppHROjK55Jmilvf3dS1cV7QnlaSpKkQz9yE1NGnnHJKWcDQzG/cL6VpAt8geEaIk046qdTfxnv422aSCeJcfa/c41a7/PLLl8GjzpU34FoEv3A333xzmXnmrLPO6r0efWAOd/dyni0ZWvKNdhFmPzCY1IA2A0FMxWRGGJYjvpgsRvzGxzej8EdjwTcAxSBWPu58Bm0GkX7rW98qg1TNxKCFnSTdhIrn8ccfrw488MCSZwzUIsQ1QE1/atYEDVX5gF+0zf+T5hJim5jQqxjfTC+InhJCgphx3OA45edxxx1XBsjVhXqSdAPSLOs1kayOtuCR+tn4MkY8xwl5g7HNu26gp5njbFtuuWU5509/+lOvUAdhTrBHQ7WeL+Qndb0eqR133LH0ULmf69EHFlU0Vo4miOslQ0cK9S4grDwyi+4m3VVPPPFEsQq+9tprxbrtOGu6TBLhB4uuK5lchWcw3IYbblitu+66ZTOvsUG/xPqee+5ZrPxZ0SVNpD0faFxa9GujjTYqg9QsDMZivuKKK5ZGsMXAWF+5rGjstuch6TzTejNp/zbx7Yl15SJDBiMGC7syTS8JC+Jee+1V0sO+++5bXJ6C9rSTJBMLvUHqZOm7niaJbLOs6D3isqJR+vTTTxd9wJin50gP0mKLLVYGNaq/11lnnSKsN9100+IOQ5jTEZF3wm2lPT9xjxFOfR8aIK631lprVZtsskmZIc51ucMkQ0sK9S4gMk1sMgufTRZv3bkyKwEfmZjIqGeygSJDcqthZeTvyfKoxWwzMtwvi9QSSyxRRE2SNIm6yJIPpGduXHyVdQ2bBUFvFOuTRUTMhiQPBfW8lnQn9W9Y/45mXjCLhnJMA43rgDRhMzsDC3vdHSbFejKxIXxNycx49uSTTxZxDXWvBqdedr2CertZvRnYNDrV28KzgB922GG9mxlkuIdpvIYAHxvygMaCX43c733ve+WedIDryU+mgGbQM2uMBkQytKRQ7yJCgGi9mk+Vb62KRguZT60M0l6xxDn1/f6vMuq0L/4v8/o7BppoENgUEqz4/OF0n/HtrV8nSZqANGljIbLwkEGhhBhx/sMf/rC4P5h6LNPu6IQxY/755y+9gqZRZZXk+kTAa9S1l49JMtxEGcYiTnSbJ52riR509XCMuyDg/R0ur1HuScPRwy5MhONnzh3MYoYx+USc1xehBTRg/d+13FscXNNaKwwekX+SoSWFehfCom4hAhnOgBCtWKKj08DOcGORyWSw2GeTwRAZW6YjwvmZGYhlUJ3GgC40K6La/N8AEpncOePrD58kQ4m0bJMuNTaJdPP/GuhklUuCjA+6hq1Kql45tVtfk5FDp29rBh8WQm4DyjtWSz0trOvSS5CiPZmYSKdLLbVUWZfBgHflmcGgGpbqZH7q6mmD45V5Ni58a665ZlmB1H71ts15V155ZUnTBoiGQY4xTv3v7/a0TlfMOeecZaApfaBHMu5tc037Hn744RI2NcHQk2+0C5GRiGTuLvXlsjuJDK1l0ykaHBdCPnzdZeIgwvHptF83lhlmjOzWdcanV/cWK7pWM7eYnXbaKX3Uk4mO/FCvXPxfhWOVPjMiqJgIMVP1SeP18Jl2Ryfx3SMtMHTobbFgi0GnxMfzzz/fa9wI6mknSYaDSHPG0xgUescdd5SxNnzC1ct+DRi1Mjk9wAChftfrzohnJdE99tij9B7pSVTHO4f4DzcV4zWM5XBuvUx0X7rBgokGoZpkgg747ne/W35Ngyouv/zlL4vv+te+9rXiqpP5ZGiZ9DuWUWwAfAPNuCAR8Z+SIJI3IwPZIgPwUdN9q7Uby5rXMxn8LQNafpiFPDIiwWJFMiuVQmY0N6rpzcyhal5UlvVonZuyyeA715BpWST9HVbJ9vuOVozEtxos30DLM3uX+W4mLJH+YsN9991XKijfQYXEGsQns/4t6uGT0UX7d1f+KfOUi8o8q0BbhdGqmMrBCF9Pa8mEQZ5lBVa3GPyrXhqNRDqL+l4d710w0qnT55lnnpI+1f82dbel/q1abgwb8W1zDfWQ+trGAPepT32qXMt+Yp6WsA6Ba9jfbhVn3JM/GPRs7ufeDHaMdaz9xn/Uy9iI/2jFd6JpTfxhHQ7verBM0pMIGtHsufvuu8tIYglCN44WYdIZVh6bbjAZSoHW3uXks9okFr5kjnu34RKgm4v/mszvWhHOPhlROPt0dXGbcT6EdUxDSti452jOkHXMYavta7Q931eFV/27JEOPdC5dmvFAoSjdmqKMC4MCkqtLDHoe7ZVH0pmoBqUjvsDyrqntLP5ClCgTiRACSX7ONDThMO7K1H/yLIsxQTiaibQZdbo6mdtqe1nmmHpanS69+ltdL7wyMVB30ww0gP3Cx1g0+xlLI43X743wTY+/4f/up1Hg3GC05xHv02w7xkZZt4EWGCypILoQGUCG4M7C2uP/nTKFfcS0cDJnhJOpFIIyVoSr74twzmVhitXHbFrbfmXoFOlJE5D+VFxXXHFFGSRFXKnst9pqqzKFmDSc4irpD4SOMk7a2XjjjcvCLqac4/KnwiV8Mh0lw4n0Fpv0qT6XRrm5RL1s87eyjkFOWGWe/2tcCh8bYe6Yup6bq/qeC4zrhjEvqN/b5ty4V2yuSTu4TiBsMnSkUO9C2jNBZKI6fe1rFyyxr06ncJ1wfFxhkmRCwZLDAgqNSu4K5kq3mJF50a3UW/eXzPSa9EWkDelJWuGzzieYNdfAUgP3TXlX71kULkmGi/6WXZGW+xu+nU7n9ud6EWZc4ZKB0xihHpVpkowUMj1PGOplhUqBaIqZjfQw6S43kIr1J79BMhBCZEg3rIQGyhk0rwdRV7bNsXq4ZGjxTvO9JiOFoUjLjbKoeyCWMd0x/q8Czi23btmkWd1/KvVk+Pj9739f7brrrsUtwRzpLKFcueCbpJUn6S+RVqJy5TZg5VKLxJi60Xz8BpkmEx5uGPRAaoHcum0LLRD10PjSqMGkpgQ08OHQQw8ty9uykiVJN6BylykNaJR+DSq1eptR+O2uRcngieLK+2bdNHjUnL4GoFvOml+x8RjC5XtPxgdpKNKRmUjka+tHSGOf//zny4QH9TSWjcGhQcPbYFKCxwrYZhUx8LEhUiVJxgljnUG3euNogRNPPLFogcHSGKFuZSvzdBppbwpA3dYsZEnSLai0NS5lTGnYzBF8pVMwDh0hnqDMsIQ1n3Szu3zhC18oPunxvvO9J+NDpDUCnFuVfG1hl5///OdlOjrzrhtYB2FSqA8Nt99+e5kv3MxNpgzkzlaftSRJmo6xLNKsOe9pgWOOOaZogcHSGKFuBUFL4RsQZtEJ7i8sZt2KQrs/r3aoww2WbotvE5E5WX5UNHqEWNQXXXTRFIxDgLRkk64UgOZJN/2iQX7m/tUbZ+5gVjjkO0+Ggkh3kKbUU8cdd1wR7SxkK664Yllnop4+bcngsUT+DjvsUH6tJmz+bka7+A7J/9Jt9fJQx7cpzxVw2dK41wOnMa/MGBFC/a677irzHXu4E044oUwVlEL9v0zohNht8W0ihLqFu3784x+XCj3nUR86pCWbCvuZZ54pZYTet7XWWqssA2+KsJiRA9JfkgwF9XJM/cQNxoq3P/vZz6pNNtmkrMhoqjvpT7rLtDd+mFrVNKvEDtcXC8VonI+2+mQgdFu9PNTxbcpzBSHU9QzRAuZRt/DeYGmUUDc5PP/SSy+99E3L2ydJt8ANw/LMN9xwQxnYyJc1hfrQcc8991Snn356EetWy7Xi6EwzzfSmQlqhnSRDSXv6MqbqwgsvrB544IGysqMBzKZ0TMYfi8XxUdf43m+//cqCU0nSjRg3xYXrpJNOGhkLHin8bFrO3AeSpBvhehE9QSkYhwYiKYSSGTdY05UTGvbcDsLdJcqQJBlqIm1FWuR3amEt6ZG17Kmnnirh6mk1GRzxrvWeRd5Okm6DRV0aHoo6qVGmvnigLOiSJAnq5YHeib/85S9FqOteDHeDJBkOIq1Jd9KfRvnLL7/8JrerZGjIRk/SzQxl2s0++SRJGg1x9Ne//rX61a9+VQaP6k780pe+1OtS5HiK9e6CpbRekfl/N1hP62mNOF9vvfXKoFLjJfhWZ29wkiRDTQr1JEkaSVjUCCODdL/3ve9V559/fhmgYxCpuWqH0mrRFxGPgd6r/ZzBXmc46BSvTn93CjcQ4vwQu6YzffXVV0sPSTc1tjyDKYS5v0iLZnUwBRvruucY3/eUJEkSpFBPkqTxcDOwmJTNDBsh6oZLDIXwYvUlKse1RVjEOXGNplJ/Pv+vP4dtqOLvGr4ftxGzp2h43XbbbV0n1KFXR4PRTDAvvfRSWY0QQ/GekiRJkEI9SZJGEpbJZ599tiwcYfaHL37xi29yeRmOGXXiPm+88UYZPGhuXCP527df//rX1bXXXltcIF588cXe+D/88MNlTmi+9a7TREEqToSzqcSsZfHKK6+UuBoM9ac//anMysXyPb7xj3NfeOGF4srEZeSxxx4r77abqL8HC/Isu+yy1Qc+8IEyGwzBjiZ+5yRJuo8U6kmSNBYCzjR4prpccMEFq1133bWsPjoxLJYaDGacsSLl1ltvXX5t2267bdns22yzzaq99967CNuwRJ9xxhnVbrvtVhbCajIaFyeffHL1/e9/v3rooYfKvtdee624dey///5lkanB4nvFN/NOfvOb31SHHHJIWQzk29/+dvWxj32sHOtG5pprrmrHHXes3v/+91cHHXRQabRp4CRJkgwFKdSTJGkUdVFnwB6LLiv2lFNOWc0222zV29/+9oki1A1oJbZZ1U0L+alPfarM5W71RNt8881XzT///MXyz8oKlleiV/xZpPuDZwtXk7ER72ls4cZ2vP1879W0gwsssEBv/AlOc4VzTWFl74v2+7T/jXgmlmZzZH/mM58pi1V5jxa4g+MRrv38TvQ33ITEu5p99tnLt/aduWf5P5oQvyRJupsU6kmSNBLz0BpESvQQQhZDCyaGW0EIyFlnnbVY0L/73e+WAa6xsUSzPFtV8aMf/WgRuUQ6q7T4sshbel7Dg/gl6Dzj3/72t7LvzjvvrB555JHemUOc7xyWbJtz7r///uKe8sQTT7zJatsuBusCUbxZy53rOs732y68LTLHheOrX/1qNd1005W4iY8GSsTF83Dl8Ux6OzyPb9QJrjR8tyOu3oF9ntu9VltttWr66acv17OQleu3I44PPvhgibP4x/PbJw5B/XmHk0iHfjUkZ5555jJA1vvm458kSTK+NGZlUr59prpi1fnpT39aTTPNNGOOJEn3QLh85zvfKavrHXzwwWU1srCuJQNDmXDaaaeVmTQ+97nPVYssskgRkBNrzmpC2pLmLOOHH354saCPjd/+9rfVYYcdVl199dVFuLG6E6bEKhZddNFqgw02KEKXyLdoDov8pptuWs0zzzzlnLPPPru65JJLiugzUJHoJpCdu8UWW5Ry0j5CMUQjQrhKe4S/5e654Pi/+xsAyV3DyrmB+yl7CeaNNtqo+I7vueeeZUpMop17CoE97bTTVltttVVxWzn00EPL/q997Wv/812IfIsBiYeVJglZwp37EH9+s6aIs4YAcbvuuusW16F6fvnlL39ZZlOxEu3kk09e9mnYSAfiIF3Uq7D6OxhOvFM9LfzujVGwSql3KJ7JwPD+pBeuRAcccEBXu0UloxdlgkX51APKwRGxMmkyOKJCrhOWv6BTmCRpOoTPxRdfXEQikU7kdhMEKPFtcCGhbQDl448/3ivozHhCiPs/Ucuq/vzzz5f8y5L8+9//vgzsdMx5hHP8ajTwhfb/umW9HfcmfIht12HdFifXueaaa6obbrihDHKFe/785z+vTjnllCKMxVl4DSWVDgEv7vaJo+ucd955RUz7ux3PS/jHN9TAcT8Dg+N5Wehdz+Z5XUucNSiE48suDIEvzjb3FQ/HhCHcJybKVo0UvT4LLbRQeRbjKnzLJEmS8SWFepIkjYR1lAAkRFlZY5vYtFuv++Kzn/1ssTgvt9xyxRLNgk24Hn/88dXyyy9fRDb3GSL6xz/+cZkxxkBUDRLhDjzwwOJKcdZZZ1XnnHNOEfann356EdMWfDryyCOLdZolvD0+/iaOCWNuOazxrDqEtfPPPPPMInZ32mmn0vsT5xCc3jnxqwfgqKOOKo2kGWecsdprr72qyy67rFi4HdMQIeBjSsJ2fCvTavLh9n/31MNggSC9BJ5Jo+Dcc88tvQ6eVW/UFVdcUVxcuBER8wYSC+/Z4/n322+/6tZbb61+8IMfFJeg/n6TCYXn8+78hpvPxIzPSCDfYTJSGN90nEJ9mGF9abc++bvd4t0pXMxr3A6LlwpU1zZrjjAqaZYsFSF3jCRpOtJtbAhRzi0i8sLErLgJMa55RCRhzV2FeI1tjz32qL71rW9VP/rRj4of9WSTTVbNPffcxQ3C//mtE+GzzDJLcR8BK+xSSy1VXF383zG4h4GrH/7wh8usIrZ55523hDOg1rX4mXMP6ms1TO+M/7cpEAlm1zfQlY+93xVXXLHMpBMDOb3bEJvKmhhcKg7GBxDSzvXLDUWYOKcTccyz+z+/cuWTaQw9QzyTX+/IfcyWw9rOys9v3XkaCcJ7dps4eI/KOO8gpkOcWIijDZF2PXfsSwZHvSwYLXje9nq/nXgvo+3ddDPj+61SqE8EfDTWKJYwIqQvhDNgSjh+qVHwq8R0QzvXPl3MrG0sT6xkzlOJsaCxyqnMstJImo40alNRcZOQRwhEwq4vq+1wEqKTMGQNJsj5qte3Y489tlitNY7lQ2JW3o08D8JaniXK99lnn+LHyF8bnp9QJp5ZoglbwpUrSmzcQOzjZ85SPzahbHYVPr6svCz4BnJyHeEXbzCn6QSJ9SC+gTj4hXLG+VEG1cMgwnWifsy3dB3PXn8em/JM/DyTBa00EjQGlHXi3B7WxlVHON+kKfjOIbT8P37j/0nSifY0oqyIvOrXJt9zp4oeG2S6Gh2kUB9mZDCZkLVbt7eBBmGZquNvFRFBoOuadU0FYL95jXfYYYfS9Qvnu6bwMnGg+zoq2STpFjRMNTIvvfTSau211y6D8qaYYoqJXimF6DaA00BG7heEdn3juuEYS3R7nq7jWVi5idf21SwJYCJVnuba4nobb7xxeQ8bbrhhteWWW1b77rtvqcSd2+k+cf2FF164zD0v3lxvDF71Tl1H2eP8ENwTEnH0TAS23ohNNtmk95kMRDUwlkuNsorwthHh/Pe55wgvrM3/Derl1qOR0ldDZWIgjSinY0shlfQXaUU+0ZDn6mVQuUa8vCrdf/nLXy55matXMroYUUJdQu9vwShcWD6C9vPbC9o4p76vE+MKx6/TwCm+mTJdezwCGfbGG2+szj///F4LHVS6RLhKASoqFjkWuKi4o2JUWdv6g+vHliQTCw3Oq666qgwUNKe3jaUVEzNtym/yLjeNddZZpwhGojk2Cx6ZrULlyl1jbAJS/nQ9eTzyfwhmz+i4vCyvs6LZWMFtrOzyu1kEPv3pTxcLdCdcg4sIH3lWdb1zzld2sFTziTdYNQaTDgX18oPY9g7ay0LPHM9iYyVXvpkhZbHFFitxFd553pEejHp4lkXXMIe9WV/MPtMUNCgNKJ1pppmKW5IeTs/hWyTDQ6TBepobG5HW6uHr58f/24+3n9OJCNeJOD+uIY0o+8yIFIO8/R15n9GNK9uVV15ZykZ5oD/pqr9xFaa/4erxTiY8I06oS0QsUSolf6tYJXhWOlvMKBCJzXGZob6vjn3RDa/ScJzVx/XjHL9xfZVgXEM419bVKw7cUQIZTMU8LmuW4+2Z0TRmfGL5aw4EcRW/eA+x+dvzxPMlycRGmh8paVG+s7XT1/PZr0whctdaa60yzadVPLnaxG/4yBPhsThRO65D6Lv3MsssUyz+zjfA1bR33Gf01lnMqC9cI7Z27HNtv+1llH3RmxfHPBMhy0IoDvEssXkm8SF0lbfKXW45eimEr4eN59h8880bMQVivCN+9uJk3IFeIS6J9XI/GR58C/WZdBR1dyctII0Ki7oWiH2Bv6Ped71I93Ut4O+6Foh9NvcPLWBMWT1NOA77LJglbav31fH1dC9/MAhcfvnl1dFHH13cYSAO8ko8U30Thyh7Qo94ZvvqWiDCxTOJY/16/u/dxfuKOCfDw4gS6hK3TKTL3KwJModZAyR2lZSKjc+2zCBTqEAMcDII01RfMmpdOPu/hG3WBa4q/q/yZNFh5XYdFSGrt/mGzdhg4JaE7lxd02YpsES2ypYPJmSIyBS6d6PrO/b5hf2sUq4Xx6BVzRVGxukPcT3vRmvcTAlmVPAu/Ho3F110UXk+8Y44ZGZMJgbSYOSJQF6NbWIzkDjIQypEeTieSQ9X+FV3ymP2yavKKI1xs8dwYTF3uo3VmcWWNdzm+u2IozzMqst9hhXedRZffPFihfZ/lbPzlWd94RoqZ7Q/t/h5Llv0Hggj/tzyuLKwKHPvsd/99IwYYGtVUvGoPxMRz9XFQFxlt+sT4cS68PWw5rDnRsPySPw0Ac+tPDfY1tgAdYvxQVH+JsODtBZ1txmEbOpKeUE9TAdwW9NYNeOSsDa926EFpOlI73E9PT90hYkbiHNpnqWbe6p0SAv4VZ9qcErL0rBzid1TTjmlaAEzKWkk2x/XlodpDNc2WNqsTtJ6PY/Is0sssUTZDCaPXsbQGe7pmdTrns9Gj4iXe7indSk8M61jKlSNgQgnDqFvjLXRQDaGxfW8Mw0IjXrvxvU6lV3JhGFECXVoWRLWBKh5hm3mKpYBbaYI+8UvflHm41WAqhS0Von7qJDqqAS0ZE8++eTeeXEJZZlOBciFxXzEMoDMQgjL8K5v2jMZW1hxkIm1TFXUZn3Qha7l2mmAiEpNIWCfQWcGl8Vxz6fAMUPCuHCOzKfA0GiJ2WG8B9exibdCwvW8P/ePeyVJ8mZU+gSozcwkBEBs5jeXz1TkkY9mmGGGsilLuHjYiEx5vhPyK6HHfUZ54XrKKdd3PwJQJctay1jQSahD+eZeIQCcbzYZ5ZNrEpVEgYWIIL7ipBIPcamsUk5xL1FOEZ7ur3yyIA1ffA0Q8XJN11eOsPq5r3OiLGFtVu55JnGIZ3JNc6XHHO7OV96ZpSYEhuvGO3afP/7xj6Xs4surnJzYeMbY6kSDLBl+5Df1L2FMNKt/ieq6FuBiJ49A3iVQCXv1ZTvCqeelO/U2iFrXtxH4phl17dAC8gohzZgXWoDLK11C+Mtv8p1GhalLNXD1mJsSVd5zLJAnDR7faKONSpgPfehDZb/ndC8aJer0eD75Xt7yPPKRxrNn9KzOUYYI72+CXjyMXTEgPp41rkfDeD6NfmGT4WPErUwqEfETZSE21685e/k8an1K6DKGQp7FylLfRDdf05VXXrm0GqPSClQQVu9T0Zr/2FRiMr3BnCob99DCZfliBbKPtVvl4Rn4kKpwZQA+oSxE7qcy9rdr8SPVpRXPrKLU6pXZ+Zm7/6c+9akSNxWXQSVawOZRNnODwmD33XcvFZ7eA9Y3GYmvLDGhoeEzy2hm0FC5+tumYhEX70EF6FlWWmmlYt1KBo7CPFcmHT9ULAY+qljMZMQK3AQISIMYiWRWYfkxKlooXzT2TSW47bbbFkuwby9vEa7yuvJJ/lauEMCsVCzE8mDgmgRAVPzCuocwflW6ygyVuXdD0Con2lEe6R4nUMSZmI4ykAhQTihbrIbqWbx38WZ8UDmz4rmGspkxgu+sXkHl2TbbbFOmVlTWEcss89EjqQxnAfd7xBFHlLKTaFcmEQfi4p14Hps4OVe55Hm46WgEKKe9N8JBYyREr+fnl//JT36ylO9cZYRvEhdccEFJw8pT76DT90k6M1Qrk6rPdtlllyJW1dvSs56YEMDSdkzSwB1Lw1F41myGPj1BddS5vql4Ebt6TsTVYGj1rDraPaRjhBYgyDVQ5Tf5ViNdfqEFDBj1K79bW0GeoTPkrShXovHn7/aGIGgN9Y2yxbMJIx8KL89rVBhE7jn9uj/rvPJDGaShTccY90Lc0xF0Cw0gX0IYZZuGhGtrLDinXm4lb8a7y5VJ+0AijUJRAlaJEbYE7RprrFF8PiU6jQEZSWaUQCOBt2MfkW8LweV84WUAljOJetVVVy0ZnOVJZaSLSOtX5tMIMNOCDKAA18JWeUnoLO8qOl1jgQylkJFpFCYyFYEd8VNhuX/EZ2wIY1OgsBR4H96F9xCb96JgUBCpjFnVkyR5M6y88qLKnlhUvsi3ygEbS7u/NcqJYcizKnR5TAVP6MpfXFdU3GEVC1Su8qsKncgTjsXM5vo24ls5Yx50IkblrsyoE5U6gfDFL36xDLwULxZuFbV4ErjhcgLlILHxhS98oddgoaxjhFDJKFfF33Mr94hlXfPOEa+YOtHzKdsYH9Zff/0iqFXoyjy+255ZOJZ1782zESpRVhMuymXlqsYOgRBxtrmP9y/uhL1y1vPakiSQj9STen+kfQKaEUpetMkX8o6eHCJd+la3SvOdkIZd0/Goi+2jDaRR95Fm1a+rr756yR8auIxu6u8VVlihaAH5nqh2X3kAoTNcT50f+xDpOv4O5HnljPwrfzJ0yj/q9DXXXLM8o14sjWSDTz2b55U/NZo1poUVX+sqKBusqEvcxzPUNYJ97snarlHfXuYkE44RJ9QlaoW/BMrirAUZGVAildFkBpsMFxVaeyaoE8cjjERuU+mYKpEFKIQzy4+Kw5RqLKusa3Efv3FvYe1T4UTG93ds4iveMoOMW79//D/+HhsRxrO7XhQC4huCP96F/0dckiT5D5Enp5566jJQUDewBrdxKjYVl80+LnQsqGaqkccDwpc/KLe7n/3sZ+U841qUD/Kb6weRt1Xu7qfy1EMY92Nl1oOmjHOPCN9O7Cd6Vbbi6N7OZ6hQbsnvcH9xJK5N/Ug0B+5B5LBuaszrYieSQ9QQPOLFchmrni677LJFQOh59Nz+Ly7Eelg5PZc4+WXc8KzKKIiPaxMgp556anmv8fzOPfHEE3vdAzo9e5IQsQS0hqa0+9WvfrWkQ+mWKJa+1IfqP+koiHzTiTgWx52vzpcf9P7poVLXuodeezpBXuXnrcHuPvKTel2YehnR133lBfepbyGShXcN13W92PztPOFC/7DwakyIIwtv5GFb6BLn2eLvOB7vyr006KPcSIaHESnUZVAzIcigMmTsh4QrcUtoEuJgcA3X46rCYiUhIzKGv1XAjsU97JfIYwOrGTcYVin+YPxNZSQtYF1ZutS0YmWM8cHzyqwKDhWcitPcxLrxdOUb4KKQ0R3dV2GRJKMZeVteZg1W4fLtNnakvtkn3+tOrufZOFd5YBCYMML7O8qnIPJenMNyLnyc4x5EtHOjMkZ7no18HMcJFOfHtVyHgHc8tng+DYB6vBwjPli6CXZWfsaIKAf1NLi2eEU87XM9jZsoB1X0yl3lZv2Z/HovMc2ia8avctz9XFuc4x3bV3dNiOdNkkD6kUb1ZEm7LNz2RfoK1MeDTTuRB6RzaVmeDELYyjPSqjwQuJ+/x3Vfx7nPWHNFI1qdbQVkjVu9S66hh4uPPOOghrEwVkgWjlGBQJefxdUmf3Nfkxfr70Pc5Wu9C3SB813LZv52f+v91/gYn3eWDJwRJ9QhAbFU646Nv0Mc94d64pWYnV/fF4lUa13CrxNho3tpbBgwZlCI7l0tXNYuXcoyHaGu+4oPJpEd9x4sGg/ixiUnBprEIBEWMpkzlhdXKSdJ8h+i/BhIGYIoJ+K3L9qP9/d+/b12X9ep36dTOH9HmE4MxNjhOlGWjo2439juW0e4cV0zGb1IG4RquKJJU/1JV4g6P+reSGv1ujj20QIMYXUib+jhHxeuSbPQE65Xh3usHjUGPL1LjGrq7nCz4zeuh8xx49AcU78btKpeF4/IezbGQPh//X34pRP0EOgZqw9OPeWUU0rjwHvkJhuuccnw0L8UO8KpZzzU/9bKlKDbwwwlMqeMFN1aMr37RQYa33s73zVdLwbN6t42TaPN37oGbXztWcOSpAlMyHyXJEkSKGvay5vYZ1N/tovooaTemKjDM4BFW129/fbbl54BYptWYNzTG8/VzLSQ9fqcuw2/eHGPQaFjw/01NhgQuac5v64R/JoggSsPo157PJMJx6h/0xKnRC8xR7dVZEgDOlmcDXbSdTShEqYus5gdhA+ojMmPLBYyifiMDyz1rmOgGCt+LEts42Jj4RQFgIyqAEiS4SQqw0B6j4ZrkiTJhIZFu17eKIPUmTQCLWAcBes2q/NQawG95iaj4JJiliYzuUVcuHmZjEJdzc+eSNbrzfItTmaTMttM1Okbb7xxMbhxOYO41svWvvD8LPTOcx06oa4R/Bp7Q/T3R/gnQ8eIFOos1BJ5X4nTcZlPGAk+pvbiKmPks5HYZmbRnWT6NPtlpMiczo+tnbh3p2P21+MV4kRXEp8wVm8tVq4wfNdlmLHdo36d9n2wz3Pax2eW8CfEPY9ZFMweYQYFDRGFgy41XV4ya5IMN9KpykIa1WiWL+s+n0mSJANBHWir14t16vUmY1y4dIQWUDeaocWgZ+O7zHpEM4QWcF57vR7EvW11hKvfF3zDN9tss2JI47JyzjnnFA0iDuppGxcasyNFjzuXFgPOxZkbjDirz/3fLC8muuAOQwPEOLqIayeUtcayeD73c524t/egkcKlxhTQpoxtf65kwjHihLrEo6XJR7yvBCmhCyNhG8RkTmAJnzuImRgMmtDV47guJRDvEjwisWtV1hOraxAart3e4nQs9rfHy0ATrWTHTY3kb7MjROZqJ7q93AviwB/e+fa7l004+93TNGZayOZENjDFZiUzq6l6ZgKdf7qp5zRKkmQ4Yb2SZk1lpqLSSDVjkzSZJEkyUEIMt1vKA8fV6epNxgHrCbAaK4fU/yZdUDdaEJEWMDUrtxBh61qA1nCNuhYAnWFf1NNBxMnxiBfXV4PQ9azbTH/I1cTMcerpWFmd4dCc7ep1+oDl3JSTZkXikqI+98uv3KDt0BW0gDi7n/93woBbBkLTtpq5arfddutdZdV7oI+sE2IKSuXz+PbyJ/1nxAl1iZf4Nm+wVmo7MoSuJIKUIDbTgJlVnGMBIi1QgybMf6qbh2g3/ZhzQsDy4TaS2+wDdTHt2hK7OYTN6OLvQCvVnMe2iJeEHhu4wDi3PlCjU2ZwX+4xMUuCeMU+LWKtfZs42ri0mDXBvKgs60S5OdWtyma6OANVZGLdauZujtkUQvAnyXAgDVrgh9VGJSNfmk1BZZfpMEmSgcBCboYmix2FG2kdFmTi2OJl6k2zoayzzjrFOGAKUFrAZhVResGMKtZFiUWCoNfPMfVs++xssVZKLGQYqF/pDfGKuhbqbPqBgUKcQo+op2380S1Gpt6PmWSsYUCsm/nF9LBcYfz62xoGW2+9dQnj+cSV/nDvTgjD/cbGIq8XIe4d70Fvv+vSQ+KbGmF4GHErk2ppanGq3IlX16vjcXXl6CLiDyZxamVK2BYkYn0WxnkyGVFuYSTI9IS5FqpVEwlkGSu6590zuqq0OGWoENquyc/N9RUE9enPAufpZpOROhUsgS4o9/F8Mqtr2ufZPZN4iUssrqIBQKwTQlrE3o9MJm7iZb+GRXvDwzWE6dRYSDqTK5MOHulXT48uW9YcA6fqxVOmw6RbIJZMa5crkw6coVqZVD2tDgRx3f4N1Pvh+qn+owVgnyX11X9QV4uDOjlW1BVeXck6rT4Vxj3qrnrcS9UH6tVwr4VyTrxc3zntWsB+WoDuYHl3v6ir/cb9aQ9xcD2zuzjH/dXn9AdruvrffnpKQ4LGERc6oS+8N0Kd64u4hUbwf9rEFK5Rpzlmyzruf6HLhmpl0hEn1L0c3UYGY0hwElg9UUGGcx9dWMJI/ARve4vYAEyZQMKWefhuyzgSrPCxLzI0CGLHdWu5fuAeURDIPOJpX2RAiJdzHXc+HA8inPho0Yuf+Pu/c/06V+Hh/8J5duHsk4kjfnXcQ3yc63riqRvQN3B+PQ7J2EmhPnikQV2thLp5gL/xjW+MOZIk3UUK9cEzVEJdncegRlyrA8PNJFCvqcfbtYC6tP691Lvh7qL+RF0LCO/a6s/6PaI+j2sHUV+7l3PCNcbf7uXXfcTB/9uxjz7wTOJErLue+j3Op1tCG7iO/4ub3nzncOWJawWhL8TZe9EgiH3wf9eJOGuAWHXY/TvFc7STQn0saD3yqTLfqAQpobYjUdk8ejx+7KsTxwmtvsLWRTriWD18EOe07w/Gdm6dTuE67as3UNrDteO4jGxTMBKbVi70PZL+k0J98CjY+GGGUFdZJ0k3kkJ98AyVUCfSlSf8tdXTncrhTvVmpzoyjsGxqPc7nR/051i7fgjieF+0X7M9fPux9vu3/10nrtPp/s4j0v1a7djAUt8p+V9SqI8FLV3+Zfy7tPTqXVHJ2FFoaKnrUjPfOj+4fH8DI4X64EmhnowUUqgPnqES6lxaLr/88iKUiM6sy4YGQp3F3uBaizK2eyIk/yGFeh/Eo3RqCSYDJ9/nwGHFIdQN+jFbgJVlU6j3DwXbfvvtVx199NFlwY3ttttuzJEk6S7UYQYfLrXUUtVhhx2WQn0AKDsJdW4aFt0ZqFCvS5qsuyYsqRH6JoV6H7AISzCZaIaGfJ8Dpy7UDzrooJI5uWA1JJs1lvCH3H///asjjzyyrCtg2lTU/T6TpMlolEvLZugIoW5KPUI9fJGTzqhnuKoqO7/5zW+WiRwGY1Gvl7VZd01YvGtbGqP+lxTqSdJQjOY3IPKSSy4p02GaGkuG7csXMfkPuqVV0meffXZZac+UqFbLRQqcpFuQhqXlm266qUwzauYNqzraFxMEJJ0hqg1kNIOJMWamWDZ3t2kMk6TbSKGe9BKfr2456LQvGR5Mr8kqfPzxx5euWzPopEgfN9KqzTSpZiSwlkCsJ9CQIipJ+gXrorFSpufjv6susy/LgXHjPZlVxBSJq6yyShmz0te830nSZFKoJwWfLj5fveuJq0XMvYoIF2IomXCYz17lIg3zT9dtyyKclfTYYYmUZi3Adeutt1YLL7xw2SA9J0k3IA1Ly+ahtqic+aoJThZ1A/CSvlE3mQDCdIpW2rQCJou6Xokk6TZSqHcx8brrgrm/+9p9xiOMCuCpp54qXasWQjAHq2MKPMfsM88q6tdLhh4+6hbtMeuLJaAXXXTR8t3iWyWdkS69JwPvjj322LLY0aabblqOZSMn6RakY0YTM49ZtEtjXcOdS0em43GjofPHP/6x+va3vz3es76MNNQh46q/O+mGZOKQQr2L8bptdQt4uwBHp3DtlvKAu8UJJ5xQRKKZMuaZZ55ixTWfPJ/pbbfdtlpooYXGhE4mJPXBpOaYNT1bFpr9Q8GWs74kIwF1WM76MjiUnRY7Y1wazKwvIxU6oa4HOtFJNyQTh6EU6vk1JwI+4B/+8IdSmFtBtS9LCwu5j3zRRRcVwR2C78orrywf3tLFsEKZuWd/+ctflrljZVQzZTjXoCb+fsnwEA0u3yBnexk4McNLvrekm4n0m1b0gePdhfEq+a/49j6scmpGITOKmU1II9A0wNbssHZMvfyMNJh0PyNKqA8kcUbY/pzTHnYg4duJzGZWEC4SxLTM1V4o+duApHPPPbfae++9q9tuu6033IUXXlistffdd18JyyeSu4vprPhCCmOLZYD1UvSHscU7SZIkSZrOQOuxevj+nDOQ8GMLM67z24+//vrrxZ3VgnA0gZ7bvfbaq/zaTjvttDKAmSGwP8T1xxYHDHW4ZOCMOKHeX+qJqj/nDfTaY7OkOPbyyy9XTz75ZLGG9wVh/tJLLxX/87/97W9j9lbVqquuWnx42wfZdBL77fvGxUCeM0mSJElGAv2t+yJcf8P3pQUGUteqx1nSCfRZZ521rDOx0047ldVv/d9Kzgbi+jW9bX/rfnHoTzz6Gy6ZMIwooc4vi2/2n/70p2JtlkFefPHFYrWWeH/9619Xv/nNb4pPt2PC2yRAYvjGG2/sDWO77rrriouKFqpwkfhNH3XPPfcUoc29wUwfup3cg48yWLKJ8Ntvv726+uqriwsKC3nACm7qLr6L4U8WmSEytjCOs4j7f0Cgf+Yzn6k+8IEPjNkzdiKDeTfcZa6//vrqhhtuKM/o1zN7Xwae1uOSJEmSJN1E1NPqM66l6jxupKZ+VQ+r76IOpAUifNTx6nXHQwsIp27Xq63ujzpSWAY0WoAGoAW4qApLO9AC6nJawP2df8011xQ3VVPQxv2i3m8n4iWsWYQuv/zy6vnnn69WW221avfddy8Dbg1Y9mszcYE56B999NFyPkPf008/Xd18881v0jXiZ7KDiINw4u9cvf0s93QP3WK8AA0Vz+zduIb3U78eneNc8UVfz5QMjhEl1CHxHXXUUWWkvURKfGt1brnllmUzQO2CCy54k4WaoL744ovLamjCWBHRttlmm1V77LFHEf517r///jLIxaIMMj9XFDNUOMciF6zlMqiEb3CcYyzgEj0kZglfBq4n6PaEHX9Hhg50cWlZy7wDQbfYySefXOK59dZb9z7nVlttVR1xxBGl0EJmsCRJkqSbMTaLm8iPf/zjItiJVVpg8803r7bYYosyYJWVut6rTRdwS1Uv0gImYlBXOscsXnfdddebposlxmkNY8bUn7SFc4S3eJtrE8IPPPBA0QKbbLJJcVchlGO6znHVtzQMQc69lYvLfPPN1/GcxRZbrMTFBAZwfY0M53oWzxFxY3kn4F1HHGkY52pM0Dt0j7juueeeRYRDI0U4WiZ0kmt6l95NGEddMzXE0DJpz4f/zpj/T1QIXomc5Xjttdcu/tWDgauITKM1yBKuBao1a+EZC6j4ZVm270Mf+lD5veqqq8rczXDctFA2x2UOwjuOsW4T4KecckrJbK5FAOt2mmqqqYqo1kAwxZRrao3abwS7QkBC9rfryMDu79csN/YR5MKElZ6l/+Mf/3i1+OKL916ff7pj9s0999zlmbXUDSS1muMMM8xQrul9arisuOKK5boGoWpkmCqMP3s85wc/+MHSaNAi9hz28XVPBo604tuwPCy77LLVLLPM8qZGVtI30qzKlDVnkUUWKb1GSdKNsLJaE2CmmWaqll9++SxPB4Cyk/VYPbXMMsuUem8wEOpnnXVW+Q7qWXWh+lr9RgvokSa6WZD9rf6jBdTd6tm6FlBH6gFXhxOh4qSufOihh4qR68477yzXUd/b73p+6Q+CmBVd3eA6tADRq7wLLTC2OkKcaBpl4sYbb1zCB84LUey6s802W+9CcZ6NfmDljzh5Fs8tLCEf49vUWeeff37REN6TuAo/3XTTVZ/73OfKPWgqQp5WiMX84t34Vt4x7Pf3aK/3QoNpwFlLgRYYLCPOoh4ZTCuR5VkC0zq0cILN8u4Srf9rHWvpGkEtUUc4rUObFrAW6DnnnFNGWMfsKTKKTQuSVZ3PmPOc/5GPfKS04LWaCfWvfvWr5VqmStRN5JoKIt1Ua665ZrGKy+jEfqAwkbmN5JYpZM7ZZ5+9/B8Kff/3rONCOJsZYUzhyG1G3OrPaSP6NT4UbDJqkkwMNFIVcGmRSZJkfCBCCUaGM4IJ/LnVwTZWZXWp+pc4J0L9XxnEkiyMulFdabVpY8O4tFh1mqCF84leOoIlXv1qkgjnEuG0Bc3BKm36adeiCQh7Pf+0wLjwHHVB3h+EFbdPfepT1a677lrmo48637PoTaA9Dj/88KI9iG2YiU4jU8+DZ+AHT9+w6jMQ0k7eoWuEdhBu9dVXL2sHnHjiiaVxkAwtI06oS6CErtYvX66VVlqpzMM6xxxzlEzkV8LXZaUFrYUcUx9KkMLMNddcZROW8NYqZuGO0dSEhMyshbTuuuuWVr9ljmeeeeYiimU+f6+zzjpldTUi299a0brg3DdmaSGK+ZRFNxjExd8s9+LHss9XPVqo4t9foR5hPIMCS+ER76L+nCz6ejWE8f6SZLiRd6V7ecsW+/x/IJVUkiSJMiOs1iuvvHLRAtYYifovejvV/+pmW2gBlun2OnLqqacuvdfq93B/UTa5B53A8GaubGFt7q9upz822GCD0kNIC3z4wx8u96prirGhro+6H/7v2lEm+js21I8xWtIeet7rz+L53JsOil4Cwt68/1/+8pereeedt4SliRgl9RSwDNMtnd6NRRWNwROmP8+UDIwRKdQJ4Wmnnbb4UUlwiIpfIpKgCfkQvP4fx9rRnSOhCiMsCFnbAgssUFrJujfhHoSG7iAtzBVWWKF0EcF1ZASC233BvUfBQeBrkcsMMr2CQCvXEuoyWH8E+biQwVyHnzyXnRggY1CIwbZazN6bZx2K+yXJQJHuVAJcvaRFeUK+iQooSZKkv6hL1enq1zXWWKP4dqt760YAmzrPfvWzOj5Ebjuxn1U5yqS4By3AaEewxzFllzKNK+8XvvCFYnmH69jP2j/YutY9aBD+5NxWbKz96nYGN8c9CwOdnnyusY7HQFL7eAjQNZ6b2w7DIWs/H3fnera4l3Diy3hIQ9ALrsVV0fV4ALiv95j6YegZkW+0ntEkQkTmiWMSk322+H8nIlP1FaYu4FEPb7/f2N9+LwWIbiStcN1K5kzXKrWAASGte0rGIejrzzRQ3E88WQF021kty3W18v0qYLjraOV7XxHnJBkupG/5Za211iozGKiAdBmrGKTfTnkvSZKkPxCZ6rZOZUnUyf0tZzqFi/q9rgUQeqDdZ9v/61pgbLhGe/3vPNb9008/vdpoo41Kna4e56pLO0B9T5Dbp3d//fXXL3W+hoN93HHoAg2PuIeN2I74BeJvv8GkcT/Xck3X5tqrh8Dzt7+DZPwZkYpMIpPgonvK3/3JEP0lMlinLvm4j3tHy70vFBwGfrLA8wuLUdNavhY2YKnXdVXPMINBHLWO/brfQgstVH3yk58sG0sAC6YWv1HcBj1EL0CSDDfyggas7liDSutjN5IkSQZCaIGop4daC8T1XL+9vo96e3xdSVnsXT/iHc8T+mHBBResPvvZz5bjxsVx39EjaRAqqzf3Fb3zUd+bHcbAVPV86JR4BnGNe8X9IIyNi6zrhIZwPV4LxriZPY5w52qUDC2j3nQq8UmsEmcnQax1SORGmAmB1qrEzS1GV5WR1v6OjB8Ng/Eh3FpMuWRQqY113WYAiEElpl2S+cQnSYYT6bue/6R96dWWJEkyoQkx2hdRB4fRa7jQo84/nmA3UDNcdBnxWMdNucyyrv5mHWclNxbOIE/hTbt4xhlnlHpefX/MMceUQaL8y7nqjqsh4VkZTmgghryjjz6691qhH4488sgyaJVgDxefZOgY9UJd4uOfBV077RAKErMwY8vE44OR2br7ZUCjs7V+jbrWWh4qIkOamokQ15pmvZTZ+abJ0Eahm1e2vjBTkkxMxreBmiRJMi6UM+pHInxcZU5YoYcLM8RZN4UPuBlljN0JwwZRbqNTzNwScWeYM9ZNPNX3jIBR38f6LmZ9cV4n3dOOd0ND0AoaA8a8xfVs7qfBYKa97AUdekacUNf6G5ewJogN9BCG9drgCefpKjLnql9zjl9xxRWl68iAT5kl5naXmW3RTRT4v0zs2n7rRLycE/Gyz0aQGzGu1WouU6PRjb6WKerXD8Q/4gDXi2eyL65rn/uJi5HZuqvM++q5PF9s/rYZFCKTtcc9SZIkSboJ9aL6UH0WdWUddaRj6mXbjDPOWGZpE9bgy7oW8H/TOdMLXE0IVbgHHeH8dr2h/rWvvT6NfXG8L6IeFy9jd1jAxUFdLT7iJX7mN4/BovG8XFS4sxLoJowQPjaLO3K1pRfi/nRC6Bb3rKNBIA4MiIx4pnqO+8e7sbmPxoHnSoaWEWlR10Ksj8xux3H+XeZaN8uEFUmJcAMidB/52/b1r3+9dBPxu+J/ZZpEuK6WqGu0w1XGvTsNqBB+XPHS+q27ALRnGgjn/vVwce32ff6WeTU0rLRqwIflh+vPqRvMzC8bbrhhGR3fVwMhSZIkSboB9ey46lzH1dUEqmkUuW9w3dDDbTIH9aO6khYwx7gpHtWjrMiIe6iT2+/huoRyJy0gTs7rL+pjg0XFw2BRvxG/2M4777xyTfHQoLBqKHFvbvgIb2MQZKHX4AhhL47xLuq4r33COlcYc6fX7+3/JsIwBaY1X7jppH4YWkbcyqQSiIRn7lArarUPjHRci48PuAEYWooynf1ai1xDzAlqekfCXEI3r6hw4oZI2AZhfuITn+j16XYNCd81XNtUTfWEr+XteuZT1W0kQ8UGLVrxIqrNtVo/Vkc3Eyu8ASEyRbSKWeJZBGJlMtczINU+4T2nTOr5tbhlZs/p/+JkBT3hIs6d7p2MnVyZdPyxtgALjXfpHcb0p0nSLeTKpINH2WllUiKXVTgMZANFXaxuNJiSe2mI6yC0gjpX/ae+VheyjpsqWd0aWsD/1fe+JeNe1JHOZwybf/75ixbghhK4jnqe33bdjVW8oJdbvGidTnVEe/3vWuJisSVxFzd1uDjbXI/Ve8kllywD8ukAmsWzML7RFMJZvfzzn/980UauYVyad+090wruUdct4hDHPS8DJzebeDfen2fnv053hU4a7fWe7xwrk1osyzcZLJP0fPBGNH3uvvvuMic5S7GWqwQ1UGRKmwreS5KwJZqwMoegldAIVi1nItsrIKJNdyRMhHcNLV8JUcKNhCcDmsrQPok9ErVzXYeQ1jUmcbtWvGIZRhiZRsFdj5drayg43zXFy756Yo9whAyxLZz4iad7ykQRH9cWzj7PKZx4uIet/boKC++r/pz1MEn/sMCFti83IivLmnozvnPSP7hnGaNhMY4f/vCHpaJLkm5CBS0Nc6tk0VQXJP3DcvsswOojY7ZYugdC1LfqPvW0+jHqykAY9R4doM5VR9Ie6jz6QF2NqL+FVScTv2G1tp/LCL1BZ7hGaIG4js29ff/6Ofb7Py0Qda6tE8LFr3iIm/pe3OKagbi5pvvZH40O7yLwDOp770ZcxE8478H+6K1vv7b/izddEVoE/u9+GkL1d9zX84wWaDTTWPJW+MlPflK0wGAZcQpComfRJq47WTEkHglTQ0Dr198SpUymRc0C4temBaTFGi3EQELWupTgI2PCtSR0re/2VrL/a4WKVz0x15HBxGtchboM4R4h5sXPPnGqZzLxc78IZ799nlEPQWye07n156zHPUmSJEm6CfWZ+k7d1qnOVR/SAurS0AKwTx0ZWiDqSNZj9Wsd11XHuk+7TqApnFO3soMuoVHogU4apR3xiri5h/uJj3hF/GJjNY/7Ocf/Wb7jeWyez7PTG+LgGcTVdevvAfV7+3Vu6KS4p7jQLSnSJxwjSqh3Shz1fX0d70+i6itcfV/78fh7oOfBvvb9Qx2uE/0NlyQTCpabugUI9tWtO0nSNDqlUVa1TLfDy9jqv/atTqd9nYgwncL2dY3Y3+l4p/CdGEi4TvfpL8N9XjJuRpxQryeW/v5d39eJephO4WPf2PbXjw3076CvcO1h+xuunf6ESZIJDWEjHbIeEew23audhFCSNIFIm9IpdwLuFu0W1mT4GFdd1un4uM4JIlx7+HHtb/9/0GlfJ/oTJujvNTvR6dz+Xq+/4ZKBkc6zSZI0Ct3IpiMzsMmUX7/+9a/LwOhw6UqSpiFdSp/8dw2EtELkCiusUK2++ur9cm9IkiTpixTqSZI0grBKGkRmmlCzF1xyySXV2WefXQRQkjQd099arVHj0mxhpvNjWc+eoCRJBksK9SRJGoeBSQZumYnATANcCZKk6XB7MauWHiCTAtQnG0iSJBkMKdSTJGkE4d8Y7i3EOf/0mMkIfICTpEmEbzq4uWhkSruxr56mkyRJBkoK9SRJGglrZMw/nCTdANHO1SWt6UmSDBUp1JMkaSRW2ttggw3K4mGWqLYoWpI0DQ1J0zBa2OSyyy6rZp999mr99dcf1KJ9yX/JnohkpDC+6TiFepIkjSJcCSy7TahbPOzwww+vbrrppuJS4HgOzkuaQKRDK0Wa7eXUU0+t5p577mrttdcusxdJx5lWB0fm82SkML7pOIV6kiSNhL8vFwLLfD/99NNvskqkr3rSBCIdGkNhIOkzzzxTGpPp+pIkyVCRQj1JksZRF+ULLLBAteyyy5ap7+67777qjTfe6B1cmiQTE+n05ZdfLm5Z0uVyyy1XzTrrrGOOjn+Xd5IkSdZ2SZI0CuLGprvQjC9f+cpXqj322KO64YYbqq9//evVk08+2Xs8u8aTiUE97f3xj3+sdtppp+qFF16o9tprr+rzn/9879zpkZaTJEkGSwr1JEkaDev51FNPXT311FPV7bffPmZvkjQDA0nvuOOOMt//FFNMkb09SZIMKVmiJEnSSOrWSPOpzzvvvGWg3qOPPlo9//zz6aeeTFSkP2MnpMX55puvmmWWWXoX5iLW05KeJMlQkEI9SZJGw4XgAx/4QHF7WWGFFarDDjusuvDCC4tPcIqhZGIg3Vk19yc/+Ul1/vnnV+utt17Z3ve+96U7VpIkQ0oK9SRJGg3h8853vrNaaKGFqjnnnLP6xS9+UfzVY1aNnAIvGS7qaU36u/TSS6vf/e531Sc+8YlqnnnmKWMqkiRJhpJGCfUoANNKliRJUC8PDNJjXSeSXn311bIvy4tkuKintb/85S/VO97xjt70mAwtma+TbmYo029jhDqRbptsssmq97znPWP2Jkl3QUiqvJFW3qFBgReF3lxzzVVtv/32xbJ56KGHlmnx4liUIUky1NTTlvRm8a0f/OAHxS9derQ4VxyL9JgMjnjXtIDyNEm6EY13aXgo6qRJei7SiJrtrrvuKtOwWTTipJNOqqaffvpei1k3orDuz6sd6nCDpdvi20R0ez/77LOlAjffNyG59NJL5ywQQwRxbjN477jjjqsuuuiisnLpuuuuW1aBDKS9JBlKoizzawDpkUceWXzTd9555+rLX/5yqZDl88zr488tt9xSxqNY8GzPPfesPvrRj1Z///vfR119MhDq9S2B6O9YxblOU+rl/sZjqMMNF+9617uKft16662r+++/v2haWmCwNEaos4wR6gS7BSMsG060J0m3oJK2iubDDz9czTbbbEWoL7nkkll5DxFEehTIpmrkH3zeeedVH/vYx6rtttuumnHGGXsLa+FsSTJYIi3V09Rtt91WHXjggaUS1khU+RpACuEyr48/v//970svhV4Lefq9731v72w6Sd9If9Ko9Kgn4pVXXilThyLLwuFFY4l+JdLf//73V2eeeWbRAoOlMUJdxXv88cdXl19+eUlwMmb6/SXdgjQbWYl1bcEFF6w222yzYg3KynvoiPfsnZqmkWXTHNZf+MIXqpVWWqm4ICg3IkySDJZ6WiN49JJdcMEF1fXXX1998YtfrDbddNPipilMNgyHjkceeaTMpnPttdeWmXXi3eb7HTt6IMyEdeutt5Y0OdNMM1XTTjttmdrW38nwUTcqfe5znytaYI455hhzdOA0QqiLgsRkKWYWyZFAfKRxMdThBku3xbfp8FNn2VB4ehe2ZGiopyuWzTPOOKM69thjq1VWWaX62te+Vk0zzTRveuf57pOBEmnMr0r3gQce6B0TseOOO5aGYczwkulraIh3HlqASB/NdchAkAbNjPXiiy9W2267bbHk7rffftVSSy1VxHv0SAjXhHfa33gMdbjhRpwmn3zyYlWnBSCuA6URQj1aH4N5gCRpMpm2hx5Fli3e6z333FPmVSemZp999jKfNct6hEvLejJQIt8SOCzpZ599dvXkk0+WaRhXXXXVarrppsv0NcTE+8zycvBo3Gy44YbVnXfeWXobF1988TFHkonJ+KbtRpQwCrrMmMlIJNP20ON9hjhS+JkJZptttil+mT/+8Y9Lt/njjz9ejgsbhWSSjIt6hUqsawQauHzyySeXcScbb7xxr0hHivShI/J1lpfjB99oaZclPWkG45u2s5RJkqRrCcHEDcFIewOoWJJOOeWU6qWXXspKPxkQkZ6km2eeeaY66qijqtNPP73MOiJ9Rfd1hEuSJJnQpFBPkqQrCSsFuCh89rOfrVZeeeWygilLKLEe86zbWJlSYCWdkC5sYfUyRaCeGVOBfuYznykDlfXcSENIy2+SJMNFY2Z9SZIkGQwhwA1AM5hK168ZI8xdu+KKK1ZbbrllWT0yiroUWEk79bRhBrJ99tmnuvHGG6s99tijCHQ9NtIQq3qK9KSp8FE3zTVDhcHPBj0n3U9a1JMk6XqIJ4se8SM2DdZyyy1XrbbaamXqxh/96EdlQGCIK6Is7RMJ6mlB+rj55puLSH/hhReqTTbZpFpsscWqOeecs5p55pnLfN4p0JMkGW5SqCdJ0tV0Ek9mfWFZItqvueaa6uqrry4+x3WBnoJ99NL+3blOmb/75z//eXXDDTeU2TK++tWvVlNMMUWvuwtSqCdJMtykUE+SpKshntoFFAu7xT622mqrMlPHueeeW+2///7VY489VhaviUVA6iIshfvIpf3b+u42blI209nttttu1e9+97vqu9/9brXOOusUN5f2tNUprSVJkkxIUqgnSTKiIKSIMr8WP7LM+yKLLFI9/fTT1WmnnVYddthh1VlnnVW99tprb1r9OEX6yKX920obTzzxRBlwLD2cf/75pQHHp1dasUBJkMI8SZKJyaTf6WHM/5MkSboewqouroiuT37yk2VeYXNiX3LJJWWe9XnnnbdYVa1uag72+iqyIexSpHUndWEe39Ov6Ts12EzdaWYX4xcuuuiikjYMOl5jjTWKL3qcl98/6Sb0FF5wwQVltiLjdGadddYxR5JuJmd9SZJkRNIu1gwo/cUvflEGCjrGDeavf/1rGYS67rrrFktqCLM4N4Vad9L+7aFR9rOf/ay4Qfn/+973vtLjghlnnLFaZpllqumnn77juUnSDeSsLyOTFOpJkoxooogjzgwaZD0n0nfZZZfqtttuq6aaaqpq2WWXreabb77i284KNdNMM/UubtNOXC9FXHPo65v87W9/qx588MHi5iLMddddVwYX28/iuOOOO1Yf/OAHS7rgBuX7I79t0o2kUB+ZpFBPkmRE00nE6SL+wx/+ULqIibarrrqqzJtNzLOub7HFFsVlhoCrU59DO8Vcc4hv7Pv5v29DeD/00EPFB/3KK68sDS/CZdFFFy3f8SMf+UiZIz3EOTqllSTpFlKoj0xSqCdJMqog5gixEGP8lQ0mvOyyy4own2666YqIm2yyycpxRaSBhha8MTB1lllmKfuTZuE7cW0yF/o73/nOIsA1wh5++OHq2WefLYsWETF6T97xjnf0nmOri/Uk6VZSqI9MUqgnSTKqaC/yiHOrmtpgLu3DDz+8rHJK3BH2BhsS6Ntvv321/PLLl3Pare3JxMNUilYU/f73v19deOGFxXruu1kAa9ttt60+/elPFzHevrpopIW0oCcjgRTqI5MU6kmSjErqRV9dqFnN9IorrigDTQl14fi1//3vf68effTR6rnnnusVekkz4MrkWxlbMPXUU5ceEJvBogaJ1ntBUpwnI5UU6iOTFOpJkoxa6qItXGL8spY7VhdzBiTydz7jjDOKUCcMk4mP7/SXv/ylDAI++OCDq8985jPlu8X308iC/8f++DtJRhIp1EcmKdSTJEl66EvAxX7uL+ZfNw+3MOnX3BysLjr55JNXc8wxR/Xud7+7V5QHKc6T0UAK9ZFJCvUkSZKxoIiMYjLFefPRG5KuScloJIX6yCRrnSRJkrEQ1vMU6d2BaRlTpCdJMlLImidJkiRJkiRJGkgK9SRJkiRJkiRpICnUkyRJkiRJkqSBpFBPkiRJkiRJkgaSQj1JkiRJkiRJGkgK9SRJkiRJkiRpICnUkyRJkiRJkqSBpFBPkiRJkiRJkgaSQj1JkiRJkiRJGkgK9SRJkiRJkiRpICnUkyRJkiRJkqSBpFBPkiRJkiRJkgaSQj1JkiRJkiRJGkgK9SRJkiRJkiRpICnUkyRJkiRJkqSBpFBPkiRJkiRJkgaSQj1JkiRJkiRJGkgK9SRJkiRJkiRpICnUkyRJkiRJkqSBpFBPkiRJkiRJkgaSQj1JkiRJkiRJGkgK9SRJkiRJkiRpICnUkyRJkiRJkqSBpFBPkiRJkiRJkgaSQj1JkiRJkiRJGkgK9SRJkiRJkiRpICnUkyRJkiRJkqSBpFBPkiRJkiRJkgaSQj1JkiRJkiRJGkgK9SRJkiRJkiRpICnUkyRJkiRJkqSBpFBPkiRJkiRJkgaSQj1JkiRJkiRJGkgK9SRJkiRJkiRpICnUh4BWqzXmf8mEwPuNLRm55HdORiKZpkcHTSm/Jplkkt5tpDFa89IkPQ+dJUgfxKsZV4L/17/+VcL8/e9/r/7v//5vRGaQicVb3/rW6m1ve1v1lre8ZZyFT3+/V9JMfL/4hv/4xz+qf/7zn+X/SdKNKIeUXTYow5LupD91S5Rf//73v0v5NdxaQPp6/fXXq80337y6++67q0MOOaRaZJFF3lSudiviLx+94x3vKO930kknHXOkM/G8I0ULpFAfCxKEDz2uj+0V/vWvf61+9rOfVQ899FBJTFkojx8aP97/XHPNVX3uc5+rppxyyjFH+kZ49OebJc1CHrLJN/LSb3/72+p3v/tdORZCJ0maTlSnft/5zndW888/f7XgggsWg0PSnUTZ1N965amnnqquvfba6uGHH67e/va3D1tdNPnkk1evvPJKdeKJJ1bPPfdctdZaa1XzzTdf9cYbb/TWjd2IuGuAyEvLLrtsv/JSfLORosNGvVCPx++UmUKoP/HEE9Wrr75aWnGdwtn/5JNPVt///ver3//+99W73/3ucbb4krHDmkqsL7XUUtVGG21UzTDDDB0Lm9j3/ve/v5piiilKJvaN2r/T2L5zMvHxfWx/+9vfqgcffLBUNhdccEE5puGbJN1AlC8vvfRSKYs23XTTarfddss03AX0VUdE2aROev7554sWIADbw/nbdtddd1VHH310deutt5bG2nCJRfdWH+rZd0/bZJNN1vtc3Qod8PLLL1crrrhi9c1vfrN617ve1VELeE77GfU+9KEPlb87vXv7279d0xnVQt2jx+P3lZkIh/33379kOpa9Tq05H11rdsYZZ6ze+973li6vZPyIQk+F9/jjj5cWdafM5V37dgT9GmusUTJoJ+I7d1sGHU34lldffXV1ySWXlApmmmmmKftHcRGVdBnqB9v1119fXX755dWaa65ZHX744aV+SJrNuOqIxx57rDr11FNLTx9DXLtmiPNpgOmnn756z3veU0TmcOH+4q5xIH7qTI2Lbq/zxN/zaCT5Bp6pU50QvfCs7htuuGHpzeiEMK7ZTe9lVAv1+GAEAqv5PffcU3zLoqvdsddee60688wzi5VPYmm3lHt9WtgLLbRQ9e1vf7uaddZZyzWS8UMh6P3fdNNN1aGHHlo98MADJeO1v3+ZUzjdYsQ6q7pvYvNdVZDzzDNPNe2005bwwtaTvL+TZqCL9gc/+EF10kknVdtss03ZMJyVXZKMD8otZRQ3yJ133rlaYoklqiOPPDKFeoNpl0BcVu64447y/zDMqSeefvrp0vi6//77y3duF+oEpLp/4YUXrrbddttqzjnnLPuS8cO7V/ffeOON1T777FPEusZIe92tnvAtabEvfvGLJc/Ft1W3sMR//OMfr6aaaqpyrs1xW/u3bBqjXqj7QLpViPETTjih+HiFGPQhP/CBD1Rf+9rXqtlnn73sc04dr0/m/OAHP1jNMccc2cU5xPzlL3+p/vSnP5UGk+/Snjn97Zuwclx44YWl1R1JWsZllf3GN75RrbTSSr3ftZ7k26+XTDwUpnvvvXfJh9/61req7bfffsyRJOkulEW66RdffPEU6g0n6gN1AeOO8ueII44o9bo6w3HHuF+uvvrqZdxUJ9RDNpqBwY6YTIYOBlGDZI1hYkxtr7tpOXW+8U3nnXdeCR/f1nel0TSeudDUtYAthXqDkIl83PjAHv3ZZ5+tfvrTnxbfcm4WdeudBDHLLLMUS7lMGh+1L1zX8aZ/9G4g3nW8076I4zfffHN1/PHHl7EC3CbiG2uJf+QjH6ne9773lcxpFLzBXTF6XLgIm0xcVIzGeRx33HFFqH/9618fcyRJugvjK3bcccdiUSf6Uqg3h6hbUK+rH3nkkeqKK64oWsBgzAijnmAZZyHfZJNNilAfW52EqJeyfhkafINx4T0L94c//KG4m9F2dcMpcc89WUMKGtGf+cxnyv+b/q1GlVCPR5XpCHKCTsvre9/7XvWFL3yhCIN6K9hH93H5nHWy5rYT18+MOf70911GOCKP1d13rZ/zzDPPFIvWOeecU45tsMEG1a677lpNPfXU+b0aRgr1ZKSQQr25RLnvl6XVL8F+9tlnl/FooQXq30wYWsBEEXV3mLGR9cvQ0d93SbP5pqzp7VqA4fXAAw+szjjjjKL91l9//dJr++EPf7jx32pEC3WPFlt8AP//xS9+UR111FHF5WW66aar5p577tIdwn8J7R8rrpGW8ubhu6DTN4PBwLfccktxjZGBjTWwj/8zX7b4ps7PbzxxSaGejBRSqDcPIi7KeRtXu2uuuab0xNIC3CQ/9rGPFS3gty/jXF91TjLx8Y071eHxzUybecMNN5TG1p///OdS5xh4uthii5XjgW/bpO876Xd6GPP/EUV8GB/NxyDQ7rvvvvJxfCyj8g0OWWCBBUqBysUlaP9ATftoyX8Z27eRBlhBZp555jLAh9vLiy++WLo3ZWij8s17LxzXGGklC+GJBwvIr3/969J16VtFt2SSdBsmJmAQmmmmmarll1++lEPJxKGuBZTr9957b5lCkZvklVdeWSYs0PNKC2y99dbVRz/60RK+r7qlr/3JxKev7yINOEYLEOW+Nau7WcYY8ORPE4rQBTwo6mK/Cd96RJkPfYzIlPB/bi6PPvpoaTWvs8461WabbVamLTrssMOqU045pdpqq63KHNz185KRQb1AjbRhUOm+++5bMuUqq6xSur+4Pxm0SihmOkiSJOluoryP/4Mge+GFF0qPnal8zXEPs4qZdnHLLbcsAw6Fb4I4S4aO+vf0ffmu6znhBmuBqvXWW69Y1s8999wyIQXB3p5+JiYjyqIeGSw2GdMoYSPwCTODCAwmWG655cpUfmZpMe+2sM6NFnfS/dTTQR1jEPSesKwT5waaarixrvBbl0YiPSDTw/CRFvVkpJAW9YmHsrtefsd2++23V6effnrpSVfWmyBihRVWqL70pS+V70QLcImo64hkZFD/npE2aAH1vQWiuMOawtk4N70r0gYDLiI9TExGhEW9njGhhWQe1DvvvLOIdN1blqHXcj7ggAOqpZdeuswGUj8nM+XoINLKyiuvXAaZGlwy22yzlXRioZ32BRUifJIkSdJs6mU1Qx0twM2FHjj//POriy++uIwbMEZN2W/mj3oZTwekwW5k49vafHPur3rZDznkkOqggw4q02qaqpsWYLxjPKpTTyvDyYiyqMtg/NHPOuusMoCHdc5L1WI2kpv1lP+Rbo/IiPHR4u9kZNL+jbWmtZhlVNYVx37zm98UoW7OfMcivDSU6WPCkxb1ZKSQFvWJh/KaFjDdMleGY445pvgigyizGA7rqXFJ9en7sowfHdS/s3RCC9CF6nyLITHiXnXVVUULzDvvvEUjtDPcaaWrLertrRvuLVaEM8OH7i0tIjO5rLXWWkWk1/2OvOjMmKOP+nePEeKE+aqrrlp+WV9YXbSqf/7zn5fZAISXboRPkiRJmkeUz8pqdb9VRGkBuoDf8Sc+8Ynim06kpxYY3cQ3j+8e6YE7NF91vezm07fGjqmdeWWYWz8QNtLPcDAiXF+8bC+aBeOHP/xhNf3005dW9LHHHlutttpqvS2izIxJnXpmNU2ngcXGL+iR2WWXXarvfve7RbhnukmSJOkO9KoT6Ra9MR6JFuDmmFog6Yt6ephyyimr7bbbrvS+GNNgquCDDz64jHekMydG2ulK15d6a4ZFlB8aC6hpF02/w4Ju+h0tZwsUQHhhM4MmQaSFSBu6Qs13bNom6Ub64dv4yiuvlJZ2LHSBTEdDT7q+/LdsG0z6CoviUKXN9nhE3JDpf+yk68vwUU/3BgUeffTRZfrl6Cm1EnVoAeV8hM00nASRHiIt0QJmANIT8653vau4xTzwwANl0SQDTblMDWdZ2LUW9XixWs9//OMfq5NOOqkUhlaaItLjeLzE+E2SdiJtyHjm0N1tt93KFF4W37n//vvLeIdoTSfJcGAxFrMSmZ2Ir21sXLHqf8fsRcJPCKR5MyForBqcl+Vo0jQiTUqrN998c7Ge8zPeY489qk9+8pOpAZJ+U08rZgiUhk444YRq8803L2vw0JmPPPLIsJeFXb0yqTlRLQdrECBfdG4Lc845Z++MLtF6TpJxUc8GMmD8zTKjG5VgN+/q6quvXlrYydCj0Z0rk/5nqWvWWF32pgqLwe8GPUl7enxMKUaYmFqUP6WVdi3qpezri0jTA6lgNAIsq67X0mIwVvNNxk2uTDq8aEhyddUjZ0Ebk0fMM888Y47+h+EUVkl3o6ys6wBl8m233VZmg7F4plnjeG4MV09Z1ylZLy5eHkuPjMk9Yf755y+DRSabbLLel5wk/UV6iQ2Rxj772c9Wn/70p6tLL720+tWvftVrVa+nwyQZSqQrFhubxovpQv3eeuutZaCzlRXjWGz+HheRZseVbjuFGUhvUn/vkyTjQz2NcZszkcQ111xTXI3M1gHH6+V6kvSHenqRhhhJTPHNtZrx7re//W1Jc5EGIx1OKLpKqMfL8KvyItQJ806+Z5kxk/Ghnn6IFANMtJ5ZMomiCZ0xk9GJdMWCbn5n8/qeeOKJvRt/W8esqBj7dMXqheDuJ51yhwlrOysji7zZCvju2uf63GT4XsYxm//b51hdlCtbt9hii9IFrLeSBZ+VXfkrHNcb5z777LNl45pTzx+ZT5IJjbQoXeq1sICNv4PUAcn40K4njVMzlaNf5WuUqZiQZV1XDSb1IuKFcew/++yzizXp85//fLF8TjHFFG96qUkyWCIdSXMagVwOiCAuAAYmEe5xPMIn40cOJv0P0hKBPM0005QZrMzzb7Oy4o033lhtsMEGpcyrH2fxue+++6qLLrqoiHmDn/QCnXbaaWUMD5cY4f0a6Gg2A+413jXXweuuu670TFqd0TbppJOWuBDuLPmmu7OfC5iw7qmy0lCwWJhp8Hw7lZc4iX+94hpt+SMHk0442tOVhQ25wIJ7onJD+nMsy+VkfKmnI2WeBiEd8PjjjxcLu4GnqOvToaYrLOpeQLwElTmnfhWSuS3nnnvuar311vufedKTZKjgA7z++uuX0d5cD6644oreFUyDTHfJUNFXYc8ogb4GjhKHVlw8+eSTyxzAhKI5gJWVBHakV/NK87U0DSlfanMF+xWOCH/44YeLVV6a5pt56qmnFn95+wl7g/WEvemmm8p1rPjofL+XXXZZ8eVkaVdWT6iKKxl9hA4I5IM//elPJS1K65/61KeqjTbaqMzWUe8VSpLxRbqTpuaaa65qk002KYYKZavxa4wYjinr2tPoUNEVFnUP7iXYtGT222+/Uimts846ZQApC2ccR/wmyVDAushi+eEPf7j8zQ/SgloaifVVyzLdjR9pUX+z9aYd6Y5v5LLLLltcXdoxMxHRzTJOjBuzw11m0UUXLbNfsKizCEnP1g3QC2mwI9/LZZZZpgzIJ7JtZj/SQ8llhqDn3iIMNxkLgWkIEONLLbVUmZ/aNZZeeulyfd9Qo4C1ifVpNOaLtKhPWKQpveoajQx3FjKiBYj0uhtskgwV0pO0pbdG+annUq+lstHAZb3uda06lHSFRd1DsyYZRMWiKWOqhIy6VRBGC2ZCvKBkdCM9aS0TN+bl1bVqEQ2iiGXdCPAJ0YJOkoFCJBOEfMiN3SGcGTPWXHPNYgmShjWG9AwR8FxovvzlL1drr712KUtXWWWVMu6H2GcQiUrHNZ1ri/9zceFeQyC5vuvY3Id7Dms7a3ySDDUs6Rais8y7qfJMJLHCCisU8RTkjG/JUBLaUploM16HJwdjBJdEWuChhx7q16D+wdA1Ql3FcPzxx1c/+clPqo033rhMR1a3ZibJhCIyqcJfw3CnnXYq1t7DDjusdPnLnI4nycSEgLER3AcccED1sY99rAh2fukhsKVhvyzd9U04Ih4Ef13oRPpXQRm0J+xmm21WfeMb3yhdwK7HuuScCBfnJclQEelQQ5QO0KDUSOSKwJIex5NkQlFPX9KcKVj1/nINlB6VjxMiDTZaqCvww9dMRcOKaWATf3QDm+J4ZtBkQlFPW9KbdMiFwC8/df5p9kda9JskEwNCWxrUmFRGxnoSkTYhLeuR3H333YvAIbZtKpy99tqruuGGG4qbl/TdqUzVKCXkWZS4ggkT1460T7jbOp2fJIOhnob1rhvIp+xlrCOYpLdIf5nukgmFtBVlnl9awGBSg+mlSWUjHI/0OBQ03qLuZciYumJlSL6Z7daeZPBITO0JKvaNK6F1Ctef87odaU5aNDZCWuQukAPnkqbQyarjb5WHtGrAqNlgzj333DJri81Uj/4mfljM62VsO/I3t5YQTpnuk+FAOqMFjJvQCOXqQiRl+hta+qrT6/tGO/U0x2c91vAxhmdC9LA3Wqh7WA999dVXV/vss08RRlbJ4wcp0TiemXT8UeHaFIIGgQ2kNSgckerc8M8aiRm6ntY8n0F0P/zhD4tg2XbbbcsAvEyPycSkPf3F37GZIcN86MrT7373u8WV0CwxRx99dJmu0cqOFvcihCIvt1O/PuLaSTIhkcbUS2Z623PPPYslUxqeb775euubTItDg/dpUwao19XvI7FOHx8inel5tObFt7/97bJi9L777lu0gLQ6lGmxkUI9EorNw5of2Ah6o2pZ1E0436SE09+41J+rCYiH96vbUEtQBW7OZX6u4W86NhwXTpePgT0GVsa+kc5UU01VBuvJnFbEMwsMmvR9k6SONGr6RPk0BoEabGowqTEXyoEJYQ1KkvEhylSbxqaBeyzqZhoyoLlbqT9Xf+hvuPEl6m8zF1177bWll60/emA04p0Yp6PBqCdT2vS+MJBvOy4aq6g8oFZJdLESRjJn0KREI34s0aYr46LTvpkqza/WaXy44cp0YyPesYG6Fj1hITYvsr8HgiV1Weok0tGEd6fbixuM7y+tpvUhmVBIb5FnO+HY2I4rP5WjfNCVRxrnxLvpxUz9qLfS9I+sREQ74nr1e4cvfCfqx4VPkvEl0h23LShvDV7uq9enW/BcNj1Y8mBdM9gIPtrB4NnIT7FNaNzPRAnf+973qptvvnnM3qSd0KF+aQEr4zJ0Eu1D+a0aKdQ9tBacJanPO++86tFHH62+8pWvlDl/VTaON0moi6tKz+polvO2cdX5wQ9+UDZddQceeGBZMCRaq8OR2caFuCj8zjzzzGIVNhcoy5qKfCBooGh9K2xGOvW05xuyRkqbLA+mDmVhj2+cJENJNPT7Eij2q2CF64SpxDbffPPSK3nooYdWltBQTtkIdPtN3ahMiHu4n+u5LgFuP2GhYdqpDHPcYkl1o0SSjA/K0xdeeKHUUyzqBkF/4Qtf6C2Hm6YH+ovnslmT4OCDDy6imHYI3bD33nsX7WDl3wk1m0hfyLsaC+aqtyJ38r/U052xEiuttFJZM4HR0/zqysmh0gKNUxQSSBTwZtXgO2mu1C9+8Ytl0Q6jalUaTYNlypRRVgXUvfzLX/6y+NPZuO1wDbEQiGfR4upPpqu/i7ER4cYVvlM4cbHAjHe64YYbFneOmPayPWxfEPYscPUej3HRn+uiv+GGG+9LJrSYzFe/+tXyzQ3KY/1AU+OddC8Gz80777zFotiJKaecshw340sd6VB6NVPW6quvXi255JLFSsYIIt1awEgeNvsLVxiLHbFYQnk766yzln0sRizyGvSu1V4JKdMskuS4OLDMJ8lgqZehzz//fHXIIYeU+dPVU+ZOr8/00s3okTa9H0Mf3UArhG6wcUk1q0hdMNffTV84Lt+3h6v/3dd15OUYVO63P/R1v5FMPDO37MUWW6y4YzF6nH322cVoF+93fN9Jo01/XgDrDguNxKLSqLdimgQLEpFmoKtWsBayFVRtBmnZJ8OxrOshaMozaAlutdVW1Te/+c0y5Zr3PNC4qZBl6CZ+lwlFPKs0aR5q6VTGHE3vIBleLOrC6rbwwguP2fNmFlxwwWIl53/ejnRpI8AttW4qxh//+MdlvnVlknMI8o022qjabbfdivUdxPnXvva1arvttivHiXznmju4vQJXBpj9YNdddy0NAmVLkgwF0i6hSgtIw+GaNRLQI00/rL/++qWnS36kG/yfgJ9jjjlKPtWgjnw8HMS9hut+3Uq8o9CoXGDrs2INBZP0KP1GNX9ER7fq/fffX/3qV7+qbrnllrJUO0vP9NNPPyZUsxBnrSiW1YUWWqi0/PkqxYdSqHgmo4MVNqZC0/LSNaKlbH54YWy6l4VllVKhhqsP+KxxsXANicL1DWJQOdat2VxshHP9mA9Zb0QsgBIYpKubxj7nE5vOYTVTIXuGwDHPqOsx4qpiljBZ5bh9GPn8rW99q4S3SpdrE69hWVMYGQiskmdx85xWm9UbweWG4LVogMGp5mg2A4U5odHkwkL8FaQKXD0SlmafccYZexuWSf+QPnT9HnfccSUdff3rXx9zZHQT5YhfZU00imOzLzZh7BMG8Yv2cH4jfQpnq9/D/+MX8nyca3+Eq8cBjkfcUP//aIF/r7npuWseccQRpWxLBob0pEygBdQlLM3qsS233HJENQK333770htPF1isLPKgPCN/ObbLLrsUF0vaAo5zM7vzzjuLhvC3/AmNGQ1t9ZDBturgO+64o9TtGvP2RX50nl5175i+YGiMFV532GGHMmWrmUysYixeejT0xrm3+i2+EW3GgEAzuI/VOsXDPnrl8ssvL4bM2WabregaGmMkQsuZ+pbbNgs7rRNGj/EqA3tedON44YUXWj2JpLXAAgu0Tj311NbLL7/c6hF1Y442j54E3LrxxhtbPYmwteaaa7Z6hOaYI/+lR+i2esR5q6fR0brpppvKvp7M0eppRbc+9KEPtaaYYorerScRt3pEfzle56KLLmrNMsssrZ6MVsJNO+20ra222qrVI4rHhPgPJ598crlGhJthhhlaPcLnf+LV02Ivx6eccsrWBz/4wfLrnB6B3OoR362ejDYmZKv15z//uTxbXDPOs/VUQq33vOc9rR//+Mcl7Ouvv16+27zzzvum8P4/55xzts4888wSznfdZ599yv2uvPLK1gMPPNDqaXS0esR8a/755y/P2w30FFqtp556qtVTIbd6Gk6tHtHeeuWVV8YcTfpLT4XR2nPPPUu67qmQxuxNlC+xDebvoK/9fTGusPXjncLGvvb9o4Hzzz+/1VNBtzbaaKNWj3AZszcZKC+++GJr6623LvXmz372s1Jn/Otf/xpzdGTwzW9+s9XT8OitF9s54YQTSv250047jdnzH3qEdWvXXXdt9Yjk3jo2tmWWWaZXZzz44IOt9dZbr9UjHFu33Xbb/7y/5557rvWd73yn9ZnPfKZ1zjnnlPqb3tpuu+1KWXzSSSeVcM8//3zre9/7XknX7fX6oosu2rr++utLODpjk002afU0UouG8d1mnHHG8ozLLrts65ZbbinhRiI9jZZWT8OkaIBZZ521dfDBB485Mn5M2vOBvjNGszcG3QYsq6YR45vOHw098S2/TbTOGJ1t0AdL6oorrtjr4xloferG8mxf/vKXy8BLg2O0glkJ6hsrOSu31qtf19KyZVXgg6pVLNzHP/7xXqs8S7Vrac2Zx1OYCMeSztpr6sWYoaQn85eBIlrdBpF5x36F1zo2OLSnUCwtYKsVuq5ucFbuiKfrs4TrBWBV/vznP19aj6xJBsjwa9XDEOFtrsdP3+BbVnMrzbLIa6Vr0TvH8zvPvaLl3VSLXI8IKVYPvQZ6G/im6arku96eBpKxIx0Zx2HMBEuEtJX81yIdeWCgfwd97e+LcYWtH+8UNva17x8NKD/5F+sRNMAs/fUHh/oy6jQumrPMMkvZTwuMlHRltjT1oOlS1R11PKPykM8619QvfelLxYLtfdAPZmhTX0Zdb1OPG0NCPzi/R0hXPQ3HUj+tttpqvSsKB3rL1cHqeeUujUFLSL963d2TD7b7GWBa1yCxmddemmdpd29uvs4XT/HlFSGeoTdGmluc9Gjz3vSe0WR6EWgvvezjTc/FG0Hd+qLlttlmmxULtRZe0xFnrdcekVlaslqWWrE9CbdsrNE9IrnVk+Bbq6++euvuu+8uLdOPfOQjxfLc3lvAkn366aeXVujuu+9err3wwguXFjHLbcBS01OItZZccsnWKaec0rrqqqtKHFZeeeU3WcNfffXV1pFHHlnCsVJfeumlrZ6M1dpwww3HhHgzd9xxR2ldu1+PAC8tflb5HhE6JsSbiRY/i3qP4G596lOfKtb3noJhTIj/0iPSW6usskrpXfCeehovremmm67VUxC0Vl111fLt60SaaDo9FUrr2GOPLdaNvfbaq7xzdEv8m0Ba1JORQlrUB0+9zGSdZA2eeuqpWz3ir+wbabCUv/vd724ddNBBrUcffbTUmz0CufXwww+Xv/V86512HHrnDz/88FaP4C46Qi9DHRbzHtHdmmuuuUrPPCu6d6i3t0f0/49F/dlnn23tvPPOrZ5GQtEjdYs6DfLTn/60dd5555Xju+yyS7HAt0OjuP5aa63Vuv3220sPvp5xVnT1YV2PxPcdyfUiS7qeBh4DGN9nbtRg0p74lI1ljQVa66TnwcYcbTbiqyWlVcqHjk89n3UbC/sWW2xR/L6tpsZKzFLgOTvhHbT/hm85vy8tVJZ0+/m96xRxbb5m3pn9pnOKcCy+yy23XBkExkotnDDCRji/8X/htbgH8u4jrohrO9+9XFc8XJs13/WFcdx+mOaQX7KZK+rX6iZ8T8/n3cV36NZnSZJk/Mn8Pzii7IxyVN3RLVpgoJhlTR1pHRODummHjTfeuAwu5bOut1ndrY6sE++oHfvUQfXjncL1l7iOLfzS6RB1d2iG0A2OqQfpG3rITFL82+kXx0YLehY8s3fi/xif52+MUJewPBQnfINI/U1ccpXoBuIjSJzEpkEVfm1TTDFF6Q4ipnWFCOtZhZWo2wW74z4u1wnvwbnLLrtsNfvss5eR32eddVbpDuxp/RZ3Ed1J3FXMgWxmCCtlcZURThhTXHJjMYDVMdd0bQM+dGeZps2vjduKc7nymLJN2Ggk9IVMCmENSuUiY5DoRRdd9KZr637jHuSYDG8j5IU3L267ixNc09Z0PIvuvZVXXrl0JV533XW902l1Q/ybQnx7FXSSdCvSr3xfL8uS/hHlJTcL7hOEbJMnkxhfQg9wUeFCwi2EmwqjHyHMBVD9H4M8vR+uVLHeSXsDxvXUyep4GmMo6h/3cj0TSqjDaQR1Oo2hXqdLuPOGOCXk6ZZVV121dzBl5AXxiW2kQstweTP/Py1gIK33MthnbtysL3zTTfTPr8eUYKzPMaNJUz+sV6jVqwXMh07rl1BnXQXRLWOZ6YSvlzlhf/SjH1XnnHNOtfvuu5eWcn3WFplTRjAVm4S+8847l/182bS6zYoSIt+5m222Wbm2eEgQBLLrE4quS0SKm1a6wo7/2DbbbFPGAMhEElBkdu9YS1lG05o3VZQVC2XKgw46qFprrbVKuHqmM/0ka3h8N6PF3cO3E896WO/EKHQFj3P4cfGX9x747kejoKnfuhOeL3oPNEKMRfBuTcnJ58/7TcaNysVCH0cffXTxR7WwCdobsknSVOR1m3JNT6fyMGd9GTjyPBF4+OGHV8sss0ypvxii1KMjrTxVvx911FG99b3xZGa+Mqe6OeOVgwx+USeqnxnqzDTGWr3tttsWkR/QG0Q+a7axXo6rw80QYwYZvuJxLb/0iLqdAFcPs+rTDOpxWsJMM4xpO+20U/FZZ+xzvF6vR0+/72Q6VzpFHNTtDIn1sCOZeE4aTkPT+7QekPfPUDpYGifUJSQJS0Xt4eo09SN7hTE9o6mHJGytyb7QyiKkDTwcm1AnfFloTc3keqzcFkUwcFPGcV9dTFq6LNIypZav1rhwBppoGAhHHBtIan5jVnji3j0Jb4WfTCYcwckaxIqhJW/ghwxq5dK6UBfO97Cx2mtUcesxHZk52c0Vr0UZg1frDQEWAwNhTUFJ1J5yyinlPay77rpveg/dgvdmU4FoRGmomR7zsMMOK4OhU6j3D2nQ+gPyvQavtIcU6km3oOyU3zXYDSjbaKONirEjhfrAIDY12K2au/XWW5epWtVJUc6OJNSXpma0GeypHDSdIsOc+oS7qnpbnY+hEurxLukEwjr0SLtQp1VoDOsjqJ9pDb9hiFS30xAaEzEBxB577FGMl4x4pikcLXindXxPk4DQOIyTg6VxQl0ClLAISda1bugC9wpDqOvykLCjm6oTWrAyGYuBZ2RJltADrVPdSTKGTMPybJYU1maZATKSDOkaBPSmm25a3pmMTQjLuOLl/cn4MoxVU4lIGYl13Swt4hrXgnNkXi5IKhcNBNZ3XZDtFnXnmC+dNUABYL7VKBhY7lmUWEEIrUhmMjXXEL/iqFHDNafbhToUfhoonlt68G694xTq/UPBH0vbS7cjtas7GdnI74wpDDIMGBavIXSS/qPOYI0l1FlozTVOqEM5O5IgiD2repSLDzy/WVsYLvSMq6/1zuqpZ5yzCrb6dvPNNy9prD6LinPVPzSB+ti7sz4Foc4AaK70eIe0hplZ3MfsMoyDxGW7UFfHWSfFMvnu51uEASW0gHhGY0ovgZnfRptQr6M+8z1vuummor3GZ/aXxgl1ok1CkMhkUgmm6XiFWo+EusWHJPqxiQxCXeHNnYS1hVCvN0i4UPAVl9gtcuC6BC0RKyOFWGd5lwB0mXlnEoKWM192YifcSAhjqxDqgvVOp5122pLxWXu14tshNsXLu+e+YQuLuimkAtMsKgAcE2f3MIWU3hCrGGqExHRagQYAS7NKTCFz6aWXljhYDbFbhXqdEOoW6pIOfJMU6v1Dg1K+kI50Aa+33nq9+5OkG2BwsTFssAjrEdX4TIv6wCAC1QvqF70SxKYpiEciFsY6/vjj3yTUQURbvJBOUE+apEK9TajHu2FEi96GgBFM/cNtxjSKrk83EP6EtymQCXXh7HMd1nsGPHW2nvAQ6up2Qp3oJNTV//aHBgn0ILHK0z2MebQCqz4XHlMVj0bUW/SbRpOG1VJLLTXmyMBppEVdwus2oa57Q/eUOUVlOD7jfUE4K8hlPv5e7fOaykAsMgZn8BM3AFWCN++5riXuLe6pMGNBl3FlDtZv99YQ4Bfm3QmntUtU+yV+FHiuJx5cUOqIh5axblvHFJB85YwdYB3XU+CawjlfK90cr/7ve3kHXGHcj1iPAS+Ic8znTsCLi++t1c1tRoGcQn30omCThlRaepM0+NCwIipJ+kQZZzO4jusBkaJMTqE+MOpCneDkHjJShbpyTp3JH58ri/Iu6liwyGrsMeaZQY7g+/Of/1yMmoxxsQp24Fxj1YyTMiscH3/pkUZhTQ8XGtfnD8/yTVRrYDL0qcPdSyPAeXr/ucswCjLIGdcWRkC4jh5/7jpcX7nGcH2xJobnGh+B2s3UhTqPg/GxqPuojaLnw5bVLs3D2dOKG7O32fQI67IyqTnM11hjjdZjjz025sj/IqytJ8G3br311jLvqDnIzSPek4HKr+c3D7njPR+7rHzZI8bLnOk9LdYSxmY1UXOh97SKy7sSrkcIlxUy3//+9/eGM2f6tttuW+ZmjXCu19N67r2n3/i/1UHNmd4j2Hvjam71FVZYofeaNquR9Qj6Ei/36xFZZY5W5x199NFl3tX2a/cI9FZPI6Hc36pzPa30soJXT6H8prlWuxXzxPc0OFrzzDNPq6cxNuJW0ZuQSGc9BXzOo550PTGPuvL5bzmP+oBRRx177LFlHu+99trrf+YKH0nssMMORQOcccYZ5e/QCLGps63L0SPiy9oyF198cdlnvvWvf/3rZY75ej37nve8p9TN5p1Xp6qD/FpnZYEFFuiti81xbu2SHgFf1q+w+iv99frrrxfdsd122xW9YY0W3+PRRx/tXQm1vV5faKGFymrmzlUHrrPOOmUV8uuuu64802hEfUYPWoPGux8fGrcyqSkDjZhnmdYS6xZrpBYmKzo/Ml1LWqfRIm6n572XFmtPAi++ZbqLnMeXa+GFFy6D6KwGptuKhdk7cD0WBX7dVgYT1nHhtHbd3/0inK4p/vKuywovnNZ0PZzuMlZ4fmymjnRv19QqNvDBQFCIq3gIzxJu9LJzfB/X18LWqmfFZ3Hnj9mTgUs8xEGrXjjX9n9+26ahEg9hWO7FUVy63fpsGkwDSQ3Y9Q69r77SQfJmWNFyZdJkJBArkyobc2XSgaOOtFqn8oA7qbql23tb2/GMUK+qJ5V36m31Rb3OUCeqt9Wp6lkTVnBTiTpWven90ATKTfqBW6v63LWdrw4X1qanWx2vPlZHCUeD0Ad0l3pf+IiXut49/O2e4qi+dj9awHVY0fUe0TPu5xrOcz3njMY6UH3GhdkkIDwj2t2ABwS13iS06LrNot5uNY2WcF/UW8tjw3HXHlf4+vGxhWu/Vl/hgnr4/iJs+/vohDDt4fpzXtNJi/rgYYHIlUmTkUCuTDp+jAaLenvdGn/X96FTuE71ZztxXn3rD959/drO6+/9+jp3NDKUFvV0nk2SJEmSJEmSBpJCfQhod9do77pqJ46PqzvIcdceV/j68bGFa79WX+GCevj+Imz7++iEMO3h+nNekiRJknQ77XVr/F3fh07hOtWf7cR59a0/cHupX9t5/b1fX+cm40cj3mCr9Z9RzvBR//nPf/bO650kSZIkycimrgNCVNIB//rXf9fhSJLRSGOEemDQDaFuDtHMnEmSJEkyelDvM9j5JdKJ9dQCyWimEUJd65kwv/vuu8s81EYPmwkkWtVJkiRJkox8LJFvTm7rgZhRZI455uiK9VSSZELRGKH+1FNPlVWxTG1nlUorYPF3SpIkSZJkZEMH2BjrrIZpMT2LH1rdtb5wXpKMNhrj5f/qq69W119/ffXYY4+VeUKnmGKKsv/f//53+U2SJEmSZGRjVU3rqVhx27oc1g5BaoFktNIYoa5rizi3WM4rr7wyZu9/B5UkSZL0h778We2PY/X/B532daK/4dqJ8wZzbif6ut5QXT9JJga0gAV++KYT52FpTy2QjFYaI9Q7ZcbMnEmSDBRCVQWvoq/PGtFJ0EY4v/0VuBGufo/+bJ3iML7ENT1jX8+ZJN1Ep3o/tUAymmmMUE+SJBkqXnjhher3v/99GfNy2223VS+//HKZSSIqe78E7dNPP12WKn/yySd794+LmBeYL63rX3311eX3uuuuq2644YbqxhtvLEuf22e78sorq5tvvrl06dfjML64jutxEfCMnuP1118fsusnSZIkE59GCfWwBGVFk4wEMh0PjvG1Cjv3j3/8Y7XXXntV3/jGN6of/vCH1QMPPDDm6H8xDSwh/Z3vfKeIbVbv/sJ6/ctf/rJcf9ttt6122GGH3m3HHXd80+8WW2xR7b///h3j0M5gnl0j45hjjqmOPPLIMlNGMvEZ3zScJEl3M5T1f2OEehRs/NNyhHfSrZipyFoALJ3Scor1gWGMCsZX5Dz33HPFon7XXXeVqd5efPHFsj/KGRvXFYPXWcBZxwd6z6mmmqqab775qvnnn7/65Cc/Wc0zzzxlfI2BcMowU8vFMVPMvetd7xpzZmfqcRsb7eFc173nnXfe3vc3Lvpzn2TwxLvla50MDGWmclT5Gb1XSdJtSL+0wFCUs5P0XKQRpbU51DfYYIPqH//4R3XcccdVU045ZfXGG2+MOZokzUfGZNE89NBDiyvCLrvsUi2yyCLFcpuiaOzEVKxHHHFEde6555YpWrfbbruyb6Cwdp933nnVN7/5zeqll16qPvvZzxar9hJLLFEGrMe9uIkcffTR1UEHHVTutf3221dvf/vbi4sKKzULe4R1TSJ42mmnrd7znveU78mdRgPA/xXIRPrhhx9eXX755dWuu+5afelLXyrnuY7rure04Dzlm+uZltY1CDrXNsOFBoRrPfvss6U8jDjEdaaffvpe0U/UeA4uPDBLhuu/9tpr1Yc//OFy/yeeeKLXJUZc3du96iIoG5RDywUXXFB6VDTU9Nj4br590jfSoHykoWuq5ve9733VzjvvXM0yyyy9YzySpBtQniu71Sn33Xdf9ZOf/KRaaqmlxhwdOI0R6vfee2+15ZZbVr/73e+qhRZaqHr3u9+dBVvSVRBUGpf33HNPEUtzzTVXNfXUUxexlJXM2AnfbQ0clfLee+9dbbrppmOODgzv+8wzzyximVBaeumlqwcffLCabbbZqrXXXrtYwkG8chk5+OCDq2222abM2UxQ8SnnRsLPnSAmnC3INuOMM1Zbb7119elPf7qc345GGtF/0UUXVfvuu2+10korvUkMuwbfdW42RLz4uM+vfvWrIv632mqravnlly8LvnCrOfXUU6tnnnmmxMm7MYUtge25FlhggTFX/Y+vvIaJymG99darfvGLX5SpbrnluKeGo8rCNbxb8dIwcd1IlynUh5af//znJT1pcOlR0Yj37pO+kQaVoRrXesK8Mz1FtECWoUk3ESvsG5ukvmF8ZrQbLI0R6vfff3+xeqm0ZE5dx1mwJd0EUSZzPvLII0VszTDDDMV6qZJJxk4IWoJy8sknr773ve9VX/va18q+geJ9n3zyyeUaypTPfe5zxaqpwj/wwAOr2WefvYQLoW5xFaJq8803r/70pz8Voc0qbpBmiFkNsA9+8INFYBP+XFnaXfSI6gMOOKC65JJLyr1XXXXVUmAHrkd877PPPmX1ZRZ+gvwPf/hDsbazHq6++uolnPsfddRRxeLuPkSMNCWc67LOEPqeyfl84Qkblpvjjz++9BToofzIRz5S4qOHwDtWpmq8rLHGGsUgMs0005S4pVAfWi677LLSGHr88ceLSxIBmuXAuPGeNEgffvjhkp41jqX/fHdJNyEdK2sN8P/oRz9aHXvssSNDqHN92XDDDUslpYJSwciwSdItcGXgrsCqalW9nXbaqfr85z9fBCGrbNI3rMFE7X777VddfPHFxfXFIM3BUBfqrNRE8be+9a3SlW5gabtQ//GPf1zcFD7zmc8UoU0YEPgaWeEyQrBrgLGMEBB77LFHNeecc5brBP0R6tx69txzz+JDHy45hLNuUqL5Ax/4QCng9chwZ9HwU+iDKLfPOxIfcSACCXVuPu5FqJ9zzjnleYh6gt49CB7vRdx/9rOfVaecckrpsfB+kqHnpz/9aWk8zT333CVNKBt8/6RvNCTlPelZY1Yv07e//e2SXzVSGyJVkmScKKvpV72af/7zn6sTTzxxvFxfJP5G0CNsWvPNN1+rp1Jt9WTKVo+wyS23rtueeOKJVo8wKmn5l7/8ZccwuXXe3njjjdb+++/f6hGsrYMPPnhMyTBweoRuq6dgbPU09lvf+c53yjc59dRTW5tttlmrp/HU6hECrR4B3OoRTuU+s8wyS+voo49uXXnlla0e0dz6yle+0nryySf/J37KqOWXX771iU98onXzzTePudt/6RHRrR7B3ProRz/aOvvss1s94nvMkf/w2muvlXhNP/305Z49Yr71+OOP916/R0iXuDuvvi/+b+sR8K3FFlus1SMAW9ddd125rudZcsklW8suu2y5Xo8wbPWI+/Is7veXv/zlTdc44YQTWj0VSWv77bcv5ydDT0+DrDXTTDO1ttxyy5LO6u8/t7Fvv//971uLL754a5VVVmnde++9HcPkllvTN2X3uuuuW8r7q666akzJMDgaM6Sa1SpcB1iT/J1bbt22sYZyk2C9lJZ78ljHcLn97wZWR/8PV5jxoaewLBZxljm+23zLL7300mLtZNFG/T6s+izOvhna42e/jdWvbikfCNIG1x69h3oMDP4M3IP1XByE0zvD9YUV3cZiz5UirsGqHtTjyZKjN4ArzUYbbVS9973vHRPqP+G8F7/eSzJhkK68Y2ME4rvk1r9N+lR26mVSnnYKM5K2YFx/o9PffW3KKuWfwep+oy6qn+c9G4tjLEWUC7kNzSbtSsP+P740RqgnSZJMSLghGYjJ/5VrCkFLrA5FQdpforIktEPs21f/VbgbdGpwPV/yddddt/rKV75SfM4322yzMke8Qa59NRZch1CsC/m4dpIkzULetBF2tvg7iL/D+ENQ14/3hUaisS7cCK+55prSwEec63oG7ysTuWbEFLZJ80ihniTJiCWsGzDuhfA1/aJBnX5Nh0jUqrzqYScUcS8WLoI89sW9NR7MfGXWFlMsRlibSlpYFv067XGOe0TF7HjcI0m6hcgTIx15U1kg39vke/sC/7eZTczKx2aX6k9+Jvqdc+GFF5ZB+v5G3M9YAEJer92EeM/KIFudTvtGA+P7flOoJ0kyalBZEboGWqqsQgyjP5WI4/21aI2NTue7rtVLDRY1naQBoocddlh1yCGHlJlpzDFv2koNDsI9Kt5O17JvfOOYJBOT0ZSGuZ4Y6G4qVe5tnTjttNNK/reAW3/hSqfnrS78wSBg4PlvfvOb4ha41lprFaPFuN53X99kbPsZDBhFwnAwGun0bgZCCvUkSUYNKi5zqdvMznLGGWcUwWtWDhbrEL+dCCuWCke38YTAHNI33XRTqbg//vGPlykUzUZjE3dzsPOv58feXvkmSdKdMBqwfltPRiO8Ew899FCZX14Z0Yl2AwKBbvYRZZuyo27V5Ra38MILVyuvvHKZFcviaMqUTrima8fWiQhTx/1snksjw2/EQfjxFa+jiSzpkyQZcag0VH6Ed1QI9hkwuswyy1TrrLNOWSTo2muvLcdVZKZvNBWcSoxl2xSb/MH5cfo/33Y+7eYvb3c/geu4n/v2VaER+BGvToiD6Rrdx9oS7qty9qub2tSLBpaiXum5poZGxMHv2OLg2NgaJUmSDB/ysnErRHVfY08c1zhXVnXCNeR7KxErtwhjZZb8Xm/U80VXvpleVllofQgoQ1jzrQzrfG44rqHX0bVj05Cw3sRvf/vbEs717IeBqXoDo6eSW42pYE2Be9ZZZ5XGhvskAyOFepIkIw6iVYVSrxSiojEQk6WJryfruLAqFgLcIjWsSxZIMs+4hZDMzmIQp27pj33sY2VZaPOSt6Nici3X7CSCHRcfc0L79XcdcbM4hrmjXd8y6u4rHn5VwObldczsOPFsKuK4b9zDb19CXFjU302SJBMPeZ+YZiRgTOgEEY/2njR5PcoSZQEDhDLD+gka9vbVr2m1TOWcsoSl2+xSMKuUHkb7HVfmcLVh5Y+y070tnsYNz2B3YfUAOqa8ufHGG0s5ybCgV5DbnvFAxLt7WQVa4yGul/SPxgh1iUllqfLQckQ9ASZJkvQXgpfV3GpwYf2uVw4WFuKXyaL0xS9+sZprrrnKNIaf+tSnqsUWW6yI+XrF6TyWpyWXXLJacMEFO1rUiX/3c10rl7Z3JbsOazm3G93OnQaFsqRbCGm55ZYr1vWIs7hwf3GuynH55ZfvXVV02mmnrVZcccVqhRVWKHFw7dVWW+1/FmQKuNSsueaaJRyinM2yNmkCBJ/GZKR9jPT06TmVD48++mhxyTOFLAu07YILLigLpbF0K1P6clEhtPW6Ecl6zGzeo/fm2soQopolPIS7RdysBs/yrfF/5ZVXloHspsh2H9Zyx/UqOg5xDb93v7///e+L+PfdIv6HH354iXP424uDuAjTV09fMhZ6XmAj6EmEZaGQBRZYoPXSSy/1ThjvN0m6hZ6Cr7XRRhu15plnntYvfvGLkoaT/vHGG2+09txzz1aP8GwdcsghY/YOHO/89ddfb/VUMuW3p3Iom/02/++pNMriQRYpeuGFF1p///vfe8P5/7PPPtvqqbxaPZVfCWMBpOeff77EsdP1YrO4jQWG2sPF/13bcYu61Y+3X0u45557rtw3tjgn7vGPf/yj/B3P8uqrr5b/C+eZxhYHx72buK9yNsvaoeP8889vzTzzzKUs8D2S/tMjJls9DeZWT8OzLDI2GrSAsqancd7qEb9lMbIpp5zyf7Ye4dyaddZZS73SiZNOOqk1xxxztPbee+9Sbj344IOtnXfeuTXbbLO1Tj755LKQlAUlN9xww95yzcJcSy+9dOvAAw8sC6d94QtfKIv1WUxNeXfttde2VlxxxdY666xTNBqUMcpWxx9++OHWJptsUuLuu7keHdfTEGgttdRSrR7R3/r+97/f+uAHP9jabbfdyj2dPxrKG+XvGmus0ZphhhnGe8GjSfwzRrNPVLTcrrjiitIyY2nqSTDFOtWXP1aSNBEWBW4Tt9xyS+nm6ykEi+UhGTd603oK9bJMvyX/uZ0Mhp4KoPhWsuzoZvU3wjrXU+kXSxCLNctSj3gt1iIuKVD+hEU9ikfnRrieArh3H4Sx+dt5rPDC9Qjiss8WYVxbj6Fjcb+4DurhbPXyT4+j81jd7de17J15FvucZzaH8HWN8J3iYDMobeqpp66+/OUvlx6FZOhgBd1xxx2rJZZYorgJRC9xMm5YhnuETXXrrbeWvKTHS0+X/49UWLStlWBGF9rHQmg9grYck7+VWVxa5OOjjjqq9Li1s++++5byc4899ijlp3LK/Oj8w7nT9TQcy5oMyqZtttmm9CCyoPcI/2qrrbYqi7AJp8wwpaNZYIyT6RHipew76KCDSi+ccudnP/tZcYkRLy4tPQ2J4vJioPvuu+9eyk7uM9Z+OPvss8t17XcfZVBQL/tGGspm31QPhhl2aIHB0gihHlHw0U4//fSSiCQOCa+vbp4kaSIp1AfPUAl1lYcVSPlX6nrN998ZDRguOvvss08xiiRDRwr1gVOXItImkWlhMgJyhx12KA3rkQq/b+5q9I70Mt9884058l822mijYsw88sgjq1VWWWXM3v9iClciPYS6hvoxxxxTylMiWWOccDaQlLucctF75tK3+eabl5Wbd9pppyLkzzzzzGqGGWYoQt0x2uzAAw+sZplllmJMFYe77767lNnEubE73F3M177//vtXX/3qV4sPOwOC8sUz7bLLLmV8Twr1gdMIoS6x+GA2gx823njj6mtf+1qZVzSFetJNpFAfPEMl1JUnBDrfSfP3jmRL3PjA4jbVVFNVn/zkJ4tlHSO54hxOUqgPnHYpcvzxx5eylFDfeeedR7xQX3XVVUtZdfTRR1dzzz33mCP/xQBRvYQs6p2EOiFtALqy0/tiGT/22GPL9Vi0Z5111iKgiWfh3EsZ4G/jWcwmxUiq/ORfrkwgxu2TfgluvuoXX3xxadgbb8OX3X0N3GdRN6vLAQccUDSc+Oph9A2V6fKDMr3eS5hCvX80xvUlYFHXZeIjSxgp1JNuIoX64Bkqoa5IS8HZf+pVQL63oSGF+vihV4xFXXnAkswSy1VjpGJGJwPEubkQ1hrP7RhIbjpZlmsrLLfDheWEE06oZppppnI+oc5FxQBSvYsGyXOD8W6518D/CXYNA5Z0PRes6DSYhdWIdwYPx93zl7/8ZXXZZZcV67upbAl0LjHcdMzw8uc//7l8Mw0Cg941rsSB+4vZtAzeNxjfYP6RTl2on3TSSdVSSy015sjAaZyCaFi7IUmSJEmSicRo0AQayBoihG1fxkkzOvEFjxlbAu/HZrYoLi5cXqxqzIpOWBuv4pqEssajGbF23XXX0vhhENlzzz2r6667roRxf9Z9opvQ5gJjpivCm9+8maV4O5hjnahnlDLLDOEd43NcQ8M0Gv0aq6a4NfaAK46pGkcb45uG09SXJMmIIq3CA8P7ii1JkuGH+wkBvP766/dOu9qOVUTNjd7XtKuEPD90g29Zv23G+hnAyeedEGcltxKp6VxXWmmlcs0vfelLxTrO5YWFnM+6feutt145blpYbjCs/R/60IfKwN5ll122hHENPZ+EPJ92U7+KI9cYol2ZQrjzYSfyifbRYE0falKoJ0mSJEmSTAQIZLMw8VHne85qziUlrLCO21i2CXkLnvk7jkcj29/cLIXbbbfditWcBZ3rkEHjfMOdx43FfmH4shPaXGX4qxsYqqHAIu+YxkPczyZeLP/i6nzXYVk3EJbAZ603i9QCCyxQGgZxHms7YR+CXlzH18o8mkihniRJkiRJMhEgsglsAthG4NbHNYUQJ3ZNmcj1xd/tRDiWdYPEbSzgU0wxRXF/cU3HWbrtjzAEtuNEOIs6f3OuK87TaGBJj2u7ho2VnJXddWwR77rri4ZB/Ty9Bq7pesnASKGeJOMJywCrARRKMEe2uWeT4Se+xUBpqpUn4jXQuA32vLHh3davN9TXT5LRRojZIP6OfeP6O+i0r05f5wVEOas315m6mK6fN7bzUS8fIpy/6+f05zrdSpSHNu+QBjCod3y1QOOEev1BO/2dJE1FZozFcHRlsjAkEwffQmPJwCqzGcRmny3+juOsSE0vYzxTPc629ueJ4/aNb+XQCZWryljlw/o22EZRkoyL9nq/m3VAp7jX943r+IQk7sN/3QBUg0tZ2Qdy77iG8sGvelAZxEo/EgX5uPDcykg9CXoXxlcLNG56RlMymRrIZPnm46wzGj940h0QerfffntZ0Y1YMqjm85//fBkpn+m2fwzV9IwKyT/84Q9lqlfTi8WgJr+6eN1HJQLfjSVpzTXXLKvuNblb1vRrnkn8PQtUAuKsUrAfBLR0x5/1E5/4RNk3lDz77LPVqaeeWlaTNlDNvZI3k9Mzjh/ysEV1LHhED9i4TpArxE+3Id7tcdfIVS7ZxnV8QuK+3rd7x/1jX38FZj3+yp+zzjqrLH4U/vGjDVMympaS0YT/Py1g1p3B0rgUz98pJvv/05/+VETPcCTWJBkfWC/NN2thA/56RtxPP/305ZgCLBleDIoyhZg5hG+44Ybq+uuvL4t4mIPYlGOx78YbbyzfzRLe9e8UFU9sg2Eg1+hPGHMt/+Y3vynPJO6/+tWvinD3TIShfb/+9a9LJWEjpMfGQOMW4TQKVMIapirl/tCf+yRJHatnmi1Eo/qRRx4paa0uZLuJEOPPP/98mWvcQmyxv/5reX7TF2oMh1Cf0LgHQc4KTnPZGDAGYgWOeCpzlD2MCowlnmc0on6xMJUxAAwm0vL4lIGTfsdEmA3BQxhsoAVmRayrr766WGt0ySRJkyHUb7311uqaa64p01eZAoulU5pWiA1HgdvtsOAQmgp403uZFmywcD0yA4HvYCERfpe+hUpyueWWK7MamGLMIhQ2sxQYBCUO7ZYs59lfdyUJVxlh7GfNFsZ+54egcFw4OBbhnBNbXAfxWyfOZ1Gcd955S3w9kwVMiBjzE6+zzjplqW/PtPjii5cFTeaZZ57yHtrjHXFwr4ifzbF6vGzCoR4/6XrmmWcu38eS4gaNOTfCuL6/4324tjD15xzp3HPPPUWsWHwmFrJJ+kekE+4XtIAGt6Xzifa+pi7sBl599dXqoosu6jXmmE2lLoblFSLXiuwssZ5dD+BwYVVR92YAkLeVNwNBvqfZCFTW4w022KCUQZ5htOT7IIwm6jF1ECJdD+ZdNEqow8hm82z64LaFFlqofOwkaTJEjcYlC605axV04XIx2gqpwULYDZVQJ7rNDazsMO+wSo8bjIrQ1GJWjHNM5e8YA4HjLCGsQiwhxJVvpwJiQWZ5V+mw7CmI4Txx/vnPf16W1yYqHnvssSIyVMbx/V3jqquuKoLjjjvuKNZoYV1TBc3iUq+0O6UZ5aLexngm05yxNFoNl9XG3MiOEfOenbuFYyzwnkXZagEUS4DfddddRcQTPhoWrHiXX355Sb/i51luvvnm8twx+0PEybPogZDm9Ro5V1gzUrC2X3nllWUFxT/+8Y9lv/dF0Gu8qKzQ6flGEinUxx+zl5hZ5Kc//WlZDdM83NJRt0J8X3LJJUWsc41UT9TThfwkv1gUiGcBgSfP1pF/xtbgHdfxscH6zZDhvVs8Ke4debZOXL9+P7/KhZdeeql8K4YE16r3DEyIeDcRZXs0eLwHzxXbYGhkP5IPptJWsHdrV1cyOpFuFUzScNIs4ruElbede++9tzrssMOKf2W9y5b4JLIPPPDA0oiwxHaEe/jhh6tzzjmn2meffar99tuv+sEPflAsSrfcckuvW4h7Ebwnn3xyCbf//vuX8Tf77rtvCe98bi3iNxCkNZW784jn9vMdE1/xOv/884t4POOMM8p9xcExeB+EO59gYwQifuL6ox/9qDREWAPj+rrv+V0Lowtf48Y9CHQNEMuYey734WPMPUeDQnyTZCBIm9IdQatXptvxDAw4YQRoR2Pd9Itje1bliZ40hgXlRmzyomM25YF8GvnWMe6AygTn+j9Xlwj38ssvl0bRhhtuWG288cbF0OFc4ZR/dXwT5zBoRJngOq4x66yzlrnXGQqUofJ8/TmFc82IM6OGa41EfIf2MnmwNEoFR4vDw0kcRHokWPtsHj5JmkKkSWlV4ctqQqBlOp149GW1iG/Sl2BU0ej+VZHUwzhPpUNsv/DCC+WYSsbAd8KW9d2iH1bks1Q2Sxhhf95555UKkhWbeGcNtGy31QJViAbMb7311qXiJvwJ3igD63TaB/GKiqCvZ1IxsqofffTR1aGHHlq628VVZWoVQyhjVbAWKtl0003LADDxM5jXWAtWf+JbowSuSXizvqn4VfhE/49//ONiLWRFigkBuBh5PwQ/IS++fX2fJEE9vYewlOb0AKGe7rsJz6SekN9Zmtt9wB3jbuK4PNkpn9gnr+ut0giWRy31L7/peYhyQP6UZ5U96iNjWDSulW3yqrJA/lU2KJv0CBLerMDXXXddEePKI+WSHrb4JjZWc9c+7bTTenUan/pjjz22LLKkAa+MMXZG+ed4nEuY2y++ygblnx4E8RauW79txNtvnfZGzmBppLlai1KLTLehilGlKMP60EnSJKRJhZo0qhDUnUn0jM0ikjQTFiXfT5cvwU4gxLclFLjhGS+jgo1Kh5XaiP5tttmmiHQbf3huUCpOFZVue+4mn/vc50oFJUw9PPHMqq6CHErEUaXPXYfI9hyW/I776n5XuaggudIQ7xoSET+blQRZ7ljiDTKL67om15r4v/LZcaKda1Gc73m9U1Z13f7dWAknEw/GD+5pXLq4WBmPQdRJd92IskMeIX6NaeKKx92Me5p9BDhx1y7i68hD3Ev0gmlEc1PTk+U6/g95VpnCH54IJ8D1BDpXGEYGeZoY527Dqq3+OuWUU0peNYmHOBl4ryyrQ5Q71zHlIuOUeOhFjAH8fsP9Qxnomzkv9ouveNicx5UwLPTd+m3F27dVd3gn3BSN5RkKGinUtSpZnXTBsMKw1Dz55JPlRXTrR0xGJtKjAshQDwWOaQVZJnM6tu7DNFrf/e53i7+4XxUYMc4FRCVmjmHWchWPAplAZyk2eJg/uu5iG3HsOJEPlY8KTQNAOL7c/L4jPKGrYB9qEcu6476ua4lvFjji3D3dXzwhDfu//XzRHYv4iS8hr9ES1iLh7QtLGYudcCzxlh1nqXeu54zzs5cpGQwsz6zGGpBcxwx25JLRjTpAnNUL8oIpaNdbb70ytkTvlYGXBoQrTwh1vQd9PaPGi6lkuaqxlOvFIsY1tuU/vXnynWsYd8ItjfFojz32KMYIopmQ18vmfHFYd911e/O5RjfEg2Bvz7caEXoYlSuuRdwT/qa4ZZRwTeMzNPw9J0s7gysrPBc8+8VXOOMQ11577Wrvvfcu4dyzW7+tjfuk+sLvXnvtVd7JUNA4oR6VlQTFeqULR6tL5oTjWeAnExtpMNKhNMlaqCXN+kOgyLSZTrsD38k3JFZVdnr0WH2IdKJcxafCYtVT+alMVGYxGNV5ncql6L5WaSq/WKBUaLqadf/q8lU5mXvfNVXAQ030RJrVhoXHs9Xj6pgKWtoVt4MPPrh0d4vf8ccfXypX1i/PGMK+HQ0SAsSc7dGbVL+HX5X72KyESdKONCRtGpitgcn6LC/aB+mqPc81Hc8kT2rIsrbyGtCjZuMa51mJX+HaiWf1/BrgXFdYu7nkPfDAA2XqVu9IXpbXwg/eDCxmgzILlv2MCJEnlQtEv4Hq7uvajvn/MsssU2aP4h7DWq8MI0BZvw2QJLjlddb0sKKLh00Pnr+FFSeNExZ919GTIIy/hWPgYtn367m6De8rvpeeCe+D8U5dwuhcLwsHS+OEuoRik8BUKtEylLhUZknSFGQ+BZACTKNSYSedhvjxmzSf+veqlz8s3cQp67K/WZugchKmvsZD+/eO/TaWdOmCTye/TH6crPOsXzaVlAKdL/dQE3FgsVcJ+r+4BioR3ei6qIl0ViBxi/gZEMqlxbvoqyHheq4T1jB/9/U+kqS/RBqyyT+majZLkbEkITa7CfFVhihPlAOsy9zjWJbjd7fddiuGnk6WbBDQ8qsGi7DGxbDGs85zr5MPzRgjr6ubvvSlL5V8rdcv3DHt11BQDsnvsShfvG/52PtdcsklSzwNJmfp53rEes7AsPLKK5ceNOcoI/U4stCbTYuFniVZY19jwCxUtJwyjvud+IivngRjYFjd9eTpievWxnxoAY0w5b3361k6lYWDoZGuL4HWJj9HLUGVnMokKpskmZhIgwpFlvRDDjmkFFwG9RBb3VaBJG9GGaNCJEwJVJWWymsw3zUqZ9dZZZVV3iTQd9pppzLoavfddy/ufUsttdSYsyY8UYbqAmc5ZxETP/HiviVuKnGV+WyzzVbeQbjyJMlwIg8Rk9wL9WBxfyEe5dFu0wKehWAO1zNGSO49xJ3yhmAl8PoqawhivVyeX50jv+6yyy5li2kA6wZN13aPOuot4tGxvnB/YQhsjQZlmGtrJHFDds2oAwlUz6P8EA9xIvA1JDT0udW4ngaGRsRaa61VwiljuDQJZ5YoLqPKyW7De+AKZCVSekAvhEH5xPpQ0Uih7qPadAOZG9h8wQZG6NpRicbxJBluIu1F+uMfePbZZ5d5Z2VQVoNMm90NYcpfXYVkgBdxYECkSgvx/cNC1ResK8Jxn1ERsyCpnFRMBDuBzm9Uoc4tZbgrKXHzjFxe/LLMiU/ETbwMoGXhI4pUykky3EinhKBBylxEWHUNvI58GFs3QPzKR3q42hu+8liMVemrAcKlggWaywjLtfyqMa1xTQAT+SGqbWEdryMO3ldd0NeJc6Hc4h5Di3FV8ffSSy9d6jm4DiHPVdnAc/FQvu25557VjjvuWBZfU64pC4lZ348lXjjlDGOAcMpbDQdx6xbq6U6vujUybHovGF00ZoYqXXbFW/HxfOx64h2qF5AkAyXSXnS/KmDqaTNpJr5VbJ2IY3wzVYAMAypFAlaXbrsFSoXKcKDCU1CrZP0/rPHhI6ryJPLtF17FJjxLlPBEh0rLwKqBEPEdl4B2vK9nFj9xE1fxEx/xkrb5lqpITecWYVC/b/y/r+ujP2GSpD/ISwSQtEf8oZvSVX/ywdjCyK/yoffQnl/jfSCu0ek6fR3rtJ8FnHuN8ScnnXRS2WdWKMaLENXio3cg4qOhoJzjKmNgJSOreLMwK0fEM8JprPCxZxhg8PIs3US8K7/eh/fgWW1DSSOFev1BvQDWLL5Mul20WHT/dFPLKxk5SJfSHosGn0LWRpYEloL68aR5qDxUDLZ6ZdSOWV8MsGJlNl0a30kDvcKi7pc1nbuIbmiDQ23mKTYQ00wLVju1IqXKiQXKlI0GVpm/WLgYUGrjbyodqRQHArGiwiP8+3om+6MB0S7opVXPyl+URezcc8/tHUhqu+aaa0qcjBOK9wbXUcm6bwgmv95vJ+JccUiSgaI8jXLVAG5aQFq69NJLy3SNcbzpRH6N8SJ95VeNeMK7Pb+Ca6WeufAykF+VJfzD/S0vhognet2n/TphYPJbJ86JfA0GUr19XHIMDnV95aHyynt3nB+8tRMMFBUf5RtXPrP0uL84s8ArD2k5c7tHGSPcqaeeWgajG/TaTXWnNOc9GryrrNSA5JtPC8S3Hap02ei34mF9OK05UzXypzTFmBcTx+OFJMlwYgAg33QFjEUbjKdQuGV6bC5EsyXvVTLjKkBVSMoegjwEasCC5Jh5jM3aoqJkeTfIykApy+ezyuuqV0GZ0pEVykwHFgMxrZrwRLtBWu7Fr9M86wNJQ+JmALOBzJ16dfxtfwx0rrvqRNmpEtVjoKLlYyk+4mUVVuhZ4HvqfAIAnt+gPu/SvnivBH0nvANx0H2eJIMh8gQ3DOmVvzNx2j7Hd5OR/wheeUFe6VQGcS3plF/hHdjPMMQf3RSH8ithTPTq+SJ25TOWXf+Xv6MnLOBGROi3+1DHOcYDRF6HMokINaOT+IeYFh/nEOD8y60pofwjvmPl46222qqs3aAMYKxYYYUViuAXTrxNHekbcpfh5ux67Q2LJhLlp7Jbz2NoAe5IjDq+baTZoWDS7xih0XBYsDy0JbtNfcPHSWKC/eOqdJNkfImMGemNW4RR9qwLBJkCBo5lehwcLDoGSSngF1lkkSIehxLWH5UNv2uW5HbrTXzb2PjCWoWPlUTFFqhYzBPMcmK9B3ElIFzXRpjbx0rtHipKlaP7839nrf/0pz9dwvplceejqaBHf9OQMCp8aXD++ecvFXT7M7mmimPBBRcsZWZ7pa1CJuZVpOLI4mW8RcTL3ypvPQSsme5HQLhXTPnoXM/leTqJcXlDQ9Zze4/9ebZuh2iRRjw3IdP+3pPBQQuw0hKpXCvMTGKyiXoDt6npS7zklciveqva86sywrSN8qu8Uk83nk/eI+blQwYH01YqJ+VX/uAMBP6WD5U/8qgyL+onKBMsKOmcei+esoCwl4/FMc5xX/9XjrieRnnEyzO5nucSJ9dVfvDTXmKJJcqmQeA5PZtw/nZ98RTONxR3jYH4dk0vI6KuUGeZvtYiUb6F3gXfp16XDAWT9FywsSbAiJqHNWE+SxRrlcU7lltuuf9Z9anpHzfpTupZRHeh6epMrUWsE+nmkw0LRKbBwaMCtiQ/a7PBRhY6GQri+7F+sI77Vrb2gjTCWSGPtVx5o4IxMMqcuIEuZgO4zE3MzhEFc5wflVJcn4jwK+24f+yP8Cq9cKuJY+PCua6rorC5hvPcO64d4sV79bwq+frxIMK2d7eLk02c4x6Bd+k8Fbhjnd6r47b6cdewTzxGMtziDJIjVFgOoxGWDB7pRroyoFJPlnm3LTpGHLFCS18QpmlEPog8K67ywLjyq2ORVxxDhKvn17iGsPKkv13Hb9zL/2F/xCHemXNt8imiPHKe/e7jWJQh9evFua6rXIh9rh1iP65jE2/3R4STP9xDOMS1m4b4Bv5/5513lnUwuEHSpXoWNEYi3FA9R6NLSw9p89Baj6by2XzzzUsm1YUsYdQRrv4ik2R8iTQV6coiE6aSItKlR4MMo7BrauGS/AcikdVGJdTpW0V5YyYfgztZSHQtsxa3lyv+VrGoYAj1sErb/B2VLKJSE5bVSZh6+Lqoj3P6g+t6FteVBqOSC/xtfzxz/Xj9Xn6FE++Iky0q/LhHvZIWZ/v8P95rNBbqxLUjDrEvSQaDfMdazKVCT5dedq5nFpqJ47E1Dfkn8pK8Us+P8Hd7fq3nlfh/hKvn1yhP7HPMvdxHPq2XRXDten61uWacE/naBsdd037ntl/P/+PciI9yzj3aryOc/e3hIJww9Ws3hU7pylgDhhrGY1Mzm4bS+xdmqJ/jzSmloXhwH1Fi1LXDmm6gl0pUF2MTP2wyMoi0x1LA7crAFw1EaVD3pMKmnnmT5tGp0BxbQWpKRu43jAO6j1UuYbmCtOBvA8PG9u3jHmO7V9CfMHU6ha/vG9fxoNO+vhCuXvG2E9eK67X/jfa/k2QgRH7jK82VinuW1ctNMcoVJo43rUzulO7r+8Z1POi0b1zEOfVtbPvR1360H2s/Xmeg4ZpOxFNvDoOdngHz2XPjiQbHhKArhHq0tGQ+lacBpbq7+JCed955pSssumyEiS1JBkukIelO2lIJWHTL6O611167WHRYdiKMLRkZ8MGsD6jybYn1QIHMl5NPd373JBke5LW6FuD6ygXNIOwzzzyzuCOacEIjOsLYkmSwRBqKdMRtx7gls31ZTdYkJ1w0w2AX6XOo6YrBpIEX4SXYDILQNcuR3+Aug3bsixca4ZJkMERa82ueV6O6TZtlajAj7ll06mRaG39YJybkYNL+oufOPMHtg60C5Y4BWgZCGVBaF/FJghxMOjx4r4x3BiiaHpDPsJ5OeRhRjifJYAlNSYSbsYYnh+lpuboYI8HdBRMyrXWFRT2ILlcvQwFomiYV6q233lrmVzf9mW7pCBcvOEn6izRji5bxbbfdViw10hbhKHMajR/hhMmKYGQQ35Rv+jrrrFMGkMa++nFlz+qrr14seazucTxJkglPvcyV9+RTsy+ZmYhLAkunAf/CKMcj3yZJf6mnGWmImyOXSHP333vvvWWWGvqzbhwO3Tkh6CqhHsRL1IomnMy8YZGRn/zkJ8UNpv6Sk2Qg1NONblStZ3Omb7PNNsUXjTU109fIpNM3ze+cJM1GHuWOxg2BYOcSy2fdTHFxPEkGinRj40rF9dViTnpsrJtiPvhwjRyO9NV1Qr3emtbtZW5PE+nrKrcQkmVu77///nIc9UFgSdIXkSEjfd18881l4QZdXMZDGMQcc/cjLO7JyKH9m/p/fZ/f2IL2v5MkGR4i74VQ4o5m0RzWTrNzmR2OC1JYOpXvwyGqku5HOpFujE/TS3PGGWeUWV64utiswxHl/nBoga60qNeR+Qz+0pLmm2YhBCvsxXRNkZEzgyZ9EWlDWuEnbRYBy6nr5lprrbXKSnB8HrPRlyRJ0ixCJCmfDfDecssty/gROkAZrmdUuT6hxVTS/YRWrGsBE5ZYfTRWYDUmIrTAcKWprhTqXk68IL8s66ZRM9DPEq6/+tWvqr333rv6y1/+0hsuhXrSiciYkTn5pJtV6NFHHy3zpJv+y8DRenqL/ydJkiQTl3qZzLppJV2LzxhnYr0Ly9UTXMIo59PgkvRF6ES/xqWZgvHxxx8vixqypH/gAx8okwcMtwboaot6ZNAQWgb5sX4aYGrOa1bRxx57rDdsEOGT0Us9DUgburh0k7LAmOXFMsgrrbRSsdAMd+s5SZIkGRhRPvu1Uqny+6Mf/WiZRcpkE8S6sjzCpQ5I2tNApA0i/eyzzy4uVLTAKqusUgaOSj/CCxdhh4Oud32p48WZKue73/1ucfg3EPDQQw+tXnnllTJqN5bODTKTjj4iY8YmTbz++utlloD99tuvzJO+8847V5tttlnp4qpnyOHMmEmSJEn/qZfTNlOnfutb3yrrXhhceuSRR5bJJpT3yv32uiAZPbR/c7rQHOl04ssvv1ztvvvuxWi32267VVtssUUZrBzpamLQVfOo90W8QC/er9G4ur8MBNRtcdNNN1VXXXVV8VVjdY85VjGxXnwycdFF+uKLL1bHHXdcdc455xSri6k9uboYOMqSHukptmTCorBswjzqSTK+5DzqE4cop0OEWdbeMvV6TJ944onS037ZZZcVwT7XXHOVJfGDLONHJ747V1ezBZmK+brrrivpxcwutvqKoxNLC4woi3qMvpVJ+RLttNNOpbK/8sorixuMwSUyqoGmdT814SNjJyOL+Lbt31ejzViGiy66qLrgggtKulCh8kWbZpppSviJlSmTJEmSwaHMrmuB2WabrYw3MtkEF5gLL7ywaAEze8UUjkFf9UUyMohvG/U64xwtwJhLCzDaXXvttdWaa65ZVh9n1I3wE1MLjAiLejvxYmVWgt1SwwsvvHBxizHfui4OiyTEnNiRoSfmh0gmLL5vfGNdn4cffngpsFnPTe+55JJLlpUopZc6mSaGj7SoJyOFtKg3B2U4y7l1V3wPZQsru9k8GOyMaTNAsF0DZNk/8vCN45c+1LNy8sknF48L03ouu+yyRRMsuuiiw7LiaH+ZpCcSI7LpGI9Vf8Fa0PzUZEqZ1a+5VxdaaKE3dYGh/loyw3YPnb47WE7++Mc/ltYz/8RLLrmkuLfwRVN4B32dn0x4fJfvf//7xR2Jb+nXv/71MUeSpLvQS7fjjjtWSyyxRHXEEUcUF4xk4tBepvv79ttvr/bdd98ixmgB9T+DnlWJ666xyDqh+4hvhvbv9te//rW6/vrri0h/9dVXy8xAtMC2225bBh+jad98RFrU63jR8dJ9DK1nvmrEgO4vfuzzzjtvybAmtGdt1cquT8GTGbS78P1kRhtfM39b/veQQw4pC2L5v1VGLQFswJHv2/6N85sPP2lRT0YKaVFvHlGm0wO0AJeYJ598sjr++OPLwEH1P31AqNMFtICwoQWyTug+1Cl0gO/JEORbWl10//33Lz7pFslkRTdboJmCHK/TlG8+Yi3qdeIR46XzTTZogH+S7g+FqA/kQ/qw3GSWW265kpnruI7NOcnEJb5FpwJUxvzJT35SrCYKXd+LWCfauT2ZzcV8+3PPPXc5N79pM0iLejJSSIt6c1EXKO/N8GEhG77JhBwdYIv6glDnEmm10/bvN7b6Jxl+fK9O34JR1vclzrk6m2iE7qMFaD1rpFh/Z/755y/hfVM07ZuOKqEeGUsGNGUjYoGbu+++u9dnnY/SpptuWlY8lZl9UL7LU0011Zss7cnEI74pcffMM8+UKZV8Gz0jDz74YHXAAQeUASJGbMuUn/vc58qAIl1bCmJiXaEc3zK/6cQnhXoyUkih3lzUHbEx3NAC/k+0qzeso6HeoBOIdFrAkvHEvHDEXWgBZN0x8fFdiHXr5vieXJnU73Qdd2eTRdjn2FJLLVXtueeeZWZAWsB4Bcfq37Fp33RUCPWgvdXl0fku33DDDWUmGJnTh7v33ntLF7yVTf0tg6677rplbnYDUpLm8PDDD5eBobqZZTaNKhnQKmK6shS2BKBpOY36r/eS9NUKTyYOKdSTkUIK9eai3g/Zo34PuMEYx2baXkY79cldd91V9IF9cR4LrLm12yceSCYuXJfM9Hf11Vf3LvM/3XTTVYsttljRAgx2etu5o8XkIkHTtcCoEurxqPExiDoZ1a9jsd9Ag4MOOqgsgqOA1VXyiU98onSDaU1rhY8L1+rPqx3fcPZ5BoWKX3HzPIjn6Q/DFd+hwvW1mA0OlTHvv//+8vxazJ/61KeKD5pMinhH8T78RvxiXzLxSaGejBRSqDebqJuiHoi/CbaoF/yfJVaZpH7xDe03ps16G4x2yqwmEM8xLvobbkIz1PF9xzveUQaHGneoR5028G2Mc9KTzs0VrhVawP+jVyTuYX8TGVVCfVzEq2BB14LWAvMhZVAJwGBEFtzIsE0g4sz3SpyIdAUMmprohgLPyVo+zzzzlFa0VrPvxVXJ99E1Ge8k6Q5SqCcjhRTq3Y161cbwpbdd2RT1/s9//vOyijX/Z2Ogso6ZuPhOLOVzzDFHqT+IcwY7OoiA1/PBkIlu/VYp1GvEq2j/mEThn//85+rMM88smTOWk20CWo4aFZa+Z102glmC7Y/Vv5uRCYly02uuttpq5beObylMtJiT5pNCPRkppFDvbsZWf3CHOeuss4oFt0laYLTiW5lmcZZZZikuSbwe2vEtfacU6iMUryc2QsJvkz42qzEr/x577FEGwbD6GzjJujwa8C00VnRnxd9Jd5JCPRkppFAfeYRUYrgbLfVrtxC6LFyAR5oOSKE+DrweWwjBJvLII4+UhXvM3Xv00UdXCyywQKPjOyHo9hZzkkI9GTmkUB95hFTKOqa5dINeGwyjS80NApmy6R/dYFcbscpvOwqU0cRIbEUnSZIkzSANQc2nG/TaYEihniRJkiRJkiQNJIV6kiRJkiRJkjSQFOpJkiRJkiRJ0kBSqCdJkiRJkiRJA0mhniRJkiRJkiQNJIV6kiRJkiRJkjSQFOpJkiRJkiRJ0kBSqCdJkiRJkiRJA0mhniRJkiRJkiQNJIV6kiRJkiRJkjSQFOpJkiRJkiRJ0kBSqCdJkiRJkiRJA0mhniRJkiRJkiQNJIV6kiRJkiRJkjSQFOpJkiRJkiRJ0kBSqCdJkiRJkiRJA0mhniRJkiRJkiQNJIV6kiRJkiRJkjSQFOpJkiRJkiRJ0kBSqCdJkiRJkiRJA0mhniRJkiRJkiQNJIV6kiRJkiRJkjSQFOpJkiRJkiRJ0kBSqCdJkiRJkiRJA0mhniRJkiRJkiQNJIV6kiRJkiRJkjSQFOpJkiRJkiRJ0kBSqCdJkiRJkiRJA0mhniRJkiRJkiQNJIV6kiRJkiRJkjSQFOpJkiRJkiRJ0kBSqCdJkiRJkiRJA0mhniRJY2i1WuX3LW/JoinpXqTfSSaZpPr3v/89Zk+SJMngmKSnYvxPzZh0LQ8++GC1++67V/fdd1916KGHVgsvvHA16aSTjjmaJN3BP/7xj2qfffapjjnmmOqb3/xmtemmm5b9WUQl3QJxbrvsssuqb3/729Xiiy9eHXXUUdXkk08+JkSSJMnASKE+AkihnowECPUf/OAHZVtggQWqJZdcsuz/5z//WX6TpOkod9/61rdWt956a/WrX/2qWnvttavDDjsshXqSJIMmhfoIIIV6MhIgyE866aTqkEMOqV5//fUieJKk22BRl5Ynm2yy6qtf/Wq1ww47VO94xzvGHE2SJBkYKdRHACnUk5HAv/71r+rhhx+u7rrrruqVV14ZszdJuouoUt/5zndWc845ZzXHHHNkozNJkkGTQn0EkEI96XYUQ1EUZZGUjBTCZz3+nyRJMlBSqI8AUqgn3U4UQylmkpFGpu0kScaHnAMtSZKJTt3ymCQjiUzbSZKMDynUkyRJkiRJkqSBpFBPkiRJkiRJkgaSQj1JkiRJkiRJGkgK9SRJkiRJkiRpICnUkyRJkiRJkqSBpFBPkiRJkiRJkgaSQj1JkiRJkiRJGkgK9SRJkiRJkiRpICnUkyRJkiRJkqSBpFBPkiRJkiRJkgaSQj1JkiRJkiRJGkijhHqr1SpbkowUMk0nSZIkSTJYGiPUU9AMnkknnbR661vfWk0yySTV5JNPXn6TZpBpOkmSJEmSwTJJj5CY6EoiouD3H//4R/Xcc89V//znP4sATcaOd/TEE09U++23X3X//fdXBx54YDXffPNV//d//zcmRDLcaCi94x3vqN73vvdVb3vb28rf2XhKkiRJkmSgNEqoEzP33ntvdcQRR1TPP/989fa3v73sT/qGEHz55Zer3/zmN9Vf/vKXauGFF65mnnnm6o033hgTIhkupGPbW97ylmrOOees1lprrWqmmWYqfydJkiRJkgyUxgj1v//979Vjjz1WXXPNNdWpp55avfjii0WEJmPHu9PA8a5Y1/VI/Otf/0oL7kTAO9dAevzxx6s55pij+tGPflQtssgiKdSTJEmSJBkUjRDqeOSRR6p99923evbZZ6uvfOUr1bvf/e4xR5KxEUJ9sskmK79chlKoTxw0lp566qnqxBNPrJ5++unqkEMOqZZeeukU6kmSJEmSDIrGCPU77rijWn311YtAv/rqq6v3v//9RYQmSbdAkLOmf+973yuuSAcffHAK9SRJkiRJBk1jFAQxYwCe2UtYhVmE7cstt27ZoHGZA3mTJEmSJBkKGiPUCXMinZ/1v//97zF7k6S7INSzJyhJkiRJkqEg++STJEmSJEmSpIGkUE+SJEmSJEmSBpJCPUmSJEmSJEkaSAr1JEmSJEmSJGkgKdSTJEmSJEmSpIGkUE+SJEmSJEmSBpJCPUmSJEmSJEkaSAr1CUDMpV2fTzvn106SJEmSJEkGQgr1CYgVVl9++eXqtddeS5GeJEmSJEmSDIgU6jWIaaui2v71r3/1uTkeYesCvH3fXXfdVe20007VYYcdVv3tb38rq6+OROKd1TfvwBbvK35jS5IkSZIkScZOCvUahPRb3vKW6oUXXqh++9vfVldeeWX1i1/8omz+f8UVV1SXXnppOcZSLixCmMf5LOkPPPBAddVVV1V333139de//rU3zEjEMxPi9957b/W73/2ueumll8q7sE066aTVX/7yl+pXv/pVddtttxWRHu8tSZIkSZIk6ZtUTB34wx/+UH33u9+tNt9882rbbbettttuu7JtvfXW1aabblrtt99+RYC/8cYbvZbj2PD0009XRx55ZBH3wm+55ZbVO9/5zjeFqf+/nf6GCyLMuMK109d5fe1vpx5OY+SUU06p9t1339KTUOfBBx+svvOd71Qnn3xyacT0h/q1bf1hIGGTJEmSJEmaTgr1DjzxxBNFbLL8LrLIImX7zGc+U33uc5+rllpqqeoDH/hAsa6zEv/973//H8s6UT7vvPNWyy+/fPX5z3++mm666YplGSEmxyUq+xMm6G+4duKc9nP7e716OBb1hx9+uLrnnntKb0Od973vfeXdzTPPPAOypvcnDp0Y7HlJkiRJkiRNYpIeUdMIVcNCvd5661Vvf/vbq5/+9KfVNNNMM+bI8HP88ccXC/Caa65ZfMzf+ta3Vv/3f/9XRCbBfdNNN1UHHnhgNeOMMxbrOiHuNXLrMHCURf0f//hHOQ/+/7a3va2En3zyyYtLiPCu+dxzz1Uvvvhi2UfsOj799NNX73jHO94UzjW5kIhD7Ld98IMfLJt48YN//vnnq3e/+93VlFNOWf7/1FNPlXOmmmqq6v3vf39xS2HV9rc4xbWcy+XH/YUTd8/ifD0H0dAQR+dNO+201Xve855yPms6ga4X4r777qu+9a1vFWHunKmnnrp8U9fx6zzxef3116snn3yynBvPFL7rwmgMiZf97ukdOce7jkaBeDkO4b0HcQvi2HDy6KOPlrRzyy23VAcffHC19NJLl+dLkiRJkiQZKCnUO0CoE51f+9rXqp133rlYyOv88pe/rHbYYYfqwx/+cHFx+chHPlL2E46/+c1vqhNPPLF69dVXq8kmm6zsIzDf+973Vrvuumv1yU9+soQF8X3qqadW1157ba8gJ9K33377YpEPHn/88eqEE04oDYS6qCWml1122WrttdcuQvWPf/xjcT/5xCc+URoZ5513Xrn+u971rmqVVVapllxyyeqiiy6qnn322eKSM8MMM5Rrue+tt95anXXWWcXqvfLKKxehf/PNN1dHHHFEr8iOOE4xxRTV+uuvX66nQXH99ddXBx10UHXjjTcW4f2xj32s+tCHPlSusdlmm1Uzzzxz73vacMMNy7X4sx977LGl58JzeC4NCEL7K1/5SnmmQIPh3HPPre68887qm9/8Znmf3//+94vQd55Nz4XzNEAiSadQT5IkSZKkm0kF0YEQev1twwhHmBtISbQS1jai7ZlnninWYL8EOTEd1mRhCVVWddZv4R577LHqsssuq37/+98X0esaXGwIWxZv4SI8wX377bcXgexcG5ccovjCCy8sgzeFFS6miuQ375g41OHuQ9jfcMMNRRhDI8M9NShcx+ZvcdcgEUeuP55ffJzH2u0+xL19cL4GhEG54sEaft111xXf9XieuLZf79Fx/4ceCeMGNCSOO+646pprrinvt/4+7rjjjvI+va+cVSZJkiRJkpFAWtQ7EBb1DTbYoNptt906WtR33HHHYpE29SIrOMG8yy67FMv2xhtvXH7DousVE7T77LNPudbee+9drOPE64orrlh84MNlg6D/4Q9/WNxkWO2JW1bwL3/5y9UCCyzQG841uauIy69//eti/RcPg14J9JlmmqnaYostqiWWWKJYdLmTEOziTUSffvrp1dxzz91ryb744ovL/Vim99xzz/Jsr7zyShHE4h5uPO7Lfcb5jnmWj370o8Xa7f9mu3Edri96FFxH42SttdaqlllmmeqAAw4oVnoW569+9avFgg/vyrU1IDQYNAK+8Y1vFOu+++2///7VUUcdVa7pnTmXxR6EuQbIz3/+83KfjTba6H++2XCRFvUkSZIkSYaKVBAd4M5BXLFsc7HYfffdiwjll+6XqP3sZz9b3EsMlARRS1xyDfnUpz5VzTfffNXHP/7xsvn/ggsuWHzMCXrW9z//+c/l//yqCXBhbK77xS9+sbiPEMcs6SzPhLdw9WtyoyGEhSEQId4aO8Q/kT7//POXsFxCuKOss8461eKLL17EMDFJ7BO5rNirr756tdJKK5VnIpr5oBPz7fddaKGFyn2cQ/xzrZlrrrmKKxCBPPvssxf3G+e6BiHNX128WMeJedZwDYt47rg24a4xwtddgyIQHziH+PV8ca57ifOf/vSn8h5Y9ZMkSZIkSbqdFOodYLUlRAlp1l+bQaMszX5ZrAleQp0QBXFJLHL/YGkm3FnHbazE9nElIWQJcBZu4ptQFjZcSghZ0zmaGjIGnhK5RKtrc/NwTeGdx1VGfIV1rnuxXPMZJ34J3Ng0CsSbgOfzfs4555RrHH300cUqT6hrJMQzuR7XEveOZxGeKwv3Fs9LfAfCE+UaK33hvWoIjY3wv69fmxsQ3/g99tijWmONNcrxEO/h6uIb1M9JkiRJkiTpZlKod4CrB7HJDYS/t8Ghq666ajnGpYNbDAs5gRzuLUQiEc63mlsG9wzC1/alL32puK6wuHMzcY7rGRjJJ9yA0BVWWKFM/UikP/LII72NBQKcOGfJF8Z5runXphHBQk+4hvuIc8XF+XX87ZiwGg2ENfw/BnLa4DpmcjEYlAU7nsVzGbTJF54orr+DvhjX8U44p36e+Pjbc7lnJ+Kc+nlJkiRJkiTdSgr1DhCuWHjhhYsYJpC32WabIra5fRCKnazGIRIJYNeIjRWaO4a52Plcs1ibtpAAnmWWWUrDwMZyzlJu9dOHHnqoXJP1mXhmNXatuDZLvI3ryxe+8IUyS4wwthDgdeEaGxwnfGMKSM/jPGId4sKdxsqq3HWEiWfx3P6uNwyGg7gXy3r8bUuSJEmSJBmppFDvQAjAELREKT9tYp3Lh4GNZhjhihJuF0Suv1naDznkkDI7icGPsXEv8WugqYGywhLmrO/HHHNM2c4888wyhSNrNdcVItn1CXsrpJrOsH7NuC53EG4u4tsf/2z35a8OAzVZxrmx2A+zslhhlFDnny9eehZsXGbEjR9+CHd4T/Eu2mkX832FqyNMf8IlSZIkSZKMVFKodyCEeohefxOzBkxabZTINa83Qc2qDUKdC4pBmwZ5snAT7Tai1r7777+/iF9i/7e//W1xqeFTztIuDLEtHL9z0xG6HjHMZSUGXDrumiz7/i9e3G1cm9Bud3fphLiZEcZzEeGzzTZbaTDEfPDiZ151fvXu475+bRoN5ldn8a/fjxgX13EhXFjuOyFONg2A6BlIkiRJkiQZjaRQ7wCRSKS3W4v5i/NbtxgPS/QFF1xQpllkHTfQkZhmfeeLbkYVgtbmb+HOOOOMMpe68OYtN9uKOcEjrFlUCHTuLMSxRZLMckJAE8b1a/q/zZSE5kVnBSeaxyaE4zksQGQKQ8932mmnlakgDdDUyID7ehb3Fidb3FPj5Pzzzy+z1rheNGo8N8HvHALf8xL7GhsEPdHNpYYbj1lhuP7wxa8/k81UjuJlxhhhEM/k/L56DJwjTHyzJEmSJEmSbmfS75j0uQEYMEn4EnyEsGXwJxbEIys1y7PVN4nLsPSKH1FO3BKaP/vZz8qc6azbhCoBbzaVSy65pAhxG3FLoLOEr7vuutWss85aRLFpDbnQEL7CXH755UWom7XFgE33INLdjyU+wplb3WYOdQKYD73pCs3GIj7Ce4fi2k48B0s8kU8c83Fn1Q/RrUGi9wDmS3dNz3H11VcXMWzWGG45vpl787P3jjQwiHzh9Dh4Fu+ED7wGAZcf85x7Jo0Kz+KbexbP5/m9dwLdHPYs+NKBXgdhLQ5lYK4pHCOuIOQ9h3NN1bjYYov1OeB0QqM3wrc2g49Bwt5NPa5JkiRJkiT9JS3qHSCkCVBWZdbgELdgkSZGzf5iPnKuIAY4Et2f/vSnq0UXXbQM0hSOeLUR0/YRmQaoOsfUjITcnHPOWcK6DxHMV1zjgBh1TeH8TbSzJhPfrhnWc40J15luuunK9Iv+T6h2coGJ54hnMcd6CO1AXNyX4HVfzyperucY4W1aShZ5M8CEFV68iHsi3nzqzhE/ceYqtNpqq5U54sV9jjnmKHG03/F4TxEv93adsKgT3VyDXCPcc9phpTcHvJ6ITg2UJEmSJEmSbiNXJu0A1xQztRCsRHWI3vqrIiq5dVi2n5hlxXaczzpLMxcM5wkXAtsz1ecQF4YF3r0inOPEr/cQCGc2GPerC3D3e//73182Qp/lmaWb6K2vjNoXwmpkON+zIp7RuXzOzZ3u1/Xjfp5VXNzP3xFX52iURFwJbGLcr/nYxctqop7BNe1zjXhPGgIQd9cN7Gep5vqiIRPzywfi5Tnc0/SN9W823OTKpEmSJEmSDBUp1GvURWpAJPp7bPucFyKToO0L4WzOi3t1EnHt4er36oR7CxeCF3GNvq4f1OOC+Ns2rvsG8T76ul8dYYQf23tCPQ6ox8P5cZ8IV79vxKc/cR9qUqgnSZIkSTJUpIIYB53EXqd9xFh/BFmcOy4hWQ83LoTpdO/+nNsXAzl3IHFFf4VrX9dr3z+uv5MkSZIkSbqRFOo1CLxOom9c++Lv9nDt1MONLXx/wwWdwo3tvPbw4/p7XAwk/EDDdQpf/7uv4+37kiRJkiRJuo0U6kmSJEmSJEnSQBol1MMnOX16k24mrflJkiRJkgwFjVHEMSjQIEOzeiRJNyL9Tqw53JMkSZIkGVk0ataXDTfcsEyx96Mf/ahMAZhLyCfdBJFuysljjz22zP4iHZuLPnuIkiRJkiQZDI0R6vfdd1+15ZZblqXnLV5jPmzziidJt0CQmx/eirUWkTI9oxVjU6gnSZIkSTIYGiXUt9hii+qGG24o4sbS8Rb6SZJugSC3gNOdd95ZTT/99EWoW6k2hXqSJEmSJIOhUa4v66+/frGin3LKKb1L0ydJN/HEE09UBxxwQHXXXXflgkdJkiRJkowXjRHqhM1XvvKVshz/pZdeWizqSdJtPPnkk9X3vve96vrrr0+hniRJkiTJeNEYBRHTMv7zn/+sXnvttTF7k6S74K7FTz1JkiRJkmR8SVNfkiRJkiRJkjSQFOpJkiRJkiRJ0kBSqCdJkiRJkiRJA0mhniRJkiRJkiQNJIV6kiRJkiRJkjSQFOpJkiRJkiRJ0kBSqCdJkiRJkiRJA0mhPgS0rxnl74asI5UkSZIkSZJ0KSnUh4B///vfRZj7jf+nUE+SJEmSJEnGhxTqQ4AVVf/6179Wd999d/XQQw+V1Sn7s2x8CPr+ivpsACRJkiRJkoweUqgPEQT67rvvXh1zzDHVSy+9NGZv/yDsX3vtterll1/uuDkmTIr0JEmSJEmS0UMK9SHilVdeqW688cbqzjvvrP7+97+P2Tt2JplkkrI9+eST1YUXXlgdffTR1VFHHVV+CX7/P/TQQ6tzzjmneu6554qVXvgU7EmSJEmSJCOfESnU++Mi0p8wiDDjCj/ZZJNV7373u6u3v/3t/XJ7qXPPPfdUhx12WLXvvvtWxx13XNmOPfbYItaPOOKI6tRTT61uvvnm6sUXX3yTD/zY4hPUww4k/Njo77WSJEmSJEmSwTNihfq4EIboHRchSmPri3e+851FrE866aTF6j0QuLc88cQT1cwzz1zttNNO1c4771xtt9121Te/+c1qjz32qJZZZpnqkksuqU455ZTiCx8NgbHFB+M6HtSfrz/nDCRskiRJkiRJMjgm6RFbjVBbBmKut956xSL905/+tJpmmmnGHOk/9UfhfvK73/2uev7554uAxr/+9a8ipAniWWedtXrb295W/L9vvfXWYq2OcPzBHfv4xz9eTTvttL3C+J///Gf16KOPVvfdd1/vtTD55JNXd9xxR7X//vtXSyyxRHXAAQdU008/fRHgd931/+3debDW4//H8QshkrRZyh4plBaUNcq+VNMwyL7EyL5mGWPJ0oyksgxp8Q8ydgYjpLJLWcOESBE5ZM3S6P6d51vXcTsOdXL6fe9uz8fMZ+7t+lyfz33LzOtznfd1faaluXPnpnr16kWA5+KA/tq0aRPnwfM777wzAnrPnj3T4MGD4z36pz3POT/CO8e7++6747fJQfmrr75Kb775ZnwPjoFff/01zqlDhw5pnXXWiffA+b///vvpww8/jH553bBhw9SxY8fUpEmTRa1S9MV35OIh95lH8jfeeOO0+eabp/r168drzrG2FybljH8fl112WZo8eXIaMmRI6tGjR/zWkiRJtVWWQZ3gSEBmRJqyEoJSDsn0f/TRR6dTTjklrbnmmumll16KUWsCbG5HSGaEnHB8+OGHxz4g9I8cOTJKUQizOYDxyEg326GHHpouv/zy1KJFiwhrAwcOTG+88UZVmOUcOe6xxx6bTjjhhHheHNRvvPHGqguA7OWXX44Rds6DevX823Ax8tRTT8WFwccff/yX87/66qtTnz59oi0I3tS8P/TQQ7Ev50KQHzRoUATKjN/i2muvTU8//XTVBQNtCe37779/Ouecc9KGG24Yvyef5e8mg7okSao7K1WGissWPf+fYrLk/fffH2GQsEu999KYP39+hO/HHnsswmjTpk1jdLtly5apWbNm8bjLLrukLbbYIgLw448/HiPozZs3r2rHKDphmL6++eabtNFGG8XINX2+9957EYJpQ1sCOaPMnDeTQrfZZpvUvXv3aPfEE09EeM/HpS0bx+KY9L/22munOXPmRNutt9467b333n8Jdnz+6KOPRmg+7LDDUoMGDeK8CNIvvPBChGj64RhsnDvH4WLip59+iuMT0vmuBEl+23w+jKTzGf3RB59xXrzH4wYbbFDVln75SwN/fWBEnX2XptSnnPFXlAkTJsS/Bf5bbrrppv4+kiRp6VSGvJIwbdq0QseOHQtdu3YtVAbTRe/W3qxZswqVAalQGZAKr732WqEyEFdtCxYsiMfKwFv46KOPCl26dIljvv32239qx1YZUgvHHHNMoTLoF6ZOnVqovIgotGrVqnDJJZcUKkPtn9rS7yuvvFJo3bp17EN/Rx55ZKFTp06FF198seq4eZs7d27h4osvLlReLBTuvffeQuUFQKEy7Mc+8+bNi62ioiIev/vuu0JlIC/suuuuhV69esW+nP+UKVPi3A844ID47Yr7Z2O/3r17F9q3b1+oDI6FYcOGxfndfPPNhcowWdVu9uzZhf3337/Qo0ePwuTJk+M3XLhwYRyj+nnzm4wePbqwySabxPlzjvqzmTNnFo499thC5UVXYdy4cfE7SpIkLY2y+5s85RiMIlOnTakII755Y9SbR0asacdoN+3yJNDijX1pw6hyZUiN0Wyeo6b2jLLzyOgp+7FPHknN77FV/uaxPyPS+TypJ+fcmDDat2/f2CiNOfHEE6P0hmUa99tvv3TuuedGqQzon/Onb0bYkY8BjsP35Lxpy/KR/FWAY7PRjs/o78wzz0wnnXRSjJyzH3JftMnPGU3nPH/55Zeob89tJUmSVPfKLqgTTinfIDgTKP8OobpRo0YRkgnL1VE2QxuCLAGVjYmXIKRW9/3330eYBWE2l6c8++yzadKkSenJJ59M48aNS+PHj4/XTBAlrLMRtgm97E8JEKUlTIS955570nPPPRfn2KtXr7TTTjtV1csTths3bhwlFrnPfIznn38+ate5CRO/B207d+6c9tlnnzR79uwozeDzRx55JJZ97Nq1azr44IOrat/53ZgcS6kPJTn5vJ955ploz+/Cb1y9REeSJEl1x6RVR3JoJXATZAnUs2bNismbp512WoyGM2H0rLPOikdCL2GeCwouChi5pnZ++PDhsXZ6v379oi6cpRnZZ7PNNqsaoQfHIORzg6UrrrgiJpvmY5x66qnpoosuigm6XFxwbvTNqDm157RlFJ12TFGgVp9wni8YaDN69Og/9cnEXDZWneEvC3w/g7okSdKyY9L6Fwi1ufyD0E1wzSPjBG9G7JlcuvPOO6cddtghti5dusTjIYccko4//vjUtm3bKGGhPZNSt99++1hWkRVwTj755Ji0yug7K84U4ziUtDChk9FyRtvzMTp16pR23HHHWFXmuOOOi0myjICzDCPLR9KGUfS99torJtUyKZVR83nz5kXwZ9UdvgOTYumHtnyHPfbYI7Vr1y5G6Dl2/u6SJEmqe2UX1HOAZfunEV+CKCUvBOSa2jFiTV+0ycE7l7xUb0/ZC8tAMtJM2Qttec6IOGGbUeu8sXQjI+ADBgxIBx54YKy0wrlyjNw/x2aN9SOPPDLC/h133BFB+osvvoi+QVtWdSE4M+J96aWXVh2D/nlkNJxgzso3BH3Wc999993jc5aNZFnG/v37pylTpqTbb789lnhkdRlurMQFw5VXXlnVFxuj8AR3vqM16pIkSctWWQb1PEmTkd+/U9yO+vPqeI/wnMtS2GhPeQhBFTxnu++++yLQUpPOyDUIsgRu1imn9ptlDvPGconcpGjo0KGxxjolLPnCIOMYBH2WqqS2nGPceuutEc6RLwb4jhyDkffcP2uc8x416JTRzJw5M2rdWW99+vTpMWmUNuxDO/okxPNdqY/ngoDafD7L/fF7jB07Ns6DMhlKX4pLcSRJklS3ym4ddYI3fRGyqf9m8iS12qxrTlkHQZVwSxClHQjK1JPndrRhhJwRZoIqNyLivAiztCUg04aNPlm3/fXXX4+VVShloWSENnmEnXXQ6Y++ueMnjxMnToz3GbkmKLPGOYGYSaO5VpyRe0I9665zHPqgPwI258H55IsFwng+xgcffBCTQZlcygUDpSus+MIkU47FXwA4j/w9GW3nLqzUsecLGH4jSmH4nP64oGB/fiO+F+Uz2223XUx01R9cR12SJNWVsrozKRhpJohSd53v2JlDL+Gd/ln2kDuT8v7DDz8co84E9dyOR4IwdzClzptgzL6E2xEjRkR5CGGWdgRV7mzK+VJGsu2228ZIOSUrBOXrr78+gi5tMy5CDjjggKgfp0acCxTKV6gZ586nxaU1hDxKYwjNY8aMiVF1ymkoQ2HS54MPPhhlKwTD3J5j8T2ZDHrUUUfFudDH1KlT0y233BIr0eQVcVg5hjuw9u7dOyaecqHDXTVvuOGGmGSay3Gon6fdjBkzYsIr/TK5lLIa/cE7k0qSpLpSViPqhHSCKiGbkUzCKEGSkV8maLZp0yYmd3br1i21atUqgikBlHBKmQchm3assMLESy4c6IeyFDYmbhJsCV4EbDb2OeaYY1Lr1q2jpITJohyDAM9oON+Hc2DCJ+8z4s4dSAnGnBef05YJn4Q67oJafQSW4/HXAc6Rzzgm58hfBTgGwZyRfyaRcv58N86Du5jSL+dO6QrP6Ydjci70wSTUgw46KGrlOQ7tGNmnDaPq9Ln55ptHrXufPn3i9+A1o++cK/tw/Orn/F/liLokSaorZTeizsgxteKUZxA6axrNpA2hnq9OiCWU1hSmcrtitGWfYnliJcfjMb9ekr5pl/tk1J73/w5t2Ngvt8v7Vj8G/dKGPvNr2lQ//79rV/23y+1AHzynHy5cCPQ1/c7/RY6oS5KkulJ2QZ1a7FGjRkVJCyUf9FeMr8sIei5dIWQyAl8cXsFnTK7MJSIgwNK2uE/acVFA0GW0mhBN37wm0DJazmMx9qFfNtrlc2Bf+kJx8KY9crt8/sjnUz0Msg9taJvRhvb0k3F82uUSF9TULp8bvxMhnnp8RotZ432rrbb6y+/3X2VQlyRJdaUsgzp15NRu89UIlapbeUSfMh6WgKSUx6D+O4O6JEmqK2UV1PkqjAyz0gsrqhCQDEl1j9+ZsM48AtZ759Hf+XcGdUmSVFfKKqhTxkHJSHHZiJY9fnfD6O8M6pIkqa6UVYIwoP9v+LtLkiTVvbIL6obG/3/+5pIkSXXPv8lLkiRJJcigvhiU8Fcv46/pPUmSJKkuGdSXQA7mxZskSZK0LBnUFyPXX3O30xkzZqSKiooI6tZlS5IkaVkyqC8Bbu7z/PPPp4svvjjueJrvCipJkiQtK2UV1GtTlkI71v9enNwf67s3atQorbbaan8aTc/HrKm//L4kSZJUW2UX1Llj5tdff52++uqreM3o96effho3omHjrqXfffddhOr8+dy5c9OPP/5Yte/MmTPTrFmzoh1tuD1+x44d0xlnnJG6d+8eQZ19aMs+GW3p5/PPP0/ff/99vJYkSZKWRlkFde4A+cMPP8SdTe+6664I0e+99166+uqr04UXXpguuuiiuGvkpEmT0q+//hqBm89Hjx6dXn311fTtt9/GvgMGDIh2zz33XPRB4Ca4sx9hn+A/atSo9OCDD0Ywpx822r722mtp+PDh6aWXXoqSmeLRd0mSJGlJlV2NOsH5kUceSUOHDk0PPfRQhO0XXnihaqPWfMKECRHQCdYff/xxGjFiRLrtttvSM888E59PnDgx2n722Wcx8r5gwYI0ZcqU6JOwzjHYf/z48Wnq1KnxmjZMNuW9l19+OX355ZdLVFojSZIk1aQsJ5NST075CqPohGdGx0eOHJluueWWNHjw4Bghv+aaa9I777yTGjduHK8J9TfddFPq0KFDjLATynfbbbcoewGj44zWUw6z/vrrRxnMBhtsEP0R6gnm1113Xfrggw/isz322COtvPLKsa8kSZJUW2UX1Ck1yQG5fv36abvttkv77rtv6tatW9SX77XXXqlevXrpySefjBC/+uqrp1VWWSXKZgjgu+66a9pzzz1Tjx490iabbBJBnT55pB2hnv632Wab1KBBgyhxoSyG0XNKYahP79KlS2revHnsZ526JEmSlkbZBXUCM7XmjHYzQn7ooYdGsCZoE9ApdyFAs3oLI+8///xz7EO7QYMGRQCnbd5yjTmP+Tn4jKBOP4Tx+fPnp/XWWy+ttdZaUQZTvb0kSZJUG2VZ+kIYJ0C3bNkyRsqRR7Z5JEDzPo+5jrxJkyapadOm8d4/jYIXB/A+ffqk66+/PiaQXnXVValfv35RbkM/KG4rSZIk1UZZBnXCMTXl1JPn1zmwFysO0oyIsyGH+MVh9HzLLbeMu5ZOnz49SmdatGhhbbokSZL+tbIM6kuCkfR/Wz/O6jFXXHFFateuXUwgHTt2bBozZkwEd0mSJOnfKMugTgBnVJzyl+oY7Sak//LLL1VrqS8p+s0b3n777TRu3LiYOLrzzjvH0o0s8choPorbSpIkSbVRlkGdiZ5MEmUddO4gylKNbNyVlI0adiZ+NmzYMEI1W65V/zt8zn4g3HNXUt6jH1aO4flGG22U1lhjjbgrKsc3pEuSJGlplV1QZySdAM665gMHDkxnn312Ov/889N5552XTj/99HgkRF9wwQVRsjJv3rxYJeann376x2DN6Dtt6J8lGG+++eZYM71///5pxx13jMmo3NGUGnXWYOdGS1wA1GbEXpIkScrKckSdZRgJ1u+//35644030ltvvRVlKtxdlMdNN9001lYnXDMC3rVr19S6devYryaEbVaQIZBvttlmceOjd999N/bv2bNnTCJlqUbWXmfddkbv58yZs9hRekmSJOnvrFAokfoM7hJ6xBFHxNrmDzzwQFp33XUXfVI7n376aTr11FPjNv6MqHfu3DlWf8mlK5TFbLzxxhG8eU4JyyeffBKhm/dqWrGFfSsqKqJvzovad26WxCOhn3MG/VNqQ3+MrLNxDP138N+eO+FOnjw5DRkyJC7ealpxSJIkaXHKLkFw3cFE0caNG6fdd989tW/fPu20005pl112Sbvttls8brjhhhGgCeCsed6hQ4eq96pft+TXTBjlZkgE9UaNGsU+W2yxRQR72rAx8s7njKozys7r6v1JkiRJS6IsgzoBnLBO7TmjmQTw4o332Ch1IUzn12zVa8rz58WPNe1TU7v8KEmSJNVWWQZ1Jov++OOP1ohLkiRpuVV2Qb1+/fqpU6dOsa45E0UlSZKk5VFZBXVG06kf79evX7rwwgtjcqg14pIkSVoelV1QX2WVVVLbtm1jVJ0lEw3qkiRJWh6VVVCvaeKmkzklSZK0PCq7oF4czKu/liRJkpYXZTeZVJIkSSoHBnVJkiSpBBnUJUmSpBJkUJckSZJKkEFdkiRJKkEGdUmSJKkEGdQlSZKkEmRQlyRJkkqQQV2SJEkqQQZ1SZIkqQQZ1CVJkqQSVDJBvVAoxCZJkiSpxEbUCer16tVLDRo0WPSOtHxZaaWV0qqrrrrolSRJ0tJboTIcl8Qw9rRp01Lfvn3TwoUL04gRI1KzZs3Sb7/9tuhTqfStuOKK6bPPPkvDhg1L06dPT0OHDk09evSI9yVJkmqrZIL6u+++m4477rg0efLktMMOO6SGDRumBQsWLPpUKn2Mps+fPz+98847qWXLlhHUu3XrZlCXJElLpWSCOiORjKRPnDgxRtWxwgorxKO0POB/JTYCe/v27dNJJ52U2rRpY1CXJElLpSSCOsGc0fM5c+akioqKqsBjUNfyJP+vRDBv1KhRatGiRVpttdXi37H/liVJUm2VTFA3zKgc+W9bkiQtrZL4m7whRuXKf9uSJGlplUyNuiRJkqQ/OMtNkiRJKkEGdUmSJKkEGdQlSZKkEmRQlyRJkkqQQV2SJEkqQQZ1SZIkqQQZ1CVJkqQSZFCXJEmSSpBBXZIkSSpBBnVJkiSpBBnUJUmSpBJkUJckSZJKTkr/B2s/vBWObzsXAAAAAElFTkSuQmCC;" parent="1" vertex="1">
          <mxGeometry x="41" y="180" width="460" height="313.86" as="geometry" />
        </mxCell>
        <mxCell id="VTj1KqyeiY5SHbrKJYaJ-43" value="0 - 1" style="text;html=1;align=center;verticalAlign=middle;whiteSpace=wrap;rounded=0;" parent="1" vertex="1">
          <mxGeometry x="170" y="340" width="60" height="30" as="geometry" />
        </mxCell>
        <mxCell id="VTj1KqyeiY5SHbrKJYaJ-44" value="1" style="text;html=1;align=center;verticalAlign=middle;whiteSpace=wrap;rounded=0;" parent="1" vertex="1">
          <mxGeometry x="70" y="380" width="60" height="30" as="geometry" />
        </mxCell>
        <mxCell id="VTj1KqyeiY5SHbrKJYaJ-45" value="1" style="text;html=1;align=center;verticalAlign=middle;whiteSpace=wrap;rounded=0;" parent="1" vertex="1">
          <mxGeometry x="384" y="260" width="60" height="30" as="geometry" />
        </mxCell>
        <mxCell id="VTj1KqyeiY5SHbrKJYaJ-46" value="1 - n" style="text;html=1;align=center;verticalAlign=middle;whiteSpace=wrap;rounded=0;" parent="1" vertex="1">
          <mxGeometry x="320" y="310" width="60" height="30" as="geometry" />
        </mxCell>
        <mxCell id="VTj1KqyeiY5SHbrKJYaJ-47" value="1" style="text;html=1;align=center;verticalAlign=middle;whiteSpace=wrap;rounded=0;" parent="1" vertex="1">
          <mxGeometry x="320" y="210" width="60" height="30" as="geometry" />
        </mxCell>
        <mxCell id="VTj1KqyeiY5SHbrKJYaJ-48" value="n" style="text;html=1;align=center;verticalAlign=middle;whiteSpace=wrap;rounded=0;" parent="1" vertex="1">
          <mxGeometry x="165" y="210" width="60" height="30" as="geometry" />
        </mxCell>
        <mxCell id="VTj1KqyeiY5SHbrKJYaJ-51" value="Paiement" style="text;html=1;align=center;verticalAlign=middle;whiteSpace=wrap;rounded=0;" parent="1" vertex="1">
          <mxGeometry x="240" y="84" width="60" height="30" as="geometry" />
        </mxCell>
        <mxCell id="VTj1KqyeiY5SHbrKJYaJ-52" value="Posséder" style="text;html=1;align=center;verticalAlign=middle;whiteSpace=wrap;rounded=0;" parent="1" vertex="1">
          <mxGeometry x="247" y="240" width="60" height="30" as="geometry" />
        </mxCell>
        <mxCell id="VTj1KqyeiY5SHbrKJYaJ-53" value="Date" style="text;html=1;align=center;verticalAlign=middle;whiteSpace=wrap;rounded=0;" parent="1" vertex="1">
          <mxGeometry x="90" y="340" width="60" height="30" as="geometry" />
        </mxCell>
        <mxCell id="VTj1KqyeiY5SHbrKJYaJ-54" value="Exercice 2" style="text;html=1;align=center;verticalAlign=middle;whiteSpace=wrap;rounded=0;" parent="1" vertex="1">
          <mxGeometry x="10" y="150" width="60" height="30" as="geometry" />
        </mxCell>
        <mxCell id="VTj1KqyeiY5SHbrKJYaJ-55" value="Exercice 3" style="text;html=1;align=center;verticalAlign=middle;whiteSpace=wrap;rounded=0;" parent="1" vertex="1">
          <mxGeometry x="10" y="510" width="60" height="30" as="geometry" />
        </mxCell>
        <mxCell id="VTj1KqyeiY5SHbrKJYaJ-56" value="CLIENT (&lt;u&gt;ID_Clt&lt;/u&gt;, Nom, Prénom, Date_Naiss, Adresse)" style="text;html=1;align=left;verticalAlign=middle;whiteSpace=wrap;rounded=0;" parent="1" vertex="1">
          <mxGeometry x="10" y="552" width="300" height="30" as="geometry" />
        </mxCell>
        <mxCell id="VTj1KqyeiY5SHbrKJYaJ-57" value="DISQUE (&lt;u&gt;Num_ref_Dsq,&lt;/u&gt;&amp;nbsp;Titre, Date_Gravure, #ID_Clt, #ID_Artiste)" style="text;html=1;align=left;verticalAlign=middle;whiteSpace=wrap;rounded=0;" parent="1" vertex="1">
          <mxGeometry x="10" y="579" width="530" height="30" as="geometry" />
        </mxCell>
        <mxCell id="VTj1KqyeiY5SHbrKJYaJ-58" value="RAYON (&lt;u&gt;ID_Rayon&lt;/u&gt;, Libellé, Num_Rayon)" style="text;html=1;align=left;verticalAlign=middle;whiteSpace=wrap;rounded=0;" parent="1" vertex="1">
          <mxGeometry x="10" y="638" width="330" height="30" as="geometry" />
        </mxCell>
        <mxCell id="VTj1KqyeiY5SHbrKJYaJ-59" value="ARTISTE (&lt;u&gt;ID_Artiste&lt;/u&gt;, Nom, Prénom, Pays, Domaine)" style="text;html=1;align=left;verticalAlign=middle;whiteSpace=wrap;rounded=0;" parent="1" vertex="1">
          <mxGeometry x="10" y="668" width="430" height="30" as="geometry" />
        </mxCell>
        <mxCell id="VTj1KqyeiY5SHbrKJYaJ-60" value="Produits" style="swimlane;fontStyle=0;childLayout=stackLayout;horizontal=1;startSize=26;fillColor=none;horizontalStack=0;resizeParent=1;resizeParentMax=0;resizeLast=0;collapsible=1;marginBottom=0;whiteSpace=wrap;html=1;" parent="1" vertex="1">
          <mxGeometry x="41" y="760" width="140" height="104" as="geometry" />
        </mxCell>
        <mxCell id="VTj1KqyeiY5SHbrKJYaJ-61" value="Num [PK]" style="text;strokeColor=none;fillColor=none;align=left;verticalAlign=top;spacingLeft=4;spacingRight=4;overflow=hidden;rotatable=0;points=[[0,0.5],[1,0.5]];portConstraint=eastwest;whiteSpace=wrap;html=1;" parent="VTj1KqyeiY5SHbrKJYaJ-60" vertex="1">
          <mxGeometry y="26" width="140" height="26" as="geometry" />
        </mxCell>
        <mxCell id="VTj1KqyeiY5SHbrKJYaJ-62" value="Nom" style="text;strokeColor=none;fillColor=none;align=left;verticalAlign=top;spacingLeft=4;spacingRight=4;overflow=hidden;rotatable=0;points=[[0,0.5],[1,0.5]];portConstraint=eastwest;whiteSpace=wrap;html=1;" parent="VTj1KqyeiY5SHbrKJYaJ-60" vertex="1">
          <mxGeometry y="52" width="140" height="26" as="geometry" />
        </mxCell>
        <mxCell id="VTj1KqyeiY5SHbrKJYaJ-63" value="Catégorie" style="text;strokeColor=none;fillColor=none;align=left;verticalAlign=top;spacingLeft=4;spacingRight=4;overflow=hidden;rotatable=0;points=[[0,0.5],[1,0.5]];portConstraint=eastwest;whiteSpace=wrap;html=1;" parent="VTj1KqyeiY5SHbrKJYaJ-60" vertex="1">
          <mxGeometry y="78" width="140" height="26" as="geometry" />
        </mxCell>
        <mxCell id="VTj1KqyeiY5SHbrKJYaJ-64" value="Exercice 4" style="text;html=1;align=center;verticalAlign=middle;whiteSpace=wrap;rounded=0;" parent="1" vertex="1">
          <mxGeometry x="10" y="723" width="60" height="30" as="geometry" />
        </mxCell>
        <mxCell id="VTj1KqyeiY5SHbrKJYaJ-67" value="Récolte" style="swimlane;fontStyle=0;childLayout=stackLayout;horizontal=1;startSize=26;fillColor=none;horizontalStack=0;resizeParent=1;resizeParentMax=0;resizeLast=0;collapsible=1;marginBottom=0;whiteSpace=wrap;html=1;" parent="1" vertex="1">
          <mxGeometry x="381" y="770" width="140" height="52" as="geometry" />
        </mxCell>
        <mxCell id="VTj1KqyeiY5SHbrKJYaJ-70" value="Quantité" style="text;strokeColor=none;fillColor=none;align=left;verticalAlign=top;spacingLeft=4;spacingRight=4;overflow=hidden;rotatable=0;points=[[0,0.5],[1,0.5]];portConstraint=eastwest;whiteSpace=wrap;html=1;" parent="VTj1KqyeiY5SHbrKJYaJ-67" vertex="1">
          <mxGeometry y="26" width="140" height="26" as="geometry" />
        </mxCell>
        <mxCell id="VTj1KqyeiY5SHbrKJYaJ-72" value="Producteur" style="swimlane;fontStyle=0;childLayout=stackLayout;horizontal=1;startSize=30;fillColor=none;horizontalStack=0;resizeParent=1;resizeParentMax=0;resizeLast=0;collapsible=1;marginBottom=0;whiteSpace=wrap;html=1;" parent="1" vertex="1">
          <mxGeometry x="684" y="768" width="140" height="134" as="geometry" />
        </mxCell>
        <mxCell id="VTj1KqyeiY5SHbrKJYaJ-73" value="Num [PK]" style="text;strokeColor=none;fillColor=none;align=left;verticalAlign=top;spacingLeft=4;spacingRight=4;overflow=hidden;rotatable=0;points=[[0,0.5],[1,0.5]];portConstraint=eastwest;whiteSpace=wrap;html=1;" parent="VTj1KqyeiY5SHbrKJYaJ-72" vertex="1">
          <mxGeometry y="30" width="140" height="26" as="geometry" />
        </mxCell>
        <mxCell id="VTj1KqyeiY5SHbrKJYaJ-74" value="Nom" style="text;strokeColor=none;fillColor=none;align=left;verticalAlign=top;spacingLeft=4;spacingRight=4;overflow=hidden;rotatable=0;points=[[0,0.5],[1,0.5]];portConstraint=eastwest;whiteSpace=wrap;html=1;" parent="VTj1KqyeiY5SHbrKJYaJ-72" vertex="1">
          <mxGeometry y="56" width="140" height="26" as="geometry" />
        </mxCell>
        <mxCell id="VTj1KqyeiY5SHbrKJYaJ-75" value="Prénom" style="text;strokeColor=none;fillColor=none;align=left;verticalAlign=top;spacingLeft=4;spacingRight=4;overflow=hidden;rotatable=0;points=[[0,0.5],[1,0.5]];portConstraint=eastwest;whiteSpace=wrap;html=1;" parent="VTj1KqyeiY5SHbrKJYaJ-72" vertex="1">
          <mxGeometry y="82" width="140" height="26" as="geometry" />
        </mxCell>
        <mxCell id="VTj1KqyeiY5SHbrKJYaJ-76" value="Région" style="text;strokeColor=none;fillColor=none;align=left;verticalAlign=top;spacingLeft=4;spacingRight=4;overflow=hidden;rotatable=0;points=[[0,0.5],[1,0.5]];portConstraint=eastwest;whiteSpace=wrap;html=1;" parent="VTj1KqyeiY5SHbrKJYaJ-72" vertex="1">
          <mxGeometry y="108" width="140" height="26" as="geometry" />
        </mxCell>
        <mxCell id="VTj1KqyeiY5SHbrKJYaJ-78" value="Clients" style="swimlane;fontStyle=0;childLayout=stackLayout;horizontal=1;startSize=26;fillColor=none;horizontalStack=0;resizeParent=1;resizeParentMax=0;resizeLast=0;collapsible=1;marginBottom=0;whiteSpace=wrap;html=1;" parent="1" vertex="1">
          <mxGeometry x="37" y="1290" width="140" height="156" as="geometry" />
        </mxCell>
        <mxCell id="VTj1KqyeiY5SHbrKJYaJ-79" value="Num [PK]" style="text;strokeColor=none;fillColor=none;align=left;verticalAlign=top;spacingLeft=4;spacingRight=4;overflow=hidden;rotatable=0;points=[[0,0.5],[1,0.5]];portConstraint=eastwest;whiteSpace=wrap;html=1;" parent="VTj1KqyeiY5SHbrKJYaJ-78" vertex="1">
          <mxGeometry y="26" width="140" height="26" as="geometry" />
        </mxCell>
        <mxCell id="VTj1KqyeiY5SHbrKJYaJ-80" value="Nom" style="text;strokeColor=none;fillColor=none;align=left;verticalAlign=top;spacingLeft=4;spacingRight=4;overflow=hidden;rotatable=0;points=[[0,0.5],[1,0.5]];portConstraint=eastwest;whiteSpace=wrap;html=1;" parent="VTj1KqyeiY5SHbrKJYaJ-78" vertex="1">
          <mxGeometry y="52" width="140" height="26" as="geometry" />
        </mxCell>
        <mxCell id="VTj1KqyeiY5SHbrKJYaJ-81" value="Prénom" style="text;strokeColor=none;fillColor=none;align=left;verticalAlign=top;spacingLeft=4;spacingRight=4;overflow=hidden;rotatable=0;points=[[0,0.5],[1,0.5]];portConstraint=eastwest;whiteSpace=wrap;html=1;" parent="VTj1KqyeiY5SHbrKJYaJ-78" vertex="1">
          <mxGeometry y="78" width="140" height="26" as="geometry" />
        </mxCell>
        <mxCell id="VTj1KqyeiY5SHbrKJYaJ-82" value="Téléphone" style="text;strokeColor=none;fillColor=none;align=left;verticalAlign=top;spacingLeft=4;spacingRight=4;overflow=hidden;rotatable=0;points=[[0,0.5],[1,0.5]];portConstraint=eastwest;whiteSpace=wrap;html=1;" parent="VTj1KqyeiY5SHbrKJYaJ-78" vertex="1">
          <mxGeometry y="104" width="140" height="26" as="geometry" />
        </mxCell>
        <mxCell id="VTj1KqyeiY5SHbrKJYaJ-83" value="Ville" style="text;strokeColor=none;fillColor=none;align=left;verticalAlign=top;spacingLeft=4;spacingRight=4;overflow=hidden;rotatable=0;points=[[0,0.5],[1,0.5]];portConstraint=eastwest;whiteSpace=wrap;html=1;" parent="VTj1KqyeiY5SHbrKJYaJ-78" vertex="1">
          <mxGeometry y="130" width="140" height="26" as="geometry" />
        </mxCell>
        <mxCell id="VTj1KqyeiY5SHbrKJYaJ-85" value="Commandes" style="swimlane;fontStyle=0;childLayout=stackLayout;horizontal=1;startSize=26;fillColor=none;horizontalStack=0;resizeParent=1;resizeParentMax=0;resizeLast=0;collapsible=1;marginBottom=0;whiteSpace=wrap;html=1;" parent="1" vertex="1">
          <mxGeometry x="41" y="1040" width="140" height="104" as="geometry" />
        </mxCell>
        <mxCell id="VTj1KqyeiY5SHbrKJYaJ-93" value="N°Cmd [PK]" style="text;strokeColor=none;fillColor=none;align=left;verticalAlign=top;spacingLeft=4;spacingRight=4;overflow=hidden;rotatable=0;points=[[0,0.5],[1,0.5]];portConstraint=eastwest;whiteSpace=wrap;html=1;" parent="VTj1KqyeiY5SHbrKJYaJ-85" vertex="1">
          <mxGeometry y="26" width="140" height="26" as="geometry" />
        </mxCell>
        <mxCell id="VTj1KqyeiY5SHbrKJYaJ-86" value="Date" style="text;strokeColor=none;fillColor=none;align=left;verticalAlign=top;spacingLeft=4;spacingRight=4;overflow=hidden;rotatable=0;points=[[0,0.5],[1,0.5]];portConstraint=eastwest;whiteSpace=wrap;html=1;" parent="VTj1KqyeiY5SHbrKJYaJ-85" vertex="1">
          <mxGeometry y="52" width="140" height="26" as="geometry" />
        </mxCell>
        <mxCell id="VTj1KqyeiY5SHbrKJYaJ-87" value="Quantité" style="text;strokeColor=none;fillColor=none;align=left;verticalAlign=top;spacingLeft=4;spacingRight=4;overflow=hidden;rotatable=0;points=[[0,0.5],[1,0.5]];portConstraint=eastwest;whiteSpace=wrap;html=1;" parent="VTj1KqyeiY5SHbrKJYaJ-85" vertex="1">
          <mxGeometry y="78" width="140" height="26" as="geometry" />
        </mxCell>
        <mxCell id="VTj1KqyeiY5SHbrKJYaJ-89" value="Livraison" style="swimlane;fontStyle=0;childLayout=stackLayout;horizontal=1;startSize=26;fillColor=none;horizontalStack=0;resizeParent=1;resizeParentMax=0;resizeLast=0;collapsible=1;marginBottom=0;whiteSpace=wrap;html=1;" parent="1" vertex="1">
          <mxGeometry x="400" y="1066" width="140" height="78" as="geometry" />
        </mxCell>
        <mxCell id="VTj1KqyeiY5SHbrKJYaJ-90" value="Date" style="text;strokeColor=none;fillColor=none;align=left;verticalAlign=top;spacingLeft=4;spacingRight=4;overflow=hidden;rotatable=0;points=[[0,0.5],[1,0.5]];portConstraint=eastwest;whiteSpace=wrap;html=1;" parent="VTj1KqyeiY5SHbrKJYaJ-89" vertex="1">
          <mxGeometry y="26" width="140" height="26" as="geometry" />
        </mxCell>
        <mxCell id="VTj1KqyeiY5SHbrKJYaJ-91" value="QteLivrée" style="text;strokeColor=none;fillColor=none;align=left;verticalAlign=top;spacingLeft=4;spacingRight=4;overflow=hidden;rotatable=0;points=[[0,0.5],[1,0.5]];portConstraint=eastwest;whiteSpace=wrap;html=1;" parent="VTj1KqyeiY5SHbrKJYaJ-89" vertex="1">
          <mxGeometry y="52" width="140" height="26" as="geometry" />
        </mxCell>
        <mxCell id="VTj1KqyeiY5SHbrKJYaJ-95" value="" style="ellipse;whiteSpace=wrap;html=1;" parent="1" vertex="1">
          <mxGeometry x="48" y="1180" width="120" height="80" as="geometry" />
        </mxCell>
        <mxCell id="VTj1KqyeiY5SHbrKJYaJ-96" value="" style="ellipse;whiteSpace=wrap;html=1;" parent="1" vertex="1">
          <mxGeometry x="230" y="1065" width="120" height="80" as="geometry" />
        </mxCell>
        <mxCell id="VTj1KqyeiY5SHbrKJYaJ-97" value="" style="ellipse;whiteSpace=wrap;html=1;" parent="1" vertex="1">
          <mxGeometry x="230" y="758" width="120" height="80" as="geometry" />
        </mxCell>
        <mxCell id="VTj1KqyeiY5SHbrKJYaJ-101" value="" style="ellipse;whiteSpace=wrap;html=1;" parent="1" vertex="1">
          <mxGeometry x="51" y="920" width="120" height="80" as="geometry" />
        </mxCell>
        <mxCell id="VTj1KqyeiY5SHbrKJYaJ-102" value="" style="ellipse;whiteSpace=wrap;html=1;" parent="1" vertex="1">
          <mxGeometry x="546" y="757" width="120" height="80" as="geometry" />
        </mxCell>
        <mxCell id="VTj1KqyeiY5SHbrKJYaJ-115" value="Production" style="text;html=1;align=center;verticalAlign=middle;whiteSpace=wrap;rounded=0;" parent="1" vertex="1">
          <mxGeometry x="259" y="782" width="60" height="30" as="geometry" />
        </mxCell>
        <mxCell id="VTj1KqyeiY5SHbrKJYaJ-116" value="Récolte" style="text;html=1;align=center;verticalAlign=middle;whiteSpace=wrap;rounded=0;" parent="1" vertex="1">
          <mxGeometry x="576" y="781" width="60" height="30" as="geometry" />
        </mxCell>
        <mxCell id="VTj1KqyeiY5SHbrKJYaJ-117" value="Vente" style="text;html=1;align=center;verticalAlign=middle;whiteSpace=wrap;rounded=0;" parent="1" vertex="1">
          <mxGeometry x="79" y="945" width="60" height="30" as="geometry" />
        </mxCell>
        <mxCell id="VTj1KqyeiY5SHbrKJYaJ-118" value="Livraison" style="text;html=1;align=center;verticalAlign=middle;whiteSpace=wrap;rounded=0;" parent="1" vertex="1">
          <mxGeometry x="261" y="1090" width="60" height="30" as="geometry" />
        </mxCell>
        <mxCell id="VTj1KqyeiY5SHbrKJYaJ-119" value="Paiement" style="text;html=1;align=center;verticalAlign=middle;whiteSpace=wrap;rounded=0;" parent="1" vertex="1">
          <mxGeometry x="72" y="1205" width="60" height="30" as="geometry" />
        </mxCell>
        <mxCell id="VTj1KqyeiY5SHbrKJYaJ-131" value="" style="endArrow=none;html=1;rounded=0;" parent="1" edge="1">
          <mxGeometry relative="1" as="geometry">
            <mxPoint x="668" y="800" as="sourcePoint" />
            <mxPoint x="680" y="800" as="targetPoint" />
          </mxGeometry>
        </mxCell>
        <mxCell id="VTj1KqyeiY5SHbrKJYaJ-132" value="N" style="resizable=0;html=1;whiteSpace=wrap;align=right;verticalAlign=bottom;" parent="VTj1KqyeiY5SHbrKJYaJ-131" connectable="0" vertex="1">
          <mxGeometry x="1" relative="1" as="geometry" />
        </mxCell>
        <mxCell id="VTj1KqyeiY5SHbrKJYaJ-135" value="" style="endArrow=none;html=1;rounded=0;exitX=1.023;exitY=0.069;exitDx=0;exitDy=0;exitPerimeter=0;entryX=0;entryY=0.5;entryDx=0;entryDy=0;" parent="1" source="VTj1KqyeiY5SHbrKJYaJ-70" target="VTj1KqyeiY5SHbrKJYaJ-102" edge="1">
          <mxGeometry relative="1" as="geometry">
            <mxPoint x="500" y="880" as="sourcePoint" />
            <mxPoint x="660" y="880" as="targetPoint" />
          </mxGeometry>
        </mxCell>
        <mxCell id="VTj1KqyeiY5SHbrKJYaJ-136" value="1" style="resizable=0;html=1;whiteSpace=wrap;align=right;verticalAlign=bottom;" parent="VTj1KqyeiY5SHbrKJYaJ-135" connectable="0" vertex="1">
          <mxGeometry x="1" relative="1" as="geometry" />
        </mxCell>
        <mxCell id="VTj1KqyeiY5SHbrKJYaJ-137" value="" style="endArrow=none;html=1;rounded=0;entryX=-0.013;entryY=0.11;entryDx=0;entryDy=0;entryPerimeter=0;exitX=1;exitY=0.5;exitDx=0;exitDy=0;" parent="1" source="VTj1KqyeiY5SHbrKJYaJ-97" target="VTj1KqyeiY5SHbrKJYaJ-70" edge="1">
          <mxGeometry relative="1" as="geometry">
            <mxPoint x="350" y="830" as="sourcePoint" />
            <mxPoint x="510" y="830" as="targetPoint" />
          </mxGeometry>
        </mxCell>
        <mxCell id="VTj1KqyeiY5SHbrKJYaJ-138" value="N" style="resizable=0;html=1;whiteSpace=wrap;align=right;verticalAlign=bottom;" parent="VTj1KqyeiY5SHbrKJYaJ-137" connectable="0" vertex="1">
          <mxGeometry x="1" relative="1" as="geometry" />
        </mxCell>
        <mxCell id="VTj1KqyeiY5SHbrKJYaJ-139" value="" style="endArrow=none;html=1;rounded=0;exitX=1;exitY=0.5;exitDx=0;exitDy=0;entryX=0;entryY=0.5;entryDx=0;entryDy=0;" parent="1" source="VTj1KqyeiY5SHbrKJYaJ-61" target="VTj1KqyeiY5SHbrKJYaJ-97" edge="1">
          <mxGeometry relative="1" as="geometry">
            <mxPoint x="210" y="830" as="sourcePoint" />
            <mxPoint x="220" y="840" as="targetPoint" />
          </mxGeometry>
        </mxCell>
        <mxCell id="VTj1KqyeiY5SHbrKJYaJ-140" value="N" style="resizable=0;html=1;whiteSpace=wrap;align=right;verticalAlign=bottom;" parent="VTj1KqyeiY5SHbrKJYaJ-139" connectable="0" vertex="1">
          <mxGeometry x="1" relative="1" as="geometry" />
        </mxCell>
        <mxCell id="VTj1KqyeiY5SHbrKJYaJ-141" value="" style="endArrow=none;html=1;rounded=0;entryX=0.5;entryY=0;entryDx=0;entryDy=0;" parent="1" source="VTj1KqyeiY5SHbrKJYaJ-63" target="VTj1KqyeiY5SHbrKJYaJ-101" edge="1">
          <mxGeometry relative="1" as="geometry">
            <mxPoint x="250" y="920" as="sourcePoint" />
            <mxPoint x="410" y="920" as="targetPoint" />
          </mxGeometry>
        </mxCell>
        <mxCell id="VTj1KqyeiY5SHbrKJYaJ-142" value="1" style="resizable=0;html=1;whiteSpace=wrap;align=right;verticalAlign=bottom;" parent="VTj1KqyeiY5SHbrKJYaJ-141" connectable="0" vertex="1">
          <mxGeometry x="1" relative="1" as="geometry" />
        </mxCell>
        <mxCell id="VTj1KqyeiY5SHbrKJYaJ-143" value="" style="endArrow=none;html=1;rounded=0;entryX=0.5;entryY=0;entryDx=0;entryDy=0;" parent="1" target="VTj1KqyeiY5SHbrKJYaJ-85" edge="1">
          <mxGeometry relative="1" as="geometry">
            <mxPoint x="110" y="1000" as="sourcePoint" />
            <mxPoint x="270" y="1000" as="targetPoint" />
          </mxGeometry>
        </mxCell>
        <mxCell id="VTj1KqyeiY5SHbrKJYaJ-144" value="N" style="resizable=0;html=1;whiteSpace=wrap;align=right;verticalAlign=bottom;" parent="VTj1KqyeiY5SHbrKJYaJ-143" connectable="0" vertex="1">
          <mxGeometry x="1" relative="1" as="geometry" />
        </mxCell>
        <mxCell id="VTj1KqyeiY5SHbrKJYaJ-147" value="" style="endArrow=none;html=1;rounded=0;entryX=0.5;entryY=0;entryDx=0;entryDy=0;exitX=0.479;exitY=1.154;exitDx=0;exitDy=0;exitPerimeter=0;" parent="1" source="VTj1KqyeiY5SHbrKJYaJ-87" target="VTj1KqyeiY5SHbrKJYaJ-95" edge="1">
          <mxGeometry relative="1" as="geometry">
            <mxPoint x="70" y="1170" as="sourcePoint" />
            <mxPoint x="109" y="1150" as="targetPoint" />
          </mxGeometry>
        </mxCell>
        <mxCell id="VTj1KqyeiY5SHbrKJYaJ-148" value="1" style="resizable=0;html=1;whiteSpace=wrap;align=right;verticalAlign=bottom;" parent="VTj1KqyeiY5SHbrKJYaJ-147" connectable="0" vertex="1">
          <mxGeometry x="1" relative="1" as="geometry" />
        </mxCell>
        <mxCell id="VTj1KqyeiY5SHbrKJYaJ-149" value="" style="endArrow=none;html=1;rounded=0;exitX=0.5;exitY=1;exitDx=0;exitDy=0;entryX=0.5;entryY=0;entryDx=0;entryDy=0;" parent="1" source="VTj1KqyeiY5SHbrKJYaJ-95" target="VTj1KqyeiY5SHbrKJYaJ-78" edge="1">
          <mxGeometry relative="1" as="geometry">
            <mxPoint x="90" y="1270" as="sourcePoint" />
            <mxPoint x="250" y="1270" as="targetPoint" />
          </mxGeometry>
        </mxCell>
        <mxCell id="VTj1KqyeiY5SHbrKJYaJ-150" value="1" style="resizable=0;html=1;whiteSpace=wrap;align=right;verticalAlign=bottom;" parent="VTj1KqyeiY5SHbrKJYaJ-149" connectable="0" vertex="1">
          <mxGeometry x="1" relative="1" as="geometry" />
        </mxCell>
        <mxCell id="VTj1KqyeiY5SHbrKJYaJ-151" value="" style="endArrow=none;html=1;rounded=0;exitX=1;exitY=0.5;exitDx=0;exitDy=0;entryX=0;entryY=0.5;entryDx=0;entryDy=0;" parent="1" source="VTj1KqyeiY5SHbrKJYaJ-86" target="VTj1KqyeiY5SHbrKJYaJ-96" edge="1">
          <mxGeometry relative="1" as="geometry">
            <mxPoint x="400" y="1220" as="sourcePoint" />
            <mxPoint x="560" y="1220" as="targetPoint" />
          </mxGeometry>
        </mxCell>
        <mxCell id="VTj1KqyeiY5SHbrKJYaJ-152" value="1" style="resizable=0;html=1;whiteSpace=wrap;align=right;verticalAlign=bottom;" parent="VTj1KqyeiY5SHbrKJYaJ-151" connectable="0" vertex="1">
          <mxGeometry x="1" relative="1" as="geometry" />
        </mxCell>
        <mxCell id="VTj1KqyeiY5SHbrKJYaJ-153" value="" style="endArrow=none;html=1;rounded=0;exitX=1;exitY=0.5;exitDx=0;exitDy=0;entryX=0;entryY=0.5;entryDx=0;entryDy=0;" parent="1" source="VTj1KqyeiY5SHbrKJYaJ-96" target="VTj1KqyeiY5SHbrKJYaJ-90" edge="1">
          <mxGeometry relative="1" as="geometry">
            <mxPoint x="340" y="1170" as="sourcePoint" />
            <mxPoint x="500" y="1170" as="targetPoint" />
          </mxGeometry>
        </mxCell>
        <mxCell id="VTj1KqyeiY5SHbrKJYaJ-154" value="1" style="resizable=0;html=1;whiteSpace=wrap;align=right;verticalAlign=bottom;" parent="VTj1KqyeiY5SHbrKJYaJ-153" connectable="0" vertex="1">
          <mxGeometry x="1" relative="1" as="geometry" />
        </mxCell>
        <mxCell id="VTj1KqyeiY5SHbrKJYaJ-155" value="Exercice 5" style="text;html=1;align=center;verticalAlign=middle;whiteSpace=wrap;rounded=0;" parent="1" vertex="1">
          <mxGeometry x="10" y="1500" width="60" height="30" as="geometry" />
        </mxCell>
        <mxCell id="VTj1KqyeiY5SHbrKJYaJ-159" value="" style="edgeStyle=orthogonalEdgeStyle;rounded=0;orthogonalLoop=1;jettySize=auto;html=1;" parent="1" source="VTj1KqyeiY5SHbrKJYaJ-156" target="VTj1KqyeiY5SHbrKJYaJ-158" edge="1">
          <mxGeometry relative="1" as="geometry" />
        </mxCell>
        <mxCell id="VTj1KqyeiY5SHbrKJYaJ-156" value="&lt;div style=&quot;box-sizing:border-box;width:100%;background:#e4e4e4;padding:2px;&quot;&gt;Aventurier&lt;/div&gt;&lt;table style=&quot;width:100%;font-size:1em;&quot; cellpadding=&quot;2&quot; cellspacing=&quot;0&quot;&gt;&lt;tbody&gt;&lt;tr&gt;&lt;td&gt;PK&lt;/td&gt;&lt;td&gt;Aventurier-ID&lt;/td&gt;&lt;/tr&gt;&lt;tr&gt;&lt;td&gt;&lt;br&gt;&lt;/td&gt;&lt;td&gt;Nom&lt;br&gt;Age&lt;/td&gt;&lt;/tr&gt;&lt;tr&gt;&lt;td&gt;FK&lt;/td&gt;&lt;td&gt;Classe_ID&lt;/td&gt;&lt;/tr&gt;&lt;/tbody&gt;&lt;/table&gt;" style="verticalAlign=top;align=left;overflow=fill;html=1;whiteSpace=wrap;" parent="1" vertex="1">
          <mxGeometry x="208" y="1560" width="180" height="90" as="geometry" />
        </mxCell>
        <mxCell id="VTj1KqyeiY5SHbrKJYaJ-160" value="" style="edgeStyle=orthogonalEdgeStyle;rounded=0;orthogonalLoop=1;jettySize=auto;html=1;" parent="1" source="VTj1KqyeiY5SHbrKJYaJ-157" target="VTj1KqyeiY5SHbrKJYaJ-158" edge="1">
          <mxGeometry relative="1" as="geometry" />
        </mxCell>
        <mxCell id="VTj1KqyeiY5SHbrKJYaJ-157" value="&lt;div style=&quot;box-sizing:border-box;width:100%;background:#e4e4e4;padding:2px;&quot;&gt;Donjon&lt;/div&gt;&lt;table style=&quot;width:100%;font-size:1em;&quot; cellpadding=&quot;2&quot; cellspacing=&quot;0&quot;&gt;&lt;tbody&gt;&lt;tr&gt;&lt;td&gt;PK&lt;/td&gt;&lt;td&gt;Donjon-ID&lt;/td&gt;&lt;/tr&gt;&lt;tr&gt;&lt;td&gt;&lt;br&gt;&lt;/td&gt;&lt;td&gt;Dun-Name&lt;/td&gt;&lt;/tr&gt;&lt;tr&gt;&lt;td&gt;&lt;/td&gt;&lt;td&gt;Date&lt;/td&gt;&lt;/tr&gt;&lt;/tbody&gt;&lt;/table&gt;" style="verticalAlign=top;align=left;overflow=fill;html=1;whiteSpace=wrap;" parent="1" vertex="1">
          <mxGeometry x="700" y="1560" width="127" height="90" as="geometry" />
        </mxCell>
        <mxCell id="VTj1KqyeiY5SHbrKJYaJ-158" value="&lt;div style=&quot;box-sizing:border-box;width:100%;background:#e4e4e4;padding:2px;&quot;&gt;Historique&lt;/div&gt;&lt;table style=&quot;width:100%;font-size:1em;&quot; cellpadding=&quot;2&quot; cellspacing=&quot;0&quot;&gt;&lt;tbody&gt;&lt;tr&gt;&lt;td&gt;PK&lt;/td&gt;&lt;td&gt;historique_ID&lt;/td&gt;&lt;/tr&gt;&lt;tr&gt;&lt;td&gt;FK1&lt;br&gt;FK2&lt;/td&gt;&lt;td&gt;Dun-ID&lt;br&gt;Adv-card-ID&lt;br&gt;&lt;/td&gt;&lt;/tr&gt;&lt;tr&gt;&lt;td&gt;&lt;br&gt;&lt;/td&gt;&lt;td&gt;complété boolean&lt;/td&gt;&lt;/tr&gt;&lt;/tbody&gt;&lt;/table&gt;" style="verticalAlign=top;align=left;overflow=fill;html=1;whiteSpace=wrap;" parent="1" vertex="1">
          <mxGeometry x="447" y="1560" width="180" height="90" as="geometry" />
        </mxCell>
        <mxCell id="VTj1KqyeiY5SHbrKJYaJ-161" value="Complète un donjon" style="text;html=1;align=center;verticalAlign=middle;whiteSpace=wrap;rounded=0;" parent="1" vertex="1">
          <mxGeometry x="387" y="1560" width="60" height="30" as="geometry" />
        </mxCell>
        <mxCell id="VTj1KqyeiY5SHbrKJYaJ-162" value="Complète un donjon" style="text;html=1;align=center;verticalAlign=middle;whiteSpace=wrap;rounded=0;" parent="1" vertex="1">
          <mxGeometry x="635" y="1560" width="60" height="30" as="geometry" />
        </mxCell>
        <mxCell id="VTj1KqyeiY5SHbrKJYaJ-163" value="1&amp;nbsp; &amp;nbsp; &amp;nbsp; &amp;nbsp; &amp;nbsp;n" style="text;html=1;align=center;verticalAlign=middle;whiteSpace=wrap;rounded=0;" parent="1" vertex="1">
          <mxGeometry x="388" y="1605" width="60" height="30" as="geometry" />
        </mxCell>
        <mxCell id="VTj1KqyeiY5SHbrKJYaJ-164" value="n&amp;nbsp; &amp;nbsp; &amp;nbsp; &amp;nbsp; &amp;nbsp; 1" style="text;html=1;align=center;verticalAlign=middle;whiteSpace=wrap;rounded=0;" parent="1" vertex="1">
          <mxGeometry x="635" y="1604" width="60" height="30" as="geometry" />
        </mxCell>
        <mxCell id="VTj1KqyeiY5SHbrKJYaJ-168" value="Exercice 6" style="text;html=1;align=center;verticalAlign=middle;whiteSpace=wrap;rounded=0;" parent="1" vertex="1">
          <mxGeometry x="10" y="1680" width="60" height="30" as="geometry" />
        </mxCell>
        <mxCell id="VTj1KqyeiY5SHbrKJYaJ-169" value="Reptile" style="swimlane;fontStyle=0;childLayout=stackLayout;horizontal=1;startSize=26;fillColor=none;horizontalStack=0;resizeParent=1;resizeParentMax=0;resizeLast=0;collapsible=1;marginBottom=0;whiteSpace=wrap;html=1;" parent="1" vertex="1">
          <mxGeometry x="39" y="1761" width="140" height="104" as="geometry" />
        </mxCell>
        <mxCell id="VTj1KqyeiY5SHbrKJYaJ-170" value="Immatriculation [PK]" style="text;strokeColor=none;fillColor=none;align=left;verticalAlign=top;spacingLeft=4;spacingRight=4;overflow=hidden;rotatable=0;points=[[0,0.5],[1,0.5]];portConstraint=eastwest;whiteSpace=wrap;html=1;" parent="VTj1KqyeiY5SHbrKJYaJ-169" vertex="1">
          <mxGeometry y="26" width="140" height="26" as="geometry" />
        </mxCell>
        <mxCell id="VTj1KqyeiY5SHbrKJYaJ-171" value="Espèce" style="text;strokeColor=none;fillColor=none;align=left;verticalAlign=top;spacingLeft=4;spacingRight=4;overflow=hidden;rotatable=0;points=[[0,0.5],[1,0.5]];portConstraint=eastwest;whiteSpace=wrap;html=1;" parent="VTj1KqyeiY5SHbrKJYaJ-169" vertex="1">
          <mxGeometry y="52" width="140" height="26" as="geometry" />
        </mxCell>
        <mxCell id="VTj1KqyeiY5SHbrKJYaJ-172" value="Prix" style="text;strokeColor=none;fillColor=none;align=left;verticalAlign=top;spacingLeft=4;spacingRight=4;overflow=hidden;rotatable=0;points=[[0,0.5],[1,0.5]];portConstraint=eastwest;whiteSpace=wrap;html=1;" parent="VTj1KqyeiY5SHbrKJYaJ-169" vertex="1">
          <mxGeometry y="78" width="140" height="26" as="geometry" />
        </mxCell>
        <mxCell id="VTj1KqyeiY5SHbrKJYaJ-173" value="Vivarium" style="swimlane;fontStyle=0;childLayout=stackLayout;horizontal=1;startSize=26;fillColor=none;horizontalStack=0;resizeParent=1;resizeParentMax=0;resizeLast=0;collapsible=1;marginBottom=0;whiteSpace=wrap;html=1;" parent="1" vertex="1">
          <mxGeometry x="280" y="1761" width="140" height="105" as="geometry" />
        </mxCell>
        <mxCell id="VTj1KqyeiY5SHbrKJYaJ-174" value="Nom-Vivarium [PK]" style="text;strokeColor=none;fillColor=none;align=left;verticalAlign=top;spacingLeft=4;spacingRight=4;overflow=hidden;rotatable=0;points=[[0,0.5],[1,0.5]];portConstraint=eastwest;whiteSpace=wrap;html=1;" parent="VTj1KqyeiY5SHbrKJYaJ-173" vertex="1">
          <mxGeometry y="26" width="140" height="26" as="geometry" />
        </mxCell>
        <mxCell id="VTj1KqyeiY5SHbrKJYaJ-185" value="Type" style="text;strokeColor=none;fillColor=none;align=left;verticalAlign=top;spacingLeft=4;spacingRight=4;overflow=hidden;rotatable=0;points=[[0,0.5],[1,0.5]];portConstraint=eastwest;whiteSpace=wrap;html=1;" parent="VTj1KqyeiY5SHbrKJYaJ-173" vertex="1">
          <mxGeometry y="52" width="140" height="26" as="geometry" />
        </mxCell>
        <mxCell id="VTj1KqyeiY5SHbrKJYaJ-186" value="Immatriculation [FK]" style="text;strokeColor=none;fillColor=none;align=left;verticalAlign=top;spacingLeft=4;spacingRight=4;overflow=hidden;rotatable=0;points=[[0,0.5],[1,0.5]];portConstraint=eastwest;whiteSpace=wrap;html=1;" parent="VTj1KqyeiY5SHbrKJYaJ-173" vertex="1">
          <mxGeometry y="78" width="140" height="27" as="geometry" />
        </mxCell>
        <mxCell id="VTj1KqyeiY5SHbrKJYaJ-187" value="" style="line;strokeWidth=1;fillColor=none;align=left;verticalAlign=middle;spacingTop=-1;spacingLeft=3;spacingRight=3;rotatable=0;labelPosition=right;points=[];portConstraint=eastwest;strokeColor=inherit;" parent="1" vertex="1">
          <mxGeometry x="180" y="1810" width="100" height="8" as="geometry" />
        </mxCell>
        <mxCell id="VTj1KqyeiY5SHbrKJYaJ-189" value="1" style="text;html=1;align=center;verticalAlign=middle;whiteSpace=wrap;rounded=0;" parent="1" vertex="1">
          <mxGeometry x="241" y="1788" width="60" height="30" as="geometry" />
        </mxCell>
        <mxCell id="VTj1KqyeiY5SHbrKJYaJ-190" value="0 - 4" style="text;html=1;align=center;verticalAlign=middle;whiteSpace=wrap;rounded=0;" parent="1" vertex="1">
          <mxGeometry x="168" y="1788" width="60" height="30" as="geometry" />
        </mxCell>
        <mxCell id="VTj1KqyeiY5SHbrKJYaJ-192" value="Exercice 7" style="text;html=1;align=center;verticalAlign=middle;whiteSpace=wrap;rounded=0;" parent="1" vertex="1">
          <mxGeometry x="10" y="1897" width="60" height="30" as="geometry" />
        </mxCell>
        <mxCell id="VTj1KqyeiY5SHbrKJYaJ-193" value="Electroménager" style="swimlane;fontStyle=0;childLayout=stackLayout;horizontal=1;startSize=26;fillColor=none;horizontalStack=0;resizeParent=1;resizeParentMax=0;resizeLast=0;collapsible=1;marginBottom=0;whiteSpace=wrap;html=1;" parent="1" vertex="1">
          <mxGeometry x="283" y="1960" width="140" height="156" as="geometry" />
        </mxCell>
        <mxCell id="VTj1KqyeiY5SHbrKJYaJ-194" value="ID_machine [PK]" style="text;strokeColor=none;fillColor=none;align=left;verticalAlign=top;spacingLeft=4;spacingRight=4;overflow=hidden;rotatable=0;points=[[0,0.5],[1,0.5]];portConstraint=eastwest;whiteSpace=wrap;html=1;" parent="VTj1KqyeiY5SHbrKJYaJ-193" vertex="1">
          <mxGeometry y="26" width="140" height="26" as="geometry" />
        </mxCell>
        <mxCell id="VTj1KqyeiY5SHbrKJYaJ-195" value="ID_marque [FK]" style="text;strokeColor=none;fillColor=none;align=left;verticalAlign=top;spacingLeft=4;spacingRight=4;overflow=hidden;rotatable=0;points=[[0,0.5],[1,0.5]];portConstraint=eastwest;whiteSpace=wrap;html=1;" parent="VTj1KqyeiY5SHbrKJYaJ-193" vertex="1">
          <mxGeometry y="52" width="140" height="26" as="geometry" />
        </mxCell>
        <mxCell id="VTj1KqyeiY5SHbrKJYaJ-196" value="ID_catégorie [FK]" style="text;strokeColor=none;fillColor=none;align=left;verticalAlign=top;spacingLeft=4;spacingRight=4;overflow=hidden;rotatable=0;points=[[0,0.5],[1,0.5]];portConstraint=eastwest;whiteSpace=wrap;html=1;" parent="VTj1KqyeiY5SHbrKJYaJ-193" vertex="1">
          <mxGeometry y="78" width="140" height="26" as="geometry" />
        </mxCell>
        <mxCell id="VTj1KqyeiY5SHbrKJYaJ-197" value="Prix" style="text;strokeColor=none;fillColor=none;align=left;verticalAlign=top;spacingLeft=4;spacingRight=4;overflow=hidden;rotatable=0;points=[[0,0.5],[1,0.5]];portConstraint=eastwest;whiteSpace=wrap;html=1;" parent="VTj1KqyeiY5SHbrKJYaJ-193" vertex="1">
          <mxGeometry y="104" width="140" height="26" as="geometry" />
        </mxCell>
        <mxCell id="VTj1KqyeiY5SHbrKJYaJ-198" value="Modèle" style="text;strokeColor=none;fillColor=none;align=left;verticalAlign=top;spacingLeft=4;spacingRight=4;overflow=hidden;rotatable=0;points=[[0,0.5],[1,0.5]];portConstraint=eastwest;whiteSpace=wrap;html=1;" parent="VTj1KqyeiY5SHbrKJYaJ-193" vertex="1">
          <mxGeometry y="130" width="140" height="26" as="geometry" />
        </mxCell>
        <mxCell id="VTj1KqyeiY5SHbrKJYaJ-199" value="Exercice 8" style="text;html=1;align=center;verticalAlign=middle;whiteSpace=wrap;rounded=0;" parent="1" vertex="1">
          <mxGeometry x="10" y="2140" width="60" height="30" as="geometry" />
        </mxCell>
        <mxCell id="VTj1KqyeiY5SHbrKJYaJ-222" value="" style="edgeStyle=orthogonalEdgeStyle;rounded=0;orthogonalLoop=1;jettySize=auto;html=1;entryX=0.5;entryY=0;entryDx=0;entryDy=0;" parent="1" source="VTj1KqyeiY5SHbrKJYaJ-200" target="VTj1KqyeiY5SHbrKJYaJ-212" edge="1">
          <mxGeometry relative="1" as="geometry" />
        </mxCell>
        <mxCell id="UclUqDLvG8Msh8uGyruY-94" style="edgeStyle=orthogonalEdgeStyle;rounded=0;orthogonalLoop=1;jettySize=auto;html=1;entryX=0;entryY=0.5;entryDx=0;entryDy=0;" edge="1" parent="1" source="VTj1KqyeiY5SHbrKJYaJ-200" target="VTj1KqyeiY5SHbrKJYaJ-207">
          <mxGeometry relative="1" as="geometry" />
        </mxCell>
        <mxCell id="VTj1KqyeiY5SHbrKJYaJ-200" value="User" style="swimlane;fontStyle=0;childLayout=stackLayout;horizontal=1;startSize=26;fillColor=none;horizontalStack=0;resizeParent=1;resizeParentMax=0;resizeLast=0;collapsible=1;marginBottom=0;whiteSpace=wrap;html=1;" parent="1" vertex="1">
          <mxGeometry x="39" y="2220" width="140" height="104" as="geometry" />
        </mxCell>
        <mxCell id="VTj1KqyeiY5SHbrKJYaJ-201" value="ID [PK]" style="text;strokeColor=none;fillColor=none;align=left;verticalAlign=top;spacingLeft=4;spacingRight=4;overflow=hidden;rotatable=0;points=[[0,0.5],[1,0.5]];portConstraint=eastwest;whiteSpace=wrap;html=1;" parent="VTj1KqyeiY5SHbrKJYaJ-200" vertex="1">
          <mxGeometry y="26" width="140" height="26" as="geometry" />
        </mxCell>
        <mxCell id="VTj1KqyeiY5SHbrKJYaJ-202" value="name" style="text;strokeColor=none;fillColor=none;align=left;verticalAlign=top;spacingLeft=4;spacingRight=4;overflow=hidden;rotatable=0;points=[[0,0.5],[1,0.5]];portConstraint=eastwest;whiteSpace=wrap;html=1;" parent="VTj1KqyeiY5SHbrKJYaJ-200" vertex="1">
          <mxGeometry y="52" width="140" height="26" as="geometry" />
        </mxCell>
        <mxCell id="VTj1KqyeiY5SHbrKJYaJ-203" value="password" style="text;strokeColor=none;fillColor=none;align=left;verticalAlign=top;spacingLeft=4;spacingRight=4;overflow=hidden;rotatable=0;points=[[0,0.5],[1,0.5]];portConstraint=eastwest;whiteSpace=wrap;html=1;" parent="VTj1KqyeiY5SHbrKJYaJ-200" vertex="1">
          <mxGeometry y="78" width="140" height="26" as="geometry" />
        </mxCell>
        <mxCell id="VTj1KqyeiY5SHbrKJYaJ-205" value="Article" style="swimlane;fontStyle=0;childLayout=stackLayout;horizontal=1;startSize=26;fillColor=none;horizontalStack=0;resizeParent=1;resizeParentMax=0;resizeLast=0;collapsible=1;marginBottom=0;whiteSpace=wrap;html=1;" parent="1" vertex="1">
          <mxGeometry x="440" y="2207" width="140" height="156" as="geometry" />
        </mxCell>
        <mxCell id="VTj1KqyeiY5SHbrKJYaJ-206" value="ID [PK]" style="text;strokeColor=none;fillColor=none;align=left;verticalAlign=top;spacingLeft=4;spacingRight=4;overflow=hidden;rotatable=0;points=[[0,0.5],[1,0.5]];portConstraint=eastwest;whiteSpace=wrap;html=1;" parent="VTj1KqyeiY5SHbrKJYaJ-205" vertex="1">
          <mxGeometry y="26" width="140" height="26" as="geometry" />
        </mxCell>
        <mxCell id="VTj1KqyeiY5SHbrKJYaJ-207" value="user_id [FK]" style="text;strokeColor=none;fillColor=none;align=left;verticalAlign=top;spacingLeft=4;spacingRight=4;overflow=hidden;rotatable=0;points=[[0,0.5],[1,0.5]];portConstraint=eastwest;whiteSpace=wrap;html=1;" parent="VTj1KqyeiY5SHbrKJYaJ-205" vertex="1">
          <mxGeometry y="52" width="140" height="26" as="geometry" />
        </mxCell>
        <mxCell id="VTj1KqyeiY5SHbrKJYaJ-208" value="title" style="text;strokeColor=none;fillColor=none;align=left;verticalAlign=top;spacingLeft=4;spacingRight=4;overflow=hidden;rotatable=0;points=[[0,0.5],[1,0.5]];portConstraint=eastwest;whiteSpace=wrap;html=1;" parent="VTj1KqyeiY5SHbrKJYaJ-205" vertex="1">
          <mxGeometry y="78" width="140" height="26" as="geometry" />
        </mxCell>
        <mxCell id="VTj1KqyeiY5SHbrKJYaJ-209" value="article_text" style="text;strokeColor=none;fillColor=none;align=left;verticalAlign=top;spacingLeft=4;spacingRight=4;overflow=hidden;rotatable=0;points=[[0,0.5],[1,0.5]];portConstraint=eastwest;whiteSpace=wrap;html=1;" parent="VTj1KqyeiY5SHbrKJYaJ-205" vertex="1">
          <mxGeometry y="104" width="140" height="26" as="geometry" />
        </mxCell>
        <mxCell id="VTj1KqyeiY5SHbrKJYaJ-210" value="date" style="text;strokeColor=none;fillColor=none;align=left;verticalAlign=top;spacingLeft=4;spacingRight=4;overflow=hidden;rotatable=0;points=[[0,0.5],[1,0.5]];portConstraint=eastwest;whiteSpace=wrap;html=1;" parent="VTj1KqyeiY5SHbrKJYaJ-205" vertex="1">
          <mxGeometry y="130" width="140" height="26" as="geometry" />
        </mxCell>
        <mxCell id="VTj1KqyeiY5SHbrKJYaJ-212" value="Commentaire" style="swimlane;fontStyle=0;childLayout=stackLayout;horizontal=1;startSize=26;fillColor=none;horizontalStack=0;resizeParent=1;resizeParentMax=0;resizeLast=0;collapsible=1;marginBottom=0;whiteSpace=wrap;html=1;" parent="1" vertex="1">
          <mxGeometry x="39" y="2376" width="140" height="130" as="geometry" />
        </mxCell>
        <mxCell id="VTj1KqyeiY5SHbrKJYaJ-213" value="ID_commentaire [PK]" style="text;strokeColor=none;fillColor=none;align=left;verticalAlign=top;spacingLeft=4;spacingRight=4;overflow=hidden;rotatable=0;points=[[0,0.5],[1,0.5]];portConstraint=eastwest;whiteSpace=wrap;html=1;" parent="VTj1KqyeiY5SHbrKJYaJ-212" vertex="1">
          <mxGeometry y="26" width="140" height="26" as="geometry" />
        </mxCell>
        <mxCell id="VTj1KqyeiY5SHbrKJYaJ-214" value="texte_commentaire" style="text;strokeColor=none;fillColor=none;align=left;verticalAlign=top;spacingLeft=4;spacingRight=4;overflow=hidden;rotatable=0;points=[[0,0.5],[1,0.5]];portConstraint=eastwest;whiteSpace=wrap;html=1;" parent="VTj1KqyeiY5SHbrKJYaJ-212" vertex="1">
          <mxGeometry y="52" width="140" height="26" as="geometry" />
        </mxCell>
        <mxCell id="VTj1KqyeiY5SHbrKJYaJ-215" value="user_id [FK]" style="text;strokeColor=none;fillColor=none;align=left;verticalAlign=top;spacingLeft=4;spacingRight=4;overflow=hidden;rotatable=0;points=[[0,0.5],[1,0.5]];portConstraint=eastwest;whiteSpace=wrap;html=1;" parent="VTj1KqyeiY5SHbrKJYaJ-212" vertex="1">
          <mxGeometry y="78" width="140" height="26" as="geometry" />
        </mxCell>
        <mxCell id="VTj1KqyeiY5SHbrKJYaJ-216" value="article_id [FK]" style="text;strokeColor=none;fillColor=none;align=left;verticalAlign=top;spacingLeft=4;spacingRight=4;overflow=hidden;rotatable=0;points=[[0,0.5],[1,0.5]];portConstraint=eastwest;whiteSpace=wrap;html=1;" parent="VTj1KqyeiY5SHbrKJYaJ-212" vertex="1">
          <mxGeometry y="104" width="140" height="26" as="geometry" />
        </mxCell>
        <mxCell id="VTj1KqyeiY5SHbrKJYaJ-223" value="*" style="text;html=1;align=center;verticalAlign=middle;whiteSpace=wrap;rounded=0;" parent="1" vertex="1">
          <mxGeometry x="161" y="2240" width="60" height="30" as="geometry" />
        </mxCell>
        <mxCell id="VTj1KqyeiY5SHbrKJYaJ-224" value="1" style="text;html=1;align=center;verticalAlign=middle;whiteSpace=wrap;rounded=0;" parent="1" vertex="1">
          <mxGeometry x="397.5" y="2240" width="60" height="30" as="geometry" />
        </mxCell>
        <mxCell id="VTj1KqyeiY5SHbrKJYaJ-226" value="1" style="text;html=1;align=center;verticalAlign=middle;whiteSpace=wrap;rounded=0;" parent="1" vertex="1">
          <mxGeometry x="466" y="2362" width="60" height="30" as="geometry" />
        </mxCell>
        <mxCell id="VTj1KqyeiY5SHbrKJYaJ-227" value="1" style="text;html=1;align=center;verticalAlign=middle;whiteSpace=wrap;rounded=0;" parent="1" vertex="1">
          <mxGeometry x="60" y="2324" width="60" height="30" as="geometry" />
        </mxCell>
        <mxCell id="VTj1KqyeiY5SHbrKJYaJ-228" value="*" style="text;html=1;align=center;verticalAlign=middle;whiteSpace=wrap;rounded=0;" parent="1" vertex="1">
          <mxGeometry x="60" y="2352" width="60" height="30" as="geometry" />
        </mxCell>
        <mxCell id="VTj1KqyeiY5SHbrKJYaJ-229" value="" style="endArrow=none;html=1;rounded=0;exitX=1;exitY=0.5;exitDx=0;exitDy=0;" parent="1" source="VTj1KqyeiY5SHbrKJYaJ-196" edge="1">
          <mxGeometry width="50" height="50" relative="1" as="geometry">
            <mxPoint x="426" y="2050" as="sourcePoint" />
            <mxPoint x="526" y="2050" as="targetPoint" />
          </mxGeometry>
        </mxCell>
        <mxCell id="VTj1KqyeiY5SHbrKJYaJ-230" value="Marque" style="swimlane;fontStyle=0;childLayout=stackLayout;horizontal=1;startSize=26;fillColor=none;horizontalStack=0;resizeParent=1;resizeParentMax=0;resizeLast=0;collapsible=1;marginBottom=0;whiteSpace=wrap;html=1;" parent="1" vertex="1">
          <mxGeometry x="526" y="2008" width="140" height="78" as="geometry" />
        </mxCell>
        <mxCell id="VTj1KqyeiY5SHbrKJYaJ-231" value="ID_marque [PK]" style="text;strokeColor=none;fillColor=none;align=left;verticalAlign=top;spacingLeft=4;spacingRight=4;overflow=hidden;rotatable=0;points=[[0,0.5],[1,0.5]];portConstraint=eastwest;whiteSpace=wrap;html=1;" parent="VTj1KqyeiY5SHbrKJYaJ-230" vertex="1">
          <mxGeometry y="26" width="140" height="26" as="geometry" />
        </mxCell>
        <mxCell id="VTj1KqyeiY5SHbrKJYaJ-232" value="nom" style="text;strokeColor=none;fillColor=none;align=left;verticalAlign=top;spacingLeft=4;spacingRight=4;overflow=hidden;rotatable=0;points=[[0,0.5],[1,0.5]];portConstraint=eastwest;whiteSpace=wrap;html=1;" parent="VTj1KqyeiY5SHbrKJYaJ-230" vertex="1">
          <mxGeometry y="52" width="140" height="26" as="geometry" />
        </mxCell>
        <mxCell id="VTj1KqyeiY5SHbrKJYaJ-235" value="" style="endArrow=none;html=1;rounded=0;exitX=1;exitY=0.5;exitDx=0;exitDy=0;" parent="1" edge="1">
          <mxGeometry width="50" height="50" relative="1" as="geometry">
            <mxPoint x="179" y="2051" as="sourcePoint" />
            <mxPoint x="282" y="2050" as="targetPoint" />
          </mxGeometry>
        </mxCell>
        <mxCell id="VTj1KqyeiY5SHbrKJYaJ-236" value="Catégorie" style="swimlane;fontStyle=0;childLayout=stackLayout;horizontal=1;startSize=26;fillColor=none;horizontalStack=0;resizeParent=1;resizeParentMax=0;resizeLast=0;collapsible=1;marginBottom=0;whiteSpace=wrap;html=1;" parent="1" vertex="1">
          <mxGeometry x="40" y="2010" width="140" height="78" as="geometry" />
        </mxCell>
        <mxCell id="VTj1KqyeiY5SHbrKJYaJ-237" value="ID_catégorie [PK]" style="text;strokeColor=none;fillColor=none;align=left;verticalAlign=top;spacingLeft=4;spacingRight=4;overflow=hidden;rotatable=0;points=[[0,0.5],[1,0.5]];portConstraint=eastwest;whiteSpace=wrap;html=1;" parent="VTj1KqyeiY5SHbrKJYaJ-236" vertex="1">
          <mxGeometry y="26" width="140" height="26" as="geometry" />
        </mxCell>
        <mxCell id="VTj1KqyeiY5SHbrKJYaJ-238" value="type" style="text;strokeColor=none;fillColor=none;align=left;verticalAlign=top;spacingLeft=4;spacingRight=4;overflow=hidden;rotatable=0;points=[[0,0.5],[1,0.5]];portConstraint=eastwest;whiteSpace=wrap;html=1;" parent="VTj1KqyeiY5SHbrKJYaJ-236" vertex="1">
          <mxGeometry y="52" width="140" height="26" as="geometry" />
        </mxCell>
        <mxCell id="VTj1KqyeiY5SHbrKJYaJ-239" value="1" style="text;html=1;align=center;verticalAlign=middle;whiteSpace=wrap;rounded=0;" parent="1" vertex="1">
          <mxGeometry x="168" y="2056" width="60" height="30" as="geometry" />
        </mxCell>
        <mxCell id="VTj1KqyeiY5SHbrKJYaJ-240" value="*" style="text;html=1;align=center;verticalAlign=middle;whiteSpace=wrap;rounded=0;" parent="1" vertex="1">
          <mxGeometry x="240" y="2056" width="60" height="30" as="geometry" />
        </mxCell>
        <mxCell id="VTj1KqyeiY5SHbrKJYaJ-242" value="1" style="text;html=1;align=center;verticalAlign=middle;whiteSpace=wrap;rounded=0;" parent="1" vertex="1">
          <mxGeometry x="480" y="2050" width="60" height="30" as="geometry" />
        </mxCell>
        <mxCell id="VTj1KqyeiY5SHbrKJYaJ-243" value="*" style="text;html=1;align=center;verticalAlign=middle;whiteSpace=wrap;rounded=0;" parent="1" vertex="1">
          <mxGeometry x="414" y="2050" width="60" height="30" as="geometry" />
        </mxCell>
        <mxCell id="UclUqDLvG8Msh8uGyruY-1" value="Exercice 9 - Project Zomboid" style="text;html=1;align=left;verticalAlign=middle;whiteSpace=wrap;rounded=0;" vertex="1" parent="1">
          <mxGeometry x="10" y="2606" width="200" height="30" as="geometry" />
        </mxCell>
        <mxCell id="UclUqDLvG8Msh8uGyruY-2" value="*" style="text;html=1;align=center;verticalAlign=middle;whiteSpace=wrap;rounded=0;" vertex="1" parent="1">
          <mxGeometry x="161" y="2414" width="60" height="30" as="geometry" />
        </mxCell>
        <mxCell id="UclUqDLvG8Msh8uGyruY-27" value="" style="edgeStyle=orthogonalEdgeStyle;rounded=0;orthogonalLoop=1;jettySize=auto;html=1;entryX=0.5;entryY=0;entryDx=0;entryDy=0;" edge="1" parent="1" source="UclUqDLvG8Msh8uGyruY-9" target="UclUqDLvG8Msh8uGyruY-23">
          <mxGeometry relative="1" as="geometry" />
        </mxCell>
        <mxCell id="UclUqDLvG8Msh8uGyruY-37" value="" style="edgeStyle=orthogonalEdgeStyle;rounded=0;orthogonalLoop=1;jettySize=auto;html=1;" edge="1" parent="1" source="UclUqDLvG8Msh8uGyruY-9" target="UclUqDLvG8Msh8uGyruY-17">
          <mxGeometry relative="1" as="geometry" />
        </mxCell>
        <mxCell id="UclUqDLvG8Msh8uGyruY-9" value="ITEM" style="swimlane;fontStyle=0;childLayout=stackLayout;horizontal=1;startSize=26;fillColor=none;horizontalStack=0;resizeParent=1;resizeParentMax=0;resizeLast=0;collapsible=1;marginBottom=0;whiteSpace=wrap;html=1;" vertex="1" parent="1">
          <mxGeometry x="423" y="2640" width="209" height="156" as="geometry" />
        </mxCell>
        <mxCell id="UclUqDLvG8Msh8uGyruY-10" value="item_id [PK]" style="text;strokeColor=none;fillColor=none;align=left;verticalAlign=top;spacingLeft=4;spacingRight=4;overflow=hidden;rotatable=0;points=[[0,0.5],[1,0.5]];portConstraint=eastwest;whiteSpace=wrap;html=1;" vertex="1" parent="UclUqDLvG8Msh8uGyruY-9">
          <mxGeometry y="26" width="209" height="26" as="geometry" />
        </mxCell>
        <mxCell id="UclUqDLvG8Msh8uGyruY-11" value="type" style="text;strokeColor=none;fillColor=none;align=left;verticalAlign=top;spacingLeft=4;spacingRight=4;overflow=hidden;rotatable=0;points=[[0,0.5],[1,0.5]];portConstraint=eastwest;whiteSpace=wrap;html=1;" vertex="1" parent="UclUqDLvG8Msh8uGyruY-9">
          <mxGeometry y="52" width="209" height="26" as="geometry" />
        </mxCell>
        <mxCell id="UclUqDLvG8Msh8uGyruY-12" value="durability" style="text;strokeColor=none;fillColor=none;align=left;verticalAlign=top;spacingLeft=4;spacingRight=4;overflow=hidden;rotatable=0;points=[[0,0.5],[1,0.5]];portConstraint=eastwest;whiteSpace=wrap;html=1;" vertex="1" parent="UclUqDLvG8Msh8uGyruY-9">
          <mxGeometry y="78" width="209" height="26" as="geometry" />
        </mxCell>
        <mxCell id="UclUqDLvG8Msh8uGyruY-116" value="péremption" style="text;strokeColor=none;fillColor=none;align=left;verticalAlign=top;spacingLeft=4;spacingRight=4;overflow=hidden;rotatable=0;points=[[0,0.5],[1,0.5]];portConstraint=eastwest;whiteSpace=wrap;html=1;" vertex="1" parent="UclUqDLvG8Msh8uGyruY-9">
          <mxGeometry y="104" width="209" height="26" as="geometry" />
        </mxCell>
        <mxCell id="UclUqDLvG8Msh8uGyruY-13" value="model / color" style="text;strokeColor=none;fillColor=none;align=left;verticalAlign=top;spacingLeft=4;spacingRight=4;overflow=hidden;rotatable=0;points=[[0,0.5],[1,0.5]];portConstraint=eastwest;whiteSpace=wrap;html=1;" vertex="1" parent="UclUqDLvG8Msh8uGyruY-9">
          <mxGeometry y="130" width="209" height="26" as="geometry" />
        </mxCell>
        <mxCell id="UclUqDLvG8Msh8uGyruY-83" style="edgeStyle=orthogonalEdgeStyle;rounded=0;orthogonalLoop=1;jettySize=auto;html=1;entryX=0.5;entryY=0;entryDx=0;entryDy=0;" edge="1" parent="1" source="UclUqDLvG8Msh8uGyruY-14" target="UclUqDLvG8Msh8uGyruY-28">
          <mxGeometry relative="1" as="geometry" />
        </mxCell>
        <mxCell id="UclUqDLvG8Msh8uGyruY-14" value="INVENTORY" style="swimlane;fontStyle=0;childLayout=stackLayout;horizontal=1;startSize=26;fillColor=none;horizontalStack=0;resizeParent=1;resizeParentMax=0;resizeLast=0;collapsible=1;marginBottom=0;whiteSpace=wrap;html=1;" vertex="1" parent="1">
          <mxGeometry x="230" y="2653" width="140" height="78" as="geometry" />
        </mxCell>
        <mxCell id="UclUqDLvG8Msh8uGyruY-15" value="inventory_id [PK]" style="text;strokeColor=none;fillColor=none;align=left;verticalAlign=top;spacingLeft=4;spacingRight=4;overflow=hidden;rotatable=0;points=[[0,0.5],[1,0.5]];portConstraint=eastwest;whiteSpace=wrap;html=1;" vertex="1" parent="UclUqDLvG8Msh8uGyruY-14">
          <mxGeometry y="26" width="140" height="26" as="geometry" />
        </mxCell>
        <mxCell id="UclUqDLvG8Msh8uGyruY-17" value="item_id [FK]" style="text;strokeColor=none;fillColor=none;align=left;verticalAlign=top;spacingLeft=4;spacingRight=4;overflow=hidden;rotatable=0;points=[[0,0.5],[1,0.5]];portConstraint=eastwest;whiteSpace=wrap;html=1;" vertex="1" parent="UclUqDLvG8Msh8uGyruY-14">
          <mxGeometry y="52" width="140" height="26" as="geometry" />
        </mxCell>
        <mxCell id="UclUqDLvG8Msh8uGyruY-23" value="STORAGE" style="swimlane;fontStyle=0;childLayout=stackLayout;horizontal=1;startSize=26;fillColor=none;horizontalStack=0;resizeParent=1;resizeParentMax=0;resizeLast=0;collapsible=1;marginBottom=0;whiteSpace=wrap;html=1;" vertex="1" parent="1">
          <mxGeometry x="457.5" y="2840" width="140" height="104" as="geometry" />
        </mxCell>
        <mxCell id="UclUqDLvG8Msh8uGyruY-24" value="storage_id [PK]" style="text;strokeColor=none;fillColor=none;align=left;verticalAlign=top;spacingLeft=4;spacingRight=4;overflow=hidden;rotatable=0;points=[[0,0.5],[1,0.5]];portConstraint=eastwest;whiteSpace=wrap;html=1;" vertex="1" parent="UclUqDLvG8Msh8uGyruY-23">
          <mxGeometry y="26" width="140" height="26" as="geometry" />
        </mxCell>
        <mxCell id="UclUqDLvG8Msh8uGyruY-25" value="item_id [FK]" style="text;strokeColor=none;fillColor=none;align=left;verticalAlign=top;spacingLeft=4;spacingRight=4;overflow=hidden;rotatable=0;points=[[0,0.5],[1,0.5]];portConstraint=eastwest;whiteSpace=wrap;html=1;" vertex="1" parent="UclUqDLvG8Msh8uGyruY-23">
          <mxGeometry y="52" width="140" height="26" as="geometry" />
        </mxCell>
        <mxCell id="UclUqDLvG8Msh8uGyruY-26" value="map_index / localisation" style="text;strokeColor=none;fillColor=none;align=left;verticalAlign=top;spacingLeft=4;spacingRight=4;overflow=hidden;rotatable=0;points=[[0,0.5],[1,0.5]];portConstraint=eastwest;whiteSpace=wrap;html=1;" vertex="1" parent="UclUqDLvG8Msh8uGyruY-23">
          <mxGeometry y="78" width="140" height="26" as="geometry" />
        </mxCell>
        <mxCell id="UclUqDLvG8Msh8uGyruY-28" value="PLAYER" style="swimlane;fontStyle=0;childLayout=stackLayout;horizontal=1;startSize=26;fillColor=none;horizontalStack=0;resizeParent=1;resizeParentMax=0;resizeLast=0;collapsible=1;marginBottom=0;whiteSpace=wrap;html=1;" vertex="1" parent="1">
          <mxGeometry x="60" y="2731" width="140" height="104" as="geometry" />
        </mxCell>
        <mxCell id="UclUqDLvG8Msh8uGyruY-29" value="player_id [PK]" style="text;strokeColor=none;fillColor=none;align=left;verticalAlign=top;spacingLeft=4;spacingRight=4;overflow=hidden;rotatable=0;points=[[0,0.5],[1,0.5]];portConstraint=eastwest;whiteSpace=wrap;html=1;" vertex="1" parent="UclUqDLvG8Msh8uGyruY-28">
          <mxGeometry y="26" width="140" height="26" as="geometry" />
        </mxCell>
        <mxCell id="UclUqDLvG8Msh8uGyruY-30" value="player_stats [FK]" style="text;strokeColor=none;fillColor=none;align=left;verticalAlign=top;spacingLeft=4;spacingRight=4;overflow=hidden;rotatable=0;points=[[0,0.5],[1,0.5]];portConstraint=eastwest;whiteSpace=wrap;html=1;" vertex="1" parent="UclUqDLvG8Msh8uGyruY-28">
          <mxGeometry y="52" width="140" height="26" as="geometry" />
        </mxCell>
        <mxCell id="UclUqDLvG8Msh8uGyruY-31" value="inventory_id [FK]" style="text;strokeColor=none;fillColor=none;align=left;verticalAlign=top;spacingLeft=4;spacingRight=4;overflow=hidden;rotatable=0;points=[[0,0.5],[1,0.5]];portConstraint=eastwest;whiteSpace=wrap;html=1;" vertex="1" parent="UclUqDLvG8Msh8uGyruY-28">
          <mxGeometry y="78" width="140" height="26" as="geometry" />
        </mxCell>
        <mxCell id="UclUqDLvG8Msh8uGyruY-45" value="" style="edgeStyle=orthogonalEdgeStyle;rounded=0;orthogonalLoop=1;jettySize=auto;html=1;entryX=1;entryY=0.5;entryDx=0;entryDy=0;" edge="1" parent="1" source="UclUqDLvG8Msh8uGyruY-39" target="UclUqDLvG8Msh8uGyruY-30">
          <mxGeometry relative="1" as="geometry" />
        </mxCell>
        <mxCell id="UclUqDLvG8Msh8uGyruY-39" value="STAT" style="swimlane;fontStyle=0;childLayout=stackLayout;horizontal=1;startSize=26;fillColor=none;horizontalStack=0;resizeParent=1;resizeParentMax=0;resizeLast=0;collapsible=1;marginBottom=0;whiteSpace=wrap;html=1;" vertex="1" parent="1">
          <mxGeometry x="244" y="2880" width="156" height="156" as="geometry" />
        </mxCell>
        <mxCell id="UclUqDLvG8Msh8uGyruY-40" value="stat_id [PK]" style="text;strokeColor=none;fillColor=none;align=left;verticalAlign=top;spacingLeft=4;spacingRight=4;overflow=hidden;rotatable=0;points=[[0,0.5],[1,0.5]];portConstraint=eastwest;whiteSpace=wrap;html=1;" vertex="1" parent="UclUqDLvG8Msh8uGyruY-39">
          <mxGeometry y="26" width="156" height="26" as="geometry" />
        </mxCell>
        <mxCell id="UclUqDLvG8Msh8uGyruY-41" value="base_stat / bonus_points" style="text;strokeColor=none;fillColor=none;align=left;verticalAlign=top;spacingLeft=4;spacingRight=4;overflow=hidden;rotatable=0;points=[[0,0.5],[1,0.5]];portConstraint=eastwest;whiteSpace=wrap;html=1;" vertex="1" parent="UclUqDLvG8Msh8uGyruY-39">
          <mxGeometry y="52" width="156" height="26" as="geometry" />
        </mxCell>
        <mxCell id="UclUqDLvG8Msh8uGyruY-42" value="trait [FK]" style="text;strokeColor=none;fillColor=none;align=left;verticalAlign=top;spacingLeft=4;spacingRight=4;overflow=hidden;rotatable=0;points=[[0,0.5],[1,0.5]];portConstraint=eastwest;whiteSpace=wrap;html=1;" vertex="1" parent="UclUqDLvG8Msh8uGyruY-39">
          <mxGeometry y="78" width="156" height="26" as="geometry" />
        </mxCell>
        <mxCell id="UclUqDLvG8Msh8uGyruY-43" value="job [FK]" style="text;strokeColor=none;fillColor=none;align=left;verticalAlign=top;spacingLeft=4;spacingRight=4;overflow=hidden;rotatable=0;points=[[0,0.5],[1,0.5]];portConstraint=eastwest;whiteSpace=wrap;html=1;" vertex="1" parent="UclUqDLvG8Msh8uGyruY-39">
          <mxGeometry y="104" width="156" height="26" as="geometry" />
        </mxCell>
        <mxCell id="UclUqDLvG8Msh8uGyruY-44" value="status" style="text;strokeColor=none;fillColor=none;align=left;verticalAlign=top;spacingLeft=4;spacingRight=4;overflow=hidden;rotatable=0;points=[[0,0.5],[1,0.5]];portConstraint=eastwest;whiteSpace=wrap;html=1;" vertex="1" parent="UclUqDLvG8Msh8uGyruY-39">
          <mxGeometry y="130" width="156" height="26" as="geometry" />
        </mxCell>
        <mxCell id="UclUqDLvG8Msh8uGyruY-48" value="TRAIT" style="swimlane;fontStyle=0;childLayout=stackLayout;horizontal=1;startSize=26;fillColor=none;horizontalStack=0;resizeParent=1;resizeParentMax=0;resizeLast=0;collapsible=1;marginBottom=0;whiteSpace=wrap;html=1;" vertex="1" parent="1">
          <mxGeometry x="460" y="2958" width="140" height="104" as="geometry" />
        </mxCell>
        <mxCell id="UclUqDLvG8Msh8uGyruY-49" value="trait_id [PK]" style="text;strokeColor=none;fillColor=none;align=left;verticalAlign=top;spacingLeft=4;spacingRight=4;overflow=hidden;rotatable=0;points=[[0,0.5],[1,0.5]];portConstraint=eastwest;whiteSpace=wrap;html=1;" vertex="1" parent="UclUqDLvG8Msh8uGyruY-48">
          <mxGeometry y="26" width="140" height="26" as="geometry" />
        </mxCell>
        <mxCell id="UclUqDLvG8Msh8uGyruY-50" value="bonus" style="text;strokeColor=none;fillColor=none;align=left;verticalAlign=top;spacingLeft=4;spacingRight=4;overflow=hidden;rotatable=0;points=[[0,0.5],[1,0.5]];portConstraint=eastwest;whiteSpace=wrap;html=1;" vertex="1" parent="UclUqDLvG8Msh8uGyruY-48">
          <mxGeometry y="52" width="140" height="26" as="geometry" />
        </mxCell>
        <mxCell id="UclUqDLvG8Msh8uGyruY-51" value="malus" style="text;strokeColor=none;fillColor=none;align=left;verticalAlign=top;spacingLeft=4;spacingRight=4;overflow=hidden;rotatable=0;points=[[0,0.5],[1,0.5]];portConstraint=eastwest;whiteSpace=wrap;html=1;" vertex="1" parent="UclUqDLvG8Msh8uGyruY-48">
          <mxGeometry y="78" width="140" height="26" as="geometry" />
        </mxCell>
        <mxCell id="UclUqDLvG8Msh8uGyruY-52" value="" style="edgeStyle=orthogonalEdgeStyle;rounded=0;orthogonalLoop=1;jettySize=auto;html=1;entryX=1;entryY=0.5;entryDx=0;entryDy=0;" edge="1" parent="1" source="UclUqDLvG8Msh8uGyruY-50" target="UclUqDLvG8Msh8uGyruY-42">
          <mxGeometry relative="1" as="geometry" />
        </mxCell>
        <mxCell id="UclUqDLvG8Msh8uGyruY-118" value="" style="edgeStyle=orthogonalEdgeStyle;rounded=0;orthogonalLoop=1;jettySize=auto;html=1;entryX=0;entryY=0.5;entryDx=0;entryDy=0;" edge="1" parent="1" source="UclUqDLvG8Msh8uGyruY-53" target="UclUqDLvG8Msh8uGyruY-42">
          <mxGeometry relative="1" as="geometry" />
        </mxCell>
        <mxCell id="UclUqDLvG8Msh8uGyruY-53" value="JOB" style="swimlane;fontStyle=0;childLayout=stackLayout;horizontal=1;startSize=26;fillColor=none;horizontalStack=0;resizeParent=1;resizeParentMax=0;resizeLast=0;collapsible=1;marginBottom=0;whiteSpace=wrap;html=1;" vertex="1" parent="1">
          <mxGeometry x="60" y="2919" width="140" height="104" as="geometry" />
        </mxCell>
        <mxCell id="UclUqDLvG8Msh8uGyruY-54" value="job_id [PK]" style="text;strokeColor=none;fillColor=none;align=left;verticalAlign=top;spacingLeft=4;spacingRight=4;overflow=hidden;rotatable=0;points=[[0,0.5],[1,0.5]];portConstraint=eastwest;whiteSpace=wrap;html=1;" vertex="1" parent="UclUqDLvG8Msh8uGyruY-53">
          <mxGeometry y="26" width="140" height="26" as="geometry" />
        </mxCell>
        <mxCell id="UclUqDLvG8Msh8uGyruY-55" value="trait" style="text;strokeColor=none;fillColor=none;align=left;verticalAlign=top;spacingLeft=4;spacingRight=4;overflow=hidden;rotatable=0;points=[[0,0.5],[1,0.5]];portConstraint=eastwest;whiteSpace=wrap;html=1;" vertex="1" parent="UclUqDLvG8Msh8uGyruY-53">
          <mxGeometry y="52" width="140" height="26" as="geometry" />
        </mxCell>
        <mxCell id="UclUqDLvG8Msh8uGyruY-56" value="bonus_points" style="text;strokeColor=none;fillColor=none;align=left;verticalAlign=top;spacingLeft=4;spacingRight=4;overflow=hidden;rotatable=0;points=[[0,0.5],[1,0.5]];portConstraint=eastwest;whiteSpace=wrap;html=1;" vertex="1" parent="UclUqDLvG8Msh8uGyruY-53">
          <mxGeometry y="78" width="140" height="26" as="geometry" />
        </mxCell>
        <mxCell id="UclUqDLvG8Msh8uGyruY-58" value="EVENT" style="swimlane;fontStyle=0;childLayout=stackLayout;horizontal=1;startSize=26;fillColor=none;horizontalStack=0;resizeParent=1;resizeParentMax=0;resizeLast=0;collapsible=1;marginBottom=0;whiteSpace=wrap;html=1;" vertex="1" parent="1">
          <mxGeometry x="650" y="2833" width="140" height="130" as="geometry" />
        </mxCell>
        <mxCell id="UclUqDLvG8Msh8uGyruY-59" value="id_event [PK]" style="text;strokeColor=none;fillColor=none;align=left;verticalAlign=top;spacingLeft=4;spacingRight=4;overflow=hidden;rotatable=0;points=[[0,0.5],[1,0.5]];portConstraint=eastwest;whiteSpace=wrap;html=1;" vertex="1" parent="UclUqDLvG8Msh8uGyruY-58">
          <mxGeometry y="26" width="140" height="26" as="geometry" />
        </mxCell>
        <mxCell id="UclUqDLvG8Msh8uGyruY-60" value="début_event" style="text;strokeColor=none;fillColor=none;align=left;verticalAlign=top;spacingLeft=4;spacingRight=4;overflow=hidden;rotatable=0;points=[[0,0.5],[1,0.5]];portConstraint=eastwest;whiteSpace=wrap;html=1;" vertex="1" parent="UclUqDLvG8Msh8uGyruY-58">
          <mxGeometry y="52" width="140" height="26" as="geometry" />
        </mxCell>
        <mxCell id="UclUqDLvG8Msh8uGyruY-61" value="durée" style="text;strokeColor=none;fillColor=none;align=left;verticalAlign=top;spacingLeft=4;spacingRight=4;overflow=hidden;rotatable=0;points=[[0,0.5],[1,0.5]];portConstraint=eastwest;whiteSpace=wrap;html=1;" vertex="1" parent="UclUqDLvG8Msh8uGyruY-58">
          <mxGeometry y="78" width="140" height="26" as="geometry" />
        </mxCell>
        <mxCell id="UclUqDLvG8Msh8uGyruY-62" value="effets_map" style="text;strokeColor=none;fillColor=none;align=left;verticalAlign=top;spacingLeft=4;spacingRight=4;overflow=hidden;rotatable=0;points=[[0,0.5],[1,0.5]];portConstraint=eastwest;whiteSpace=wrap;html=1;" vertex="1" parent="UclUqDLvG8Msh8uGyruY-58">
          <mxGeometry y="104" width="140" height="26" as="geometry" />
        </mxCell>
        <mxCell id="UclUqDLvG8Msh8uGyruY-63" value="RANGEMENT (#ID_ref_Dsq, #ID_rayon)" style="text;html=1;align=left;verticalAlign=middle;whiteSpace=wrap;rounded=0;" vertex="1" parent="1">
          <mxGeometry x="10" y="608" width="390" height="30" as="geometry" />
        </mxCell>
        <mxCell id="UclUqDLvG8Msh8uGyruY-65" value="" style="edgeStyle=orthogonalEdgeStyle;rounded=0;orthogonalLoop=1;jettySize=auto;html=1;" edge="1" parent="1" source="UclUqDLvG8Msh8uGyruY-64" target="VTj1KqyeiY5SHbrKJYaJ-156">
          <mxGeometry relative="1" as="geometry" />
        </mxCell>
        <mxCell id="UclUqDLvG8Msh8uGyruY-64" value="&lt;div style=&quot;box-sizing:border-box;width:100%;background:#e4e4e4;padding:2px;&quot;&gt;Classe&lt;/div&gt;&lt;table style=&quot;width:100%;font-size:1em;&quot; cellpadding=&quot;2&quot; cellspacing=&quot;0&quot;&gt;&lt;tbody&gt;&lt;tr&gt;&lt;td&gt;PK&lt;/td&gt;&lt;td&gt;Classe-ID&lt;/td&gt;&lt;/tr&gt;&lt;tr&gt;&lt;td&gt;&lt;br&gt;&lt;/td&gt;&lt;td&gt;Classe&lt;br&gt;&lt;br&gt;&lt;/td&gt;&lt;/tr&gt;&lt;tr&gt;&lt;td&gt;&lt;/td&gt;&lt;td&gt;&lt;br&gt;&lt;/td&gt;&lt;/tr&gt;&lt;/tbody&gt;&lt;/table&gt;" style="verticalAlign=top;align=left;overflow=fill;html=1;whiteSpace=wrap;" vertex="1" parent="1">
          <mxGeometry x="6" y="1560" width="143" height="90" as="geometry" />
        </mxCell>
        <mxCell id="UclUqDLvG8Msh8uGyruY-66" value="1&amp;nbsp; &amp;nbsp; &amp;nbsp; &amp;nbsp; &amp;nbsp; n" style="text;html=1;align=center;verticalAlign=middle;whiteSpace=wrap;rounded=0;" vertex="1" parent="1">
          <mxGeometry x="150" y="1610" width="60" height="30" as="geometry" />
        </mxCell>
        <mxCell id="UclUqDLvG8Msh8uGyruY-67" value="Possède une classe" style="text;html=1;align=center;verticalAlign=middle;whiteSpace=wrap;rounded=0;" vertex="1" parent="1">
          <mxGeometry x="149" y="1569" width="60" height="30" as="geometry" />
        </mxCell>
        <mxCell id="UclUqDLvG8Msh8uGyruY-70" value="1&amp;nbsp; &amp;nbsp; &amp;nbsp; &amp;nbsp; *" style="text;html=1;align=center;verticalAlign=middle;whiteSpace=wrap;rounded=0;" vertex="1" parent="1">
          <mxGeometry x="368" y="2690" width="60" height="30" as="geometry" />
        </mxCell>
        <mxCell id="UclUqDLvG8Msh8uGyruY-71" value="&lt;span style=&quot;white-space: pre;&quot;&gt;&#x9;&lt;/span&gt;&lt;span style=&quot;white-space: pre;&quot;&gt;&#x9;&lt;/span&gt;&lt;span style=&quot;white-space: pre;&quot;&gt;&#x9;&lt;/span&gt;&lt;span style=&quot;white-space: pre;&quot;&gt;&#x9;&lt;/span&gt;&lt;span style=&quot;white-space: pre;&quot;&gt;&#x9;&lt;/span&gt;*&amp;nbsp;&lt;div&gt;&lt;br&gt;&lt;/div&gt;&lt;div&gt;&lt;br&gt;&lt;/div&gt;&lt;div&gt;1&lt;/div&gt;" style="text;html=1;align=center;verticalAlign=middle;whiteSpace=wrap;rounded=0;" vertex="1" parent="1">
          <mxGeometry x="26" y="2657" width="238" height="70" as="geometry" />
        </mxCell>
        <mxCell id="UclUqDLvG8Msh8uGyruY-75" value="*&amp;nbsp; &amp;nbsp; &amp;nbsp; &amp;nbsp; &amp;nbsp; &amp;nbsp; &amp;nbsp; &amp;nbsp;&lt;div&gt;&lt;br&gt;&lt;/div&gt;&lt;div&gt;&lt;br&gt;&lt;/div&gt;&lt;div&gt;&amp;nbsp; &amp;nbsp; &amp;nbsp; &amp;nbsp; &amp;nbsp; &amp;nbsp; &amp;nbsp; &amp;nbsp; &amp;nbsp; &amp;nbsp;&amp;nbsp;&lt;/div&gt;&lt;div&gt;&amp;nbsp; &amp;nbsp; &amp;nbsp; &amp;nbsp; &amp;nbsp; &amp;nbsp; &amp;nbsp; &amp;nbsp; &amp;nbsp; &amp;nbsp; &amp;nbsp; &amp;nbsp; &amp;nbsp; &amp;nbsp; &amp;nbsp; 1&lt;/div&gt;" style="text;html=1;align=center;verticalAlign=middle;whiteSpace=wrap;rounded=0;" vertex="1" parent="1">
          <mxGeometry x="194" y="2826" width="110" height="30" as="geometry" />
        </mxCell>
        <mxCell id="UclUqDLvG8Msh8uGyruY-76" value="1" style="text;html=1;align=center;verticalAlign=middle;whiteSpace=wrap;rounded=0;" vertex="1" parent="1">
          <mxGeometry x="179" y="2973" width="60" height="30" as="geometry" />
        </mxCell>
        <mxCell id="UclUqDLvG8Msh8uGyruY-77" value="*" style="text;html=1;align=center;verticalAlign=middle;whiteSpace=wrap;rounded=0;" vertex="1" parent="1">
          <mxGeometry x="203" y="2942" width="60" height="30" as="geometry" />
        </mxCell>
        <mxCell id="UclUqDLvG8Msh8uGyruY-78" value="*" style="text;html=1;align=center;verticalAlign=middle;whiteSpace=wrap;rounded=0;" vertex="1" parent="1">
          <mxGeometry x="486" y="2793" width="60" height="30" as="geometry" />
        </mxCell>
        <mxCell id="UclUqDLvG8Msh8uGyruY-79" value="*" style="text;html=1;align=center;verticalAlign=middle;whiteSpace=wrap;rounded=0;" vertex="1" parent="1">
          <mxGeometry x="513" y="2820" width="60" height="30" as="geometry" />
        </mxCell>
        <mxCell id="UclUqDLvG8Msh8uGyruY-80" value="*" style="text;html=1;align=center;verticalAlign=middle;whiteSpace=wrap;rounded=0;" vertex="1" parent="1">
          <mxGeometry x="420" y="2996" width="60" height="30" as="geometry" />
        </mxCell>
        <mxCell id="UclUqDLvG8Msh8uGyruY-81" value="1" style="text;html=1;align=center;verticalAlign=middle;whiteSpace=wrap;rounded=0;" vertex="1" parent="1">
          <mxGeometry x="380" y="2977" width="60" height="30" as="geometry" />
        </mxCell>
        <mxCell id="UclUqDLvG8Msh8uGyruY-86" style="edgeStyle=orthogonalEdgeStyle;rounded=0;orthogonalLoop=1;jettySize=auto;html=1;entryX=1;entryY=0.115;entryDx=0;entryDy=0;entryPerimeter=0;" edge="1" parent="1" source="VTj1KqyeiY5SHbrKJYaJ-205" target="VTj1KqyeiY5SHbrKJYaJ-215">
          <mxGeometry relative="1" as="geometry" />
        </mxCell>
        <mxCell id="UclUqDLvG8Msh8uGyruY-88" value="like" style="swimlane;fontStyle=0;childLayout=stackLayout;horizontal=1;startSize=26;fillColor=none;horizontalStack=0;resizeParent=1;resizeParentMax=0;resizeLast=0;collapsible=1;marginBottom=0;whiteSpace=wrap;html=1;" vertex="1" parent="1">
          <mxGeometry x="240" y="2310" width="140" height="104" as="geometry" />
        </mxCell>
        <mxCell id="UclUqDLvG8Msh8uGyruY-89" value="like_ID [PK]" style="text;strokeColor=none;fillColor=none;align=left;verticalAlign=top;spacingLeft=4;spacingRight=4;overflow=hidden;rotatable=0;points=[[0,0.5],[1,0.5]];portConstraint=eastwest;whiteSpace=wrap;html=1;" vertex="1" parent="UclUqDLvG8Msh8uGyruY-88">
          <mxGeometry y="26" width="140" height="26" as="geometry" />
        </mxCell>
        <mxCell id="UclUqDLvG8Msh8uGyruY-90" value="user_ID" style="text;strokeColor=none;fillColor=none;align=left;verticalAlign=top;spacingLeft=4;spacingRight=4;overflow=hidden;rotatable=0;points=[[0,0.5],[1,0.5]];portConstraint=eastwest;whiteSpace=wrap;html=1;" vertex="1" parent="UclUqDLvG8Msh8uGyruY-88">
          <mxGeometry y="52" width="140" height="26" as="geometry" />
        </mxCell>
        <mxCell id="UclUqDLvG8Msh8uGyruY-91" value="article_ID" style="text;strokeColor=none;fillColor=none;align=left;verticalAlign=top;spacingLeft=4;spacingRight=4;overflow=hidden;rotatable=0;points=[[0,0.5],[1,0.5]];portConstraint=eastwest;whiteSpace=wrap;html=1;" vertex="1" parent="UclUqDLvG8Msh8uGyruY-88">
          <mxGeometry y="78" width="140" height="26" as="geometry" />
        </mxCell>
        <mxCell id="UclUqDLvG8Msh8uGyruY-92" style="edgeStyle=orthogonalEdgeStyle;rounded=0;orthogonalLoop=1;jettySize=auto;html=1;entryX=0;entryY=0.5;entryDx=0;entryDy=0;" edge="1" parent="1" source="UclUqDLvG8Msh8uGyruY-90" target="VTj1KqyeiY5SHbrKJYaJ-208">
          <mxGeometry relative="1" as="geometry" />
        </mxCell>
        <mxCell id="UclUqDLvG8Msh8uGyruY-93" style="edgeStyle=orthogonalEdgeStyle;rounded=0;orthogonalLoop=1;jettySize=auto;html=1;entryX=1;entryY=0.5;entryDx=0;entryDy=0;" edge="1" parent="1" source="UclUqDLvG8Msh8uGyruY-90" target="VTj1KqyeiY5SHbrKJYaJ-202">
          <mxGeometry relative="1" as="geometry" />
        </mxCell>
        <mxCell id="UclUqDLvG8Msh8uGyruY-99" value="&lt;span style=&quot;background-color: initial;&quot;&gt;&lt;span style=&quot;white-space: pre;&quot;&gt;&#x9;&lt;/span&gt;&amp;nbsp; &amp;nbsp; &amp;nbsp;1&lt;/span&gt;&lt;div&gt;&lt;br&gt;&lt;/div&gt;&lt;div&gt;&lt;br&gt;&lt;div style=&quot;&quot;&gt;&lt;span style=&quot;background-color: initial;&quot;&gt;*&lt;/span&gt;&lt;/div&gt;&lt;/div&gt;" style="text;html=1;align=left;verticalAlign=middle;whiteSpace=wrap;rounded=0;" vertex="1" parent="1">
          <mxGeometry x="384" y="2324" width="60" height="30" as="geometry" />
        </mxCell>
        <mxCell id="UclUqDLvG8Msh8uGyruY-102" value="1&amp;nbsp;&amp;nbsp;&lt;div&gt;&lt;br&gt;&lt;/div&gt;&lt;div&gt;&lt;br&gt;&lt;/div&gt;&lt;div&gt;&lt;br&gt;&lt;/div&gt;&lt;div&gt;&amp;nbsp; &amp;nbsp; &amp;nbsp; &amp;nbsp; &amp;nbsp; &amp;nbsp; &amp;nbsp;*&lt;/div&gt;" style="text;html=1;align=left;verticalAlign=middle;resizable=0;points=[];autosize=1;strokeColor=none;fillColor=none;" vertex="1" parent="1">
          <mxGeometry x="184" y="2286" width="70" height="90" as="geometry" />
        </mxCell>
        <mxCell id="UclUqDLvG8Msh8uGyruY-105" value="USER" style="swimlane;fontStyle=0;childLayout=stackLayout;horizontal=1;startSize=26;fillColor=none;horizontalStack=0;resizeParent=1;resizeParentMax=0;resizeLast=0;collapsible=1;marginBottom=0;whiteSpace=wrap;html=1;" vertex="1" parent="1">
          <mxGeometry x="51" y="3540" width="140" height="104" as="geometry" />
        </mxCell>
        <mxCell id="UclUqDLvG8Msh8uGyruY-106" value="user_id [PK]" style="text;strokeColor=none;fillColor=none;align=left;verticalAlign=top;spacingLeft=4;spacingRight=4;overflow=hidden;rotatable=0;points=[[0,0.5],[1,0.5]];portConstraint=eastwest;whiteSpace=wrap;html=1;" vertex="1" parent="UclUqDLvG8Msh8uGyruY-105">
          <mxGeometry y="26" width="140" height="26" as="geometry" />
        </mxCell>
        <mxCell id="UclUqDLvG8Msh8uGyruY-107" value="user_name" style="text;strokeColor=none;fillColor=none;align=left;verticalAlign=top;spacingLeft=4;spacingRight=4;overflow=hidden;rotatable=0;points=[[0,0.5],[1,0.5]];portConstraint=eastwest;whiteSpace=wrap;html=1;" vertex="1" parent="UclUqDLvG8Msh8uGyruY-105">
          <mxGeometry y="52" width="140" height="26" as="geometry" />
        </mxCell>
        <mxCell id="UclUqDLvG8Msh8uGyruY-108" value="password" style="text;strokeColor=none;fillColor=none;align=left;verticalAlign=top;spacingLeft=4;spacingRight=4;overflow=hidden;rotatable=0;points=[[0,0.5],[1,0.5]];portConstraint=eastwest;whiteSpace=wrap;html=1;" vertex="1" parent="UclUqDLvG8Msh8uGyruY-105">
          <mxGeometry y="78" width="140" height="26" as="geometry" />
        </mxCell>
        <mxCell id="UclUqDLvG8Msh8uGyruY-120" value="" style="shape=umlActor;verticalLabelPosition=bottom;verticalAlign=top;html=1;outlineConnect=0;" vertex="1" parent="1">
          <mxGeometry x="79" y="2671" width="30" height="60" as="geometry" />
        </mxCell>
        <mxCell id="UclUqDLvG8Msh8uGyruY-124" value="Text" style="text;html=1;align=center;verticalAlign=middle;whiteSpace=wrap;rounded=0;" vertex="1" parent="1">
          <mxGeometry x="199" y="430" width="60" height="30" as="geometry" />
        </mxCell>
        <mxCell id="UclUqDLvG8Msh8uGyruY-125" value="FICHE" style="swimlane;fontStyle=0;childLayout=stackLayout;horizontal=1;startSize=26;fillColor=none;horizontalStack=0;resizeParent=1;resizeParentMax=0;resizeLast=0;collapsible=1;marginBottom=0;whiteSpace=wrap;html=1;" vertex="1" parent="1">
          <mxGeometry x="241" y="3540" width="140" height="156" as="geometry" />
        </mxCell>
        <mxCell id="UclUqDLvG8Msh8uGyruY-126" value="fiche_id [PK]" style="text;strokeColor=none;fillColor=none;align=left;verticalAlign=top;spacingLeft=4;spacingRight=4;overflow=hidden;rotatable=0;points=[[0,0.5],[1,0.5]];portConstraint=eastwest;whiteSpace=wrap;html=1;" vertex="1" parent="UclUqDLvG8Msh8uGyruY-125">
          <mxGeometry y="26" width="140" height="26" as="geometry" />
        </mxCell>
        <mxCell id="UclUqDLvG8Msh8uGyruY-132" value="tags [FK]" style="text;strokeColor=none;fillColor=none;align=left;verticalAlign=top;spacingLeft=4;spacingRight=4;overflow=hidden;rotatable=0;points=[[0,0.5],[1,0.5]];portConstraint=eastwest;whiteSpace=wrap;html=1;" vertex="1" parent="UclUqDLvG8Msh8uGyruY-125">
          <mxGeometry y="52" width="140" height="26" as="geometry" />
        </mxCell>
        <mxCell id="UclUqDLvG8Msh8uGyruY-127" value="fiche_name" style="text;strokeColor=none;fillColor=none;align=left;verticalAlign=top;spacingLeft=4;spacingRight=4;overflow=hidden;rotatable=0;points=[[0,0.5],[1,0.5]];portConstraint=eastwest;whiteSpace=wrap;html=1;" vertex="1" parent="UclUqDLvG8Msh8uGyruY-125">
          <mxGeometry y="78" width="140" height="26" as="geometry" />
        </mxCell>
        <mxCell id="UclUqDLvG8Msh8uGyruY-129" value="description" style="text;strokeColor=none;fillColor=none;align=left;verticalAlign=top;spacingLeft=4;spacingRight=4;overflow=hidden;rotatable=0;points=[[0,0.5],[1,0.5]];portConstraint=eastwest;whiteSpace=wrap;html=1;" vertex="1" parent="UclUqDLvG8Msh8uGyruY-125">
          <mxGeometry y="104" width="140" height="26" as="geometry" />
        </mxCell>
        <mxCell id="UclUqDLvG8Msh8uGyruY-130" value="other_user_visibility" style="text;strokeColor=none;fillColor=none;align=left;verticalAlign=top;spacingLeft=4;spacingRight=4;overflow=hidden;rotatable=0;points=[[0,0.5],[1,0.5]];portConstraint=eastwest;whiteSpace=wrap;html=1;" vertex="1" parent="UclUqDLvG8Msh8uGyruY-125">
          <mxGeometry y="130" width="140" height="26" as="geometry" />
        </mxCell>
        <mxCell id="UclUqDLvG8Msh8uGyruY-133" value="TAG" style="swimlane;fontStyle=0;childLayout=stackLayout;horizontal=1;startSize=26;fillColor=none;horizontalStack=0;resizeParent=1;resizeParentMax=0;resizeLast=0;collapsible=1;marginBottom=0;whiteSpace=wrap;html=1;" vertex="1" parent="1">
          <mxGeometry x="423" y="3540" width="140" height="104" as="geometry" />
        </mxCell>
        <mxCell id="UclUqDLvG8Msh8uGyruY-134" value="tag_id" style="text;strokeColor=none;fillColor=none;align=left;verticalAlign=top;spacingLeft=4;spacingRight=4;overflow=hidden;rotatable=0;points=[[0,0.5],[1,0.5]];portConstraint=eastwest;whiteSpace=wrap;html=1;" vertex="1" parent="UclUqDLvG8Msh8uGyruY-133">
          <mxGeometry y="26" width="140" height="26" as="geometry" />
        </mxCell>
        <mxCell id="UclUqDLvG8Msh8uGyruY-135" value="tag_list" style="text;strokeColor=none;fillColor=none;align=left;verticalAlign=top;spacingLeft=4;spacingRight=4;overflow=hidden;rotatable=0;points=[[0,0.5],[1,0.5]];portConstraint=eastwest;whiteSpace=wrap;html=1;" vertex="1" parent="UclUqDLvG8Msh8uGyruY-133">
          <mxGeometry y="52" width="140" height="26" as="geometry" />
        </mxCell>
        <mxCell id="UclUqDLvG8Msh8uGyruY-136" value="+ field: type" style="text;strokeColor=none;fillColor=none;align=left;verticalAlign=top;spacingLeft=4;spacingRight=4;overflow=hidden;rotatable=0;points=[[0,0.5],[1,0.5]];portConstraint=eastwest;whiteSpace=wrap;html=1;" vertex="1" parent="UclUqDLvG8Msh8uGyruY-133">
          <mxGeometry y="78" width="140" height="26" as="geometry" />
        </mxCell>
      </root>
    </mxGraphModel>
  </diagram>
</mxfile>
